<svg width="1011" height="431" viewBox="0 0 1011 431" fill="none" xmlns="http://www.w3.org/2000/svg">
<rect width="1010.87" height="431" rx="8" fill="url(#paint0_linear)"/>
<path d="M45.7803 201.287H40.5244V205.225H46.668V207H38.3008V194.203H46.6064V195.996H40.5244V199.529H45.7803V201.287ZM51.6865 200.619L53.4971 197.49H55.8701L52.9609 202.175L55.9668 207H53.6113L51.7129 203.748L49.8232 207H47.4502L50.4561 202.175L47.5557 197.49H49.9111L51.6865 200.619ZM60.001 195.179V197.49H61.6797V199.072H60.001V204.381C60.001 204.744 60.0713 205.008 60.2119 205.172C60.3584 205.33 60.6162 205.409 60.9854 205.409C61.2314 205.409 61.4805 205.38 61.7324 205.321V206.974C61.2461 207.108 60.7773 207.176 60.3262 207.176C58.6855 207.176 57.8652 206.271 57.8652 204.46V199.072H56.3008V197.49H57.8652V195.179H60.001ZM67.5068 207.176C66.1533 207.176 65.0547 206.751 64.2109 205.901C63.373 205.046 62.9541 203.909 62.9541 202.491V202.228C62.9541 201.278 63.1357 200.432 63.499 199.688C63.8682 198.938 64.3838 198.354 65.0459 197.938C65.708 197.522 66.4463 197.314 67.2607 197.314C68.5557 197.314 69.5547 197.728 70.2578 198.554C70.9668 199.38 71.3213 200.549 71.3213 202.061V202.922H65.1074C65.1719 203.707 65.4326 204.328 65.8896 204.785C66.3525 205.242 66.9326 205.471 67.6299 205.471C68.6084 205.471 69.4053 205.075 70.0205 204.284L71.1719 205.383C70.791 205.951 70.2812 206.394 69.6426 206.71C69.0098 207.021 68.2979 207.176 67.5068 207.176ZM67.252 199.028C66.666 199.028 66.1914 199.233 65.8281 199.644C65.4707 200.054 65.2422 200.625 65.1426 201.357H69.2119V201.199C69.165 200.484 68.9746 199.945 68.6406 199.582C68.3066 199.213 67.8438 199.028 67.252 199.028ZM77.9658 199.441C77.6846 199.395 77.3945 199.371 77.0957 199.371C76.1172 199.371 75.458 199.746 75.1182 200.496V207H72.9824V197.49H75.0215L75.0742 198.554C75.5898 197.728 76.3047 197.314 77.2188 197.314C77.5234 197.314 77.7754 197.355 77.9746 197.438L77.9658 199.441ZM81.2969 197.49L81.3584 198.589C82.0615 197.739 82.9844 197.314 84.127 197.314C86.1074 197.314 87.1152 198.448 87.1504 200.716V207H85.0146V200.839C85.0146 200.235 84.8828 199.79 84.6191 199.503C84.3613 199.21 83.9365 199.063 83.3447 199.063C82.4834 199.063 81.8418 199.453 81.4199 200.232V207H79.2842V197.49H81.2969ZM93.5225 207.176C92.1689 207.176 91.0703 206.751 90.2266 205.901C89.3887 205.046 88.9697 203.909 88.9697 202.491V202.228C88.9697 201.278 89.1514 200.432 89.5146 199.688C89.8838 198.938 90.3994 198.354 91.0615 197.938C91.7236 197.522 92.4619 197.314 93.2764 197.314C94.5713 197.314 95.5703 197.728 96.2734 198.554C96.9824 199.38 97.3369 200.549 97.3369 202.061V202.922H91.123C91.1875 203.707 91.4482 204.328 91.9053 204.785C92.3682 205.242 92.9482 205.471 93.6455 205.471C94.624 205.471 95.4209 205.075 96.0361 204.284L97.1875 205.383C96.8066 205.951 96.2969 206.394 95.6582 206.71C95.0254 207.021 94.3135 207.176 93.5225 207.176ZM93.2676 199.028C92.6816 199.028 92.207 199.233 91.8438 199.644C91.4863 200.054 91.2578 200.625 91.1582 201.357H95.2275V201.199C95.1807 200.484 94.9902 199.945 94.6562 199.582C94.3223 199.213 93.8594 199.028 93.2676 199.028ZM41.4473 225.293L43.46 218.49H45.666L42.3701 228H40.5156L37.1934 218.49H39.4082L41.4473 225.293ZM52.5479 228C52.4541 227.818 52.3721 227.522 52.3018 227.112C51.6221 227.821 50.79 228.176 49.8057 228.176C48.8506 228.176 48.0713 227.903 47.4678 227.358C46.8643 226.813 46.5625 226.14 46.5625 225.337C46.5625 224.323 46.9375 223.547 47.6875 223.008C48.4434 222.463 49.5215 222.19 50.9219 222.19H52.2314V221.566C52.2314 221.074 52.0938 220.682 51.8184 220.389C51.543 220.09 51.124 219.94 50.5615 219.94C50.0752 219.94 49.6768 220.063 49.3662 220.31C49.0557 220.55 48.9004 220.857 48.9004 221.232H46.7646C46.7646 220.711 46.9375 220.225 47.2832 219.773C47.6289 219.316 48.0977 218.959 48.6895 218.701C49.2871 218.443 49.9521 218.314 50.6846 218.314C51.7979 218.314 52.6855 218.596 53.3477 219.158C54.0098 219.715 54.3496 220.5 54.3672 221.514V225.803C54.3672 226.658 54.4873 227.341 54.7275 227.851V228H52.5479ZM50.2012 226.462C50.623 226.462 51.0186 226.359 51.3877 226.154C51.7627 225.949 52.0439 225.674 52.2314 225.328V223.535H51.0801C50.2891 223.535 49.6943 223.673 49.2959 223.948C48.8975 224.224 48.6982 224.613 48.6982 225.117C48.6982 225.527 48.833 225.855 49.1025 226.102C49.3779 226.342 49.7441 226.462 50.2012 226.462ZM61.583 220.441C61.3018 220.395 61.0117 220.371 60.7129 220.371C59.7344 220.371 59.0752 220.746 58.7354 221.496V228H56.5996V218.49H58.6387L58.6914 219.554C59.207 218.728 59.9219 218.314 60.8359 218.314C61.1406 218.314 61.3926 218.355 61.5918 218.438L61.583 220.441ZM65.2041 228H63.0684V218.49H65.2041V228ZM62.9365 216.021C62.9365 215.692 63.0391 215.42 63.2441 215.203C63.4551 214.986 63.7539 214.878 64.1406 214.878C64.5273 214.878 64.8262 214.986 65.0371 215.203C65.248 215.42 65.3535 215.692 65.3535 216.021C65.3535 216.343 65.248 216.612 65.0371 216.829C64.8262 217.04 64.5273 217.146 64.1406 217.146C63.7539 217.146 63.4551 217.04 63.2441 216.829C63.0391 216.612 62.9365 216.343 62.9365 216.021ZM73.2197 228C73.126 227.818 73.0439 227.522 72.9736 227.112C72.2939 227.821 71.4619 228.176 70.4775 228.176C69.5225 228.176 68.7432 227.903 68.1396 227.358C67.5361 226.813 67.2344 226.14 67.2344 225.337C67.2344 224.323 67.6094 223.547 68.3594 223.008C69.1152 222.463 70.1934 222.19 71.5938 222.19H72.9033V221.566C72.9033 221.074 72.7656 220.682 72.4902 220.389C72.2148 220.09 71.7959 219.94 71.2334 219.94C70.7471 219.94 70.3486 220.063 70.0381 220.31C69.7275 220.55 69.5723 220.857 69.5723 221.232H67.4365C67.4365 220.711 67.6094 220.225 67.9551 219.773C68.3008 219.316 68.7695 218.959 69.3613 218.701C69.959 218.443 70.624 218.314 71.3564 218.314C72.4697 218.314 73.3574 218.596 74.0195 219.158C74.6816 219.715 75.0215 220.5 75.0391 221.514V225.803C75.0391 226.658 75.1592 227.341 75.3994 227.851V228H73.2197ZM70.873 226.462C71.2949 226.462 71.6904 226.359 72.0596 226.154C72.4346 225.949 72.7158 225.674 72.9033 225.328V223.535H71.752C70.9609 223.535 70.3662 223.673 69.9678 223.948C69.5693 224.224 69.3701 224.613 69.3701 225.117C69.3701 225.527 69.5049 225.855 69.7744 226.102C70.0498 226.342 70.416 226.462 70.873 226.462ZM85.6211 223.342C85.6211 224.818 85.29 225.993 84.6279 226.866C83.9717 227.739 83.0664 228.176 81.9121 228.176C80.7988 228.176 79.9316 227.774 79.3105 226.972L79.2051 228H77.2715V214.5H79.4072V219.404C80.0225 218.678 80.8516 218.314 81.8945 218.314C83.0547 218.314 83.9658 218.745 84.6279 219.606C85.29 220.468 85.6211 221.672 85.6211 223.219V223.342ZM83.4854 223.157C83.4854 222.126 83.3037 221.353 82.9404 220.837C82.5771 220.321 82.0498 220.063 81.3584 220.063C80.4326 220.063 79.7822 220.468 79.4072 221.276V225.196C79.7881 226.022 80.4443 226.436 81.376 226.436C82.0439 226.436 82.5596 226.187 82.9229 225.688C83.2861 225.19 83.4736 224.438 83.4854 223.43V223.157ZM91.6064 228.176C90.2529 228.176 89.1543 227.751 88.3105 226.901C87.4727 226.046 87.0537 224.909 87.0537 223.491V223.228C87.0537 222.278 87.2354 221.432 87.5986 220.688C87.9678 219.938 88.4834 219.354 89.1455 218.938C89.8076 218.522 90.5459 218.314 91.3604 218.314C92.6553 218.314 93.6543 218.728 94.3574 219.554C95.0664 220.38 95.4209 221.549 95.4209 223.061V223.922H89.207C89.2715 224.707 89.5322 225.328 89.9893 225.785C90.4521 226.242 91.0322 226.471 91.7295 226.471C92.708 226.471 93.5049 226.075 94.1201 225.284L95.2715 226.383C94.8906 226.951 94.3809 227.394 93.7422 227.71C93.1094 228.021 92.3975 228.176 91.6064 228.176ZM91.3516 220.028C90.7656 220.028 90.291 220.233 89.9277 220.644C89.5703 221.054 89.3418 221.625 89.2422 222.357H93.3115V222.199C93.2646 221.484 93.0742 220.945 92.7402 220.582C92.4062 220.213 91.9434 220.028 91.3516 220.028ZM99.3584 228H97.2227V214.5H99.3584V228ZM105.88 228.176C104.526 228.176 103.428 227.751 102.584 226.901C101.746 226.046 101.327 224.909 101.327 223.491V223.228C101.327 222.278 101.509 221.432 101.872 220.688C102.241 219.938 102.757 219.354 103.419 218.938C104.081 218.522 104.819 218.314 105.634 218.314C106.929 218.314 107.928 218.728 108.631 219.554C109.34 220.38 109.694 221.549 109.694 223.061V223.922H103.48C103.545 224.707 103.806 225.328 104.263 225.785C104.726 226.242 105.306 226.471 106.003 226.471C106.981 226.471 107.778 226.075 108.394 225.284L109.545 226.383C109.164 226.951 108.654 227.394 108.016 227.71C107.383 228.021 106.671 228.176 105.88 228.176ZM105.625 220.028C105.039 220.028 104.564 220.233 104.201 220.644C103.844 221.054 103.615 221.625 103.516 222.357H107.585V222.199C107.538 221.484 107.348 220.945 107.014 220.582C106.68 220.213 106.217 220.028 105.625 220.028ZM113.342 218.49L113.403 219.589C114.106 218.739 115.029 218.314 116.172 218.314C118.152 218.314 119.16 219.448 119.195 221.716V228H117.06V221.839C117.06 221.235 116.928 220.79 116.664 220.503C116.406 220.21 115.981 220.063 115.39 220.063C114.528 220.063 113.887 220.453 113.465 221.232V228H111.329V218.49H113.342Z" fill="#FFF2F1"/>
<path d="M269.464 89.0205H264.507L263.47 92H261.158L265.992 79.2031H267.987L272.83 92H270.51L269.464 89.0205ZM265.131 87.2275H268.84L266.985 81.9189L265.131 87.2275ZM276.601 80.1787V82.4902H278.279V84.0723H276.601V89.3809C276.601 89.7441 276.671 90.0078 276.812 90.1719C276.958 90.3301 277.216 90.4092 277.585 90.4092C277.831 90.4092 278.08 90.3799 278.332 90.3213V91.9736C277.846 92.1084 277.377 92.1758 276.926 92.1758C275.285 92.1758 274.465 91.2705 274.465 89.46V84.0723H272.9V82.4902H274.465V80.1787H276.601ZM282.595 80.1787V82.4902H284.273V84.0723H282.595V89.3809C282.595 89.7441 282.665 90.0078 282.806 90.1719C282.952 90.3301 283.21 90.4092 283.579 90.4092C283.825 90.4092 284.074 90.3799 284.326 90.3213V91.9736C283.84 92.1084 283.371 92.1758 282.92 92.1758C281.279 92.1758 280.459 91.2705 280.459 89.46V84.0723H278.895V82.4902H280.459V80.1787H282.595ZM288.185 92H286.049V82.4902H288.185V92ZM285.917 80.0205C285.917 79.6924 286.02 79.4199 286.225 79.2031C286.436 78.9863 286.734 78.8779 287.121 78.8779C287.508 78.8779 287.807 78.9863 288.018 79.2031C288.229 79.4199 288.334 79.6924 288.334 80.0205C288.334 80.3428 288.229 80.6123 288.018 80.8291C287.807 81.04 287.508 81.1455 287.121 81.1455C286.734 81.1455 286.436 81.04 286.225 80.8291C286.02 80.6123 285.917 80.3428 285.917 80.0205ZM293.194 80.1787V82.4902H294.873V84.0723H293.194V89.3809C293.194 89.7441 293.265 90.0078 293.405 90.1719C293.552 90.3301 293.81 90.4092 294.179 90.4092C294.425 90.4092 294.674 90.3799 294.926 90.3213V91.9736C294.439 92.1084 293.971 92.1758 293.52 92.1758C291.879 92.1758 291.059 91.2705 291.059 89.46V84.0723H289.494V82.4902H291.059V80.1787H293.194ZM302.273 91.0684C301.646 91.8066 300.756 92.1758 299.602 92.1758C298.57 92.1758 297.788 91.874 297.255 91.2705C296.728 90.667 296.464 89.7939 296.464 88.6514V82.4902H298.6V88.625C298.6 89.832 299.101 90.4355 300.103 90.4355C301.14 90.4355 301.84 90.0635 302.203 89.3193V82.4902H304.339V92H302.326L302.273 91.0684ZM306.114 87.1748C306.114 85.71 306.454 84.5352 307.134 83.6504C307.813 82.7598 308.725 82.3145 309.867 82.3145C310.875 82.3145 311.689 82.666 312.311 83.3691V78.5H314.446V92H312.513L312.407 91.0156C311.769 91.7891 310.916 92.1758 309.85 92.1758C308.736 92.1758 307.834 91.7275 307.143 90.8311C306.457 89.9346 306.114 88.7158 306.114 87.1748ZM308.25 87.3594C308.25 88.3262 308.435 89.082 308.804 89.627C309.179 90.166 309.709 90.4355 310.395 90.4355C311.268 90.4355 311.906 90.0459 312.311 89.2666V85.2061C311.918 84.4443 311.285 84.0635 310.412 84.0635C309.721 84.0635 309.188 84.3389 308.812 84.8896C308.438 85.4346 308.25 86.2578 308.25 87.3594ZM320.862 92.1758C319.509 92.1758 318.41 91.751 317.566 90.9014C316.729 90.0459 316.31 88.9092 316.31 87.4912V87.2275C316.31 86.2783 316.491 85.4316 316.854 84.6875C317.224 83.9375 317.739 83.3545 318.401 82.9385C319.063 82.5225 319.802 82.3145 320.616 82.3145C321.911 82.3145 322.91 82.7275 323.613 83.5537C324.322 84.3799 324.677 85.5488 324.677 87.0605V87.9219H318.463C318.527 88.707 318.788 89.3281 319.245 89.7852C319.708 90.2422 320.288 90.4707 320.985 90.4707C321.964 90.4707 322.761 90.0752 323.376 89.2842L324.527 90.3828C324.146 90.9512 323.637 91.3936 322.998 91.71C322.365 92.0205 321.653 92.1758 320.862 92.1758ZM320.607 84.0283C320.021 84.0283 319.547 84.2334 319.184 84.6436C318.826 85.0537 318.598 85.625 318.498 86.3574H322.567V86.1992C322.521 85.4844 322.33 84.9453 321.996 84.582C321.662 84.2129 321.199 84.0283 320.607 84.0283ZM331.673 89.416C331.673 89.0352 331.515 88.7451 331.198 88.5459C330.888 88.3467 330.369 88.1709 329.643 88.0186C328.916 87.8662 328.31 87.6729 327.823 87.4385C326.757 86.9229 326.224 86.1758 326.224 85.1973C326.224 84.377 326.569 83.6914 327.261 83.1406C327.952 82.5898 328.831 82.3145 329.897 82.3145C331.034 82.3145 331.951 82.5957 332.648 83.1582C333.352 83.7207 333.703 84.4502 333.703 85.3467H331.567C331.567 84.9365 331.415 84.5967 331.11 84.3271C330.806 84.0518 330.401 83.9141 329.897 83.9141C329.429 83.9141 329.045 84.0225 328.746 84.2393C328.453 84.4561 328.307 84.7461 328.307 85.1094C328.307 85.4375 328.444 85.6924 328.72 85.874C328.995 86.0557 329.552 86.2402 330.39 86.4277C331.228 86.6094 331.884 86.8291 332.358 87.0869C332.839 87.3389 333.193 87.6436 333.422 88.001C333.656 88.3584 333.773 88.792 333.773 89.3018C333.773 90.1572 333.419 90.8516 332.71 91.3848C332.001 91.9121 331.072 92.1758 329.924 92.1758C329.145 92.1758 328.45 92.0352 327.841 91.7539C327.231 91.4727 326.757 91.0859 326.417 90.5938C326.077 90.1016 325.907 89.5713 325.907 89.0029H327.981C328.011 89.5068 328.201 89.8965 328.553 90.1719C328.904 90.4414 329.37 90.5762 329.95 90.5762C330.513 90.5762 330.94 90.4707 331.233 90.2598C331.526 90.043 331.673 89.7617 331.673 89.416Z" fill="#FFF2F1"/>
<path d="M268.989 193.704C268.989 193.142 268.79 192.708 268.392 192.403C267.999 192.099 267.287 191.791 266.256 191.48C265.225 191.17 264.404 190.824 263.795 190.443C262.629 189.711 262.046 188.756 262.046 187.578C262.046 186.547 262.465 185.697 263.303 185.029C264.146 184.361 265.239 184.027 266.581 184.027C267.472 184.027 268.266 184.191 268.963 184.52C269.66 184.848 270.208 185.316 270.606 185.926C271.005 186.529 271.204 187.2 271.204 187.938H268.989C268.989 187.271 268.778 186.749 268.356 186.374C267.94 185.993 267.343 185.803 266.563 185.803C265.837 185.803 265.271 185.958 264.867 186.269C264.469 186.579 264.27 187.013 264.27 187.569C264.27 188.038 264.486 188.431 264.92 188.747C265.354 189.058 266.068 189.362 267.064 189.661C268.061 189.954 268.86 190.291 269.464 190.672C270.067 191.047 270.51 191.48 270.791 191.973C271.072 192.459 271.213 193.03 271.213 193.687C271.213 194.753 270.803 195.603 269.982 196.235C269.168 196.862 268.061 197.176 266.66 197.176C265.734 197.176 264.882 197.006 264.103 196.666C263.329 196.32 262.726 195.846 262.292 195.242C261.864 194.639 261.65 193.936 261.65 193.133H263.874C263.874 193.859 264.114 194.422 264.595 194.82C265.075 195.219 265.764 195.418 266.66 195.418C267.434 195.418 268.014 195.263 268.4 194.952C268.793 194.636 268.989 194.22 268.989 193.704ZM278.719 196.068C278.092 196.807 277.201 197.176 276.047 197.176C275.016 197.176 274.233 196.874 273.7 196.271C273.173 195.667 272.909 194.794 272.909 193.651V187.49H275.045V193.625C275.045 194.832 275.546 195.436 276.548 195.436C277.585 195.436 278.285 195.063 278.648 194.319V187.49H280.784V197H278.771L278.719 196.068ZM291.305 192.342C291.305 193.818 290.974 194.993 290.312 195.866C289.655 196.739 288.75 197.176 287.596 197.176C286.482 197.176 285.615 196.774 284.994 195.972L284.889 197H282.955V183.5H285.091V188.404C285.706 187.678 286.535 187.314 287.578 187.314C288.738 187.314 289.649 187.745 290.312 188.606C290.974 189.468 291.305 190.672 291.305 192.219V192.342ZM289.169 192.157C289.169 191.126 288.987 190.353 288.624 189.837C288.261 189.321 287.733 189.063 287.042 189.063C286.116 189.063 285.466 189.468 285.091 190.276V194.196C285.472 195.022 286.128 195.436 287.06 195.436C287.728 195.436 288.243 195.187 288.606 194.688C288.97 194.19 289.157 193.438 289.169 192.43V192.157ZM295.33 187.49V197.844C295.33 198.816 295.087 199.558 294.601 200.067C294.12 200.583 293.414 200.841 292.482 200.841C292.09 200.841 291.712 200.791 291.349 200.691V199.004C291.571 199.057 291.823 199.083 292.104 199.083C292.813 199.083 293.177 198.696 293.194 197.923V187.49H295.33ZM293.01 185.021C293.01 184.692 293.112 184.42 293.317 184.203C293.528 183.986 293.827 183.878 294.214 183.878C294.601 183.878 294.899 183.986 295.11 184.203C295.321 184.42 295.427 184.692 295.427 185.021C295.427 185.343 295.321 185.612 295.11 185.829C294.899 186.04 294.601 186.146 294.214 186.146C293.827 186.146 293.528 186.04 293.317 185.829C293.112 185.612 293.01 185.343 293.01 185.021ZM301.808 197.176C300.454 197.176 299.355 196.751 298.512 195.901C297.674 195.046 297.255 193.909 297.255 192.491V192.228C297.255 191.278 297.437 190.432 297.8 189.688C298.169 188.938 298.685 188.354 299.347 187.938C300.009 187.522 300.747 187.314 301.562 187.314C302.856 187.314 303.855 187.728 304.559 188.554C305.268 189.38 305.622 190.549 305.622 192.061V192.922H299.408C299.473 193.707 299.733 194.328 300.19 194.785C300.653 195.242 301.233 195.471 301.931 195.471C302.909 195.471 303.706 195.075 304.321 194.284L305.473 195.383C305.092 195.951 304.582 196.394 303.943 196.71C303.311 197.021 302.599 197.176 301.808 197.176ZM301.553 189.028C300.967 189.028 300.492 189.233 300.129 189.644C299.771 190.054 299.543 190.625 299.443 191.357H303.513V191.199C303.466 190.484 303.275 189.945 302.941 189.582C302.607 189.213 302.145 189.028 301.553 189.028ZM311.194 195.471C311.728 195.471 312.17 195.315 312.521 195.005C312.873 194.694 313.061 194.311 313.084 193.854H315.097C315.073 194.445 314.889 194.999 314.543 195.515C314.197 196.024 313.729 196.429 313.137 196.728C312.545 197.026 311.906 197.176 311.221 197.176C309.891 197.176 308.836 196.745 308.057 195.884C307.277 195.022 306.888 193.833 306.888 192.315V192.096C306.888 190.648 307.274 189.491 308.048 188.624C308.821 187.751 309.876 187.314 311.212 187.314C312.343 187.314 313.263 187.646 313.972 188.308C314.687 188.964 315.062 189.828 315.097 190.9H313.084C313.061 190.355 312.873 189.907 312.521 189.556C312.176 189.204 311.733 189.028 311.194 189.028C310.503 189.028 309.97 189.28 309.595 189.784C309.22 190.282 309.029 191.041 309.023 192.061V192.403C309.023 193.435 309.208 194.205 309.577 194.715C309.952 195.219 310.491 195.471 311.194 195.471ZM319.386 185.179V187.49H321.064V189.072H319.386V194.381C319.386 194.744 319.456 195.008 319.597 195.172C319.743 195.33 320.001 195.409 320.37 195.409C320.616 195.409 320.865 195.38 321.117 195.321V196.974C320.631 197.108 320.162 197.176 319.711 197.176C318.07 197.176 317.25 196.271 317.25 194.46V189.072H315.686V187.49H317.25V185.179H319.386ZM324.976 197H322.84V187.49H324.976V197ZM322.708 185.021C322.708 184.692 322.811 184.42 323.016 184.203C323.227 183.986 323.525 183.878 323.912 183.878C324.299 183.878 324.598 183.986 324.809 184.203C325.02 184.42 325.125 184.692 325.125 185.021C325.125 185.343 325.02 185.612 324.809 185.829C324.598 186.04 324.299 186.146 323.912 186.146C323.525 186.146 323.227 186.04 323.016 185.829C322.811 185.612 322.708 185.343 322.708 185.021ZM331.497 197.176C330.144 197.176 329.045 196.751 328.201 195.901C327.363 195.046 326.944 193.909 326.944 192.491V192.228C326.944 191.278 327.126 190.432 327.489 189.688C327.858 188.938 328.374 188.354 329.036 187.938C329.698 187.522 330.437 187.314 331.251 187.314C332.546 187.314 333.545 187.728 334.248 188.554C334.957 189.38 335.312 190.549 335.312 192.061V192.922H329.098C329.162 193.707 329.423 194.328 329.88 194.785C330.343 195.242 330.923 195.471 331.62 195.471C332.599 195.471 333.396 195.075 334.011 194.284L335.162 195.383C334.781 195.951 334.271 196.394 333.633 196.71C333 197.021 332.288 197.176 331.497 197.176ZM331.242 189.028C330.656 189.028 330.182 189.233 329.818 189.644C329.461 190.054 329.232 190.625 329.133 191.357H333.202V191.199C333.155 190.484 332.965 189.945 332.631 189.582C332.297 189.213 331.834 189.028 331.242 189.028ZM340.207 194.293L342.22 187.49H344.426L341.13 197H339.275L335.953 187.49H338.168L340.207 194.293ZM349.831 197.176C348.478 197.176 347.379 196.751 346.535 195.901C345.697 195.046 345.278 193.909 345.278 192.491V192.228C345.278 191.278 345.46 190.432 345.823 189.688C346.192 188.938 346.708 188.354 347.37 187.938C348.032 187.522 348.771 187.314 349.585 187.314C350.88 187.314 351.879 187.728 352.582 188.554C353.291 189.38 353.646 190.549 353.646 192.061V192.922H347.432C347.496 193.707 347.757 194.328 348.214 194.785C348.677 195.242 349.257 195.471 349.954 195.471C350.933 195.471 351.729 195.075 352.345 194.284L353.496 195.383C353.115 195.951 352.605 196.394 351.967 196.71C351.334 197.021 350.622 197.176 349.831 197.176ZM349.576 189.028C348.99 189.028 348.516 189.233 348.152 189.644C347.795 190.054 347.566 190.625 347.467 191.357H351.536V191.199C351.489 190.484 351.299 189.945 350.965 189.582C350.631 189.213 350.168 189.028 349.576 189.028ZM264.076 208.49L264.138 209.589C264.841 208.739 265.764 208.314 266.906 208.314C268.887 208.314 269.895 209.448 269.93 211.716V218H267.794V211.839C267.794 211.235 267.662 210.79 267.398 210.503C267.141 210.21 266.716 210.063 266.124 210.063C265.263 210.063 264.621 210.453 264.199 211.232V218H262.063V208.49H264.076ZM271.714 213.157C271.714 212.226 271.898 211.388 272.268 210.644C272.637 209.894 273.155 209.319 273.823 208.921C274.491 208.517 275.259 208.314 276.126 208.314C277.409 208.314 278.449 208.728 279.246 209.554C280.049 210.38 280.482 211.476 280.547 212.841L280.556 213.342C280.556 214.279 280.374 215.117 280.011 215.855C279.653 216.594 279.138 217.165 278.464 217.569C277.796 217.974 277.022 218.176 276.144 218.176C274.802 218.176 273.727 217.73 272.918 216.84C272.115 215.943 271.714 214.751 271.714 213.263V213.157ZM273.85 213.342C273.85 214.32 274.052 215.088 274.456 215.645C274.86 216.195 275.423 216.471 276.144 216.471C276.864 216.471 277.424 216.189 277.822 215.627C278.227 215.064 278.429 214.241 278.429 213.157C278.429 212.196 278.221 211.435 277.805 210.872C277.395 210.31 276.835 210.028 276.126 210.028C275.429 210.028 274.875 210.307 274.465 210.863C274.055 211.414 273.85 212.24 273.85 213.342ZM287.341 210.441C287.06 210.395 286.77 210.371 286.471 210.371C285.492 210.371 284.833 210.746 284.493 211.496V218H282.357V208.49H284.396L284.449 209.554C284.965 208.728 285.68 208.314 286.594 208.314C286.898 208.314 287.15 208.355 287.35 208.438L287.341 210.441ZM290.698 208.49L290.76 209.483C291.428 208.704 292.342 208.314 293.502 208.314C294.773 208.314 295.644 208.801 296.112 209.773C296.804 208.801 297.776 208.314 299.03 208.314C300.079 208.314 300.858 208.604 301.368 209.185C301.884 209.765 302.147 210.62 302.159 211.751V218H300.023V211.812C300.023 211.209 299.892 210.767 299.628 210.485C299.364 210.204 298.928 210.063 298.318 210.063C297.832 210.063 297.434 210.195 297.123 210.459C296.818 210.717 296.604 211.057 296.481 211.479L296.49 218H294.354V211.742C294.325 210.623 293.754 210.063 292.641 210.063C291.785 210.063 291.179 210.412 290.821 211.109V218H288.686V208.49H290.698ZM308.54 218.176C307.187 218.176 306.088 217.751 305.244 216.901C304.406 216.046 303.987 214.909 303.987 213.491V213.228C303.987 212.278 304.169 211.432 304.532 210.688C304.901 209.938 305.417 209.354 306.079 208.938C306.741 208.522 307.479 208.314 308.294 208.314C309.589 208.314 310.588 208.728 311.291 209.554C312 210.38 312.354 211.549 312.354 213.061V213.922H306.141C306.205 214.707 306.466 215.328 306.923 215.785C307.386 216.242 307.966 216.471 308.663 216.471C309.642 216.471 310.438 216.075 311.054 215.284L312.205 216.383C311.824 216.951 311.314 217.394 310.676 217.71C310.043 218.021 309.331 218.176 308.54 218.176ZM308.285 210.028C307.699 210.028 307.225 210.233 306.861 210.644C306.504 211.054 306.275 211.625 306.176 212.357H310.245V212.199C310.198 211.484 310.008 210.945 309.674 210.582C309.34 210.213 308.877 210.028 308.285 210.028ZM316.002 208.49L316.063 209.589C316.767 208.739 317.689 208.314 318.832 208.314C320.812 208.314 321.82 209.448 321.855 211.716V218H319.72V211.839C319.72 211.235 319.588 210.79 319.324 210.503C319.066 210.21 318.642 210.063 318.05 210.063C317.188 210.063 316.547 210.453 316.125 211.232V218H313.989V208.49H316.002ZM328.122 213.157C328.122 212.226 328.307 211.388 328.676 210.644C329.045 209.894 329.563 209.319 330.231 208.921C330.899 208.517 331.667 208.314 332.534 208.314C333.817 208.314 334.857 208.728 335.654 209.554C336.457 210.38 336.891 211.476 336.955 212.841L336.964 213.342C336.964 214.279 336.782 215.117 336.419 215.855C336.062 216.594 335.546 217.165 334.872 217.569C334.204 217.974 333.431 218.176 332.552 218.176C331.21 218.176 330.135 217.73 329.326 216.84C328.523 215.943 328.122 214.751 328.122 213.263V213.157ZM330.258 213.342C330.258 214.32 330.46 215.088 330.864 215.645C331.269 216.195 331.831 216.471 332.552 216.471C333.272 216.471 333.832 216.189 334.23 215.627C334.635 215.064 334.837 214.241 334.837 213.157C334.837 212.196 334.629 211.435 334.213 210.872C333.803 210.31 333.243 210.028 332.534 210.028C331.837 210.028 331.283 210.307 330.873 210.863C330.463 211.414 330.258 212.24 330.258 213.342ZM339.521 218V210.072H338.071V208.49H339.521V207.62C339.521 206.565 339.814 205.751 340.4 205.177C340.986 204.603 341.807 204.315 342.861 204.315C343.236 204.315 343.635 204.368 344.057 204.474L344.004 206.144C343.77 206.097 343.497 206.073 343.187 206.073C342.167 206.073 341.657 206.598 341.657 207.646V208.49H343.591V210.072H341.657V218H339.521ZM267.425 236.416C267.425 236.035 267.267 235.745 266.95 235.546C266.64 235.347 266.121 235.171 265.395 235.019C264.668 234.866 264.062 234.673 263.575 234.438C262.509 233.923 261.976 233.176 261.976 232.197C261.976 231.377 262.321 230.691 263.013 230.141C263.704 229.59 264.583 229.314 265.649 229.314C266.786 229.314 267.703 229.596 268.4 230.158C269.104 230.721 269.455 231.45 269.455 232.347H267.319C267.319 231.937 267.167 231.597 266.862 231.327C266.558 231.052 266.153 230.914 265.649 230.914C265.181 230.914 264.797 231.022 264.498 231.239C264.205 231.456 264.059 231.746 264.059 232.109C264.059 232.438 264.196 232.692 264.472 232.874C264.747 233.056 265.304 233.24 266.142 233.428C266.979 233.609 267.636 233.829 268.11 234.087C268.591 234.339 268.945 234.644 269.174 235.001C269.408 235.358 269.525 235.792 269.525 236.302C269.525 237.157 269.171 237.852 268.462 238.385C267.753 238.912 266.824 239.176 265.676 239.176C264.896 239.176 264.202 239.035 263.593 238.754C262.983 238.473 262.509 238.086 262.169 237.594C261.829 237.102 261.659 236.571 261.659 236.003H263.733C263.763 236.507 263.953 236.896 264.305 237.172C264.656 237.441 265.122 237.576 265.702 237.576C266.265 237.576 266.692 237.471 266.985 237.26C267.278 237.043 267.425 236.762 267.425 236.416ZM270.993 234.157C270.993 233.226 271.178 232.388 271.547 231.644C271.916 230.894 272.435 230.319 273.103 229.921C273.771 229.517 274.538 229.314 275.405 229.314C276.688 229.314 277.729 229.728 278.525 230.554C279.328 231.38 279.762 232.476 279.826 233.841L279.835 234.342C279.835 235.279 279.653 236.117 279.29 236.855C278.933 237.594 278.417 238.165 277.743 238.569C277.075 238.974 276.302 239.176 275.423 239.176C274.081 239.176 273.006 238.73 272.197 237.84C271.395 236.943 270.993 235.751 270.993 234.263V234.157ZM273.129 234.342C273.129 235.32 273.331 236.088 273.735 236.645C274.14 237.195 274.702 237.471 275.423 237.471C276.144 237.471 276.703 237.189 277.102 236.627C277.506 236.064 277.708 235.241 277.708 234.157C277.708 233.196 277.5 232.435 277.084 231.872C276.674 231.31 276.114 231.028 275.405 231.028C274.708 231.028 274.154 231.307 273.744 231.863C273.334 232.414 273.129 233.24 273.129 234.342ZM285.548 237.471C286.081 237.471 286.523 237.315 286.875 237.005C287.227 236.694 287.414 236.311 287.438 235.854H289.45C289.427 236.445 289.242 236.999 288.896 237.515C288.551 238.024 288.082 238.429 287.49 238.728C286.898 239.026 286.26 239.176 285.574 239.176C284.244 239.176 283.189 238.745 282.41 237.884C281.631 237.022 281.241 235.833 281.241 234.315V234.096C281.241 232.648 281.628 231.491 282.401 230.624C283.175 229.751 284.229 229.314 285.565 229.314C286.696 229.314 287.616 229.646 288.325 230.308C289.04 230.964 289.415 231.828 289.45 232.9H287.438C287.414 232.355 287.227 231.907 286.875 231.556C286.529 231.204 286.087 231.028 285.548 231.028C284.856 231.028 284.323 231.28 283.948 231.784C283.573 232.282 283.383 233.041 283.377 234.061V234.403C283.377 235.435 283.562 236.205 283.931 236.715C284.306 237.219 284.845 237.471 285.548 237.471ZM293.335 239H291.199V229.49H293.335V239ZM291.067 227.021C291.067 226.692 291.17 226.42 291.375 226.203C291.586 225.986 291.885 225.878 292.271 225.878C292.658 225.878 292.957 225.986 293.168 226.203C293.379 226.42 293.484 226.692 293.484 227.021C293.484 227.343 293.379 227.612 293.168 227.829C292.957 228.04 292.658 228.146 292.271 228.146C291.885 228.146 291.586 228.04 291.375 227.829C291.17 227.612 291.067 227.343 291.067 227.021ZM301.351 239C301.257 238.818 301.175 238.522 301.104 238.112C300.425 238.821 299.593 239.176 298.608 239.176C297.653 239.176 296.874 238.903 296.271 238.358C295.667 237.813 295.365 237.14 295.365 236.337C295.365 235.323 295.74 234.547 296.49 234.008C297.246 233.463 298.324 233.19 299.725 233.19H301.034V232.566C301.034 232.074 300.896 231.682 300.621 231.389C300.346 231.09 299.927 230.94 299.364 230.94C298.878 230.94 298.479 231.063 298.169 231.31C297.858 231.55 297.703 231.857 297.703 232.232H295.567C295.567 231.711 295.74 231.225 296.086 230.773C296.432 230.316 296.9 229.959 297.492 229.701C298.09 229.443 298.755 229.314 299.487 229.314C300.601 229.314 301.488 229.596 302.15 230.158C302.812 230.715 303.152 231.5 303.17 232.514V236.803C303.17 237.658 303.29 238.341 303.53 238.851V239H301.351ZM299.004 237.462C299.426 237.462 299.821 237.359 300.19 237.154C300.565 236.949 300.847 236.674 301.034 236.328V234.535H299.883C299.092 234.535 298.497 234.673 298.099 234.948C297.7 235.224 297.501 235.613 297.501 236.117C297.501 236.527 297.636 236.855 297.905 237.102C298.181 237.342 298.547 237.462 299.004 237.462ZM307.679 239H305.543V225.5H307.679V239ZM314.2 239.176C312.847 239.176 311.748 238.751 310.904 237.901C310.066 237.046 309.647 235.909 309.647 234.491V234.228C309.647 233.278 309.829 232.432 310.192 231.688C310.562 230.938 311.077 230.354 311.739 229.938C312.401 229.522 313.14 229.314 313.954 229.314C315.249 229.314 316.248 229.728 316.951 230.554C317.66 231.38 318.015 232.549 318.015 234.061V234.922H311.801C311.865 235.707 312.126 236.328 312.583 236.785C313.046 237.242 313.626 237.471 314.323 237.471C315.302 237.471 316.099 237.075 316.714 236.284L317.865 237.383C317.484 237.951 316.975 238.394 316.336 238.71C315.703 239.021 314.991 239.176 314.2 239.176ZM313.945 231.028C313.359 231.028 312.885 231.233 312.521 231.644C312.164 232.054 311.936 232.625 311.836 233.357H315.905V233.199C315.858 232.484 315.668 231.945 315.334 231.582C315 231.213 314.537 231.028 313.945 231.028ZM326.435 239H324.299V229.49H326.435V239ZM324.167 227.021C324.167 226.692 324.27 226.42 324.475 226.203C324.686 225.986 324.984 225.878 325.371 225.878C325.758 225.878 326.057 225.986 326.268 226.203C326.479 226.42 326.584 226.692 326.584 227.021C326.584 227.343 326.479 227.612 326.268 227.829C326.057 228.04 325.758 228.146 325.371 228.146C324.984 228.146 324.686 228.04 324.475 227.829C324.27 227.612 324.167 227.343 324.167 227.021ZM330.75 229.49L330.812 230.589C331.515 229.739 332.438 229.314 333.58 229.314C335.561 229.314 336.568 230.448 336.604 232.716V239H334.468V232.839C334.468 232.235 334.336 231.79 334.072 231.503C333.814 231.21 333.39 231.063 332.798 231.063C331.937 231.063 331.295 231.453 330.873 232.232V239H328.737V229.49H330.75ZM342.141 236.293L344.153 229.49H346.359L343.063 239H341.209L337.887 229.49H340.102L342.141 236.293ZM349.972 239H347.836V225.5H349.972V239ZM351.905 234.157C351.905 233.226 352.09 232.388 352.459 231.644C352.828 230.894 353.347 230.319 354.015 229.921C354.683 229.517 355.45 229.314 356.317 229.314C357.601 229.314 358.641 229.728 359.438 230.554C360.24 231.38 360.674 232.476 360.738 233.841L360.747 234.342C360.747 235.279 360.565 236.117 360.202 236.855C359.845 237.594 359.329 238.165 358.655 238.569C357.987 238.974 357.214 239.176 356.335 239.176C354.993 239.176 353.918 238.73 353.109 237.84C352.307 236.943 351.905 235.751 351.905 234.263V234.157ZM354.041 234.342C354.041 235.32 354.243 236.088 354.647 236.645C355.052 237.195 355.614 237.471 356.335 237.471C357.056 237.471 357.615 237.189 358.014 236.627C358.418 236.064 358.62 235.241 358.62 234.157C358.62 233.196 358.412 232.435 357.996 231.872C357.586 231.31 357.026 231.028 356.317 231.028C355.62 231.028 355.066 231.307 354.656 231.863C354.246 232.414 354.041 233.24 354.041 234.342ZM366.741 239.176C365.388 239.176 364.289 238.751 363.445 237.901C362.607 237.046 362.188 235.909 362.188 234.491V234.228C362.188 233.278 362.37 232.432 362.733 231.688C363.103 230.938 363.618 230.354 364.28 229.938C364.942 229.522 365.681 229.314 366.495 229.314C367.79 229.314 368.789 229.728 369.492 230.554C370.201 231.38 370.556 232.549 370.556 234.061V234.922H364.342C364.406 235.707 364.667 236.328 365.124 236.785C365.587 237.242 366.167 237.471 366.864 237.471C367.843 237.471 368.64 237.075 369.255 236.284L370.406 237.383C370.025 237.951 369.516 238.394 368.877 238.71C368.244 239.021 367.532 239.176 366.741 239.176ZM366.486 231.028C365.9 231.028 365.426 231.233 365.062 231.644C364.705 232.054 364.477 232.625 364.377 233.357H368.446V233.199C368.399 232.484 368.209 231.945 367.875 231.582C367.541 231.213 367.078 231.028 366.486 231.028ZM371.821 234.175C371.821 232.71 372.161 231.535 372.841 230.65C373.521 229.76 374.432 229.314 375.574 229.314C376.582 229.314 377.396 229.666 378.018 230.369V225.5H380.153V239H378.22L378.114 238.016C377.476 238.789 376.623 239.176 375.557 239.176C374.443 239.176 373.541 238.728 372.85 237.831C372.164 236.935 371.821 235.716 371.821 234.175ZM373.957 234.359C373.957 235.326 374.142 236.082 374.511 236.627C374.886 237.166 375.416 237.436 376.102 237.436C376.975 237.436 377.613 237.046 378.018 236.267V232.206C377.625 231.444 376.992 231.063 376.119 231.063C375.428 231.063 374.895 231.339 374.52 231.89C374.145 232.435 373.957 233.258 373.957 234.359Z" fill="#FFF2F1"/>
<path d="M536.647 220H534.433V207.203H536.647V220ZM541.156 210.49L541.218 211.589C541.921 210.739 542.844 210.314 543.986 210.314C545.967 210.314 546.975 211.448 547.01 213.716V220H544.874V213.839C544.874 213.235 544.742 212.79 544.479 212.503C544.221 212.21 543.796 212.063 543.204 212.063C542.343 212.063 541.701 212.453 541.279 213.232V220H539.144V210.49H541.156ZM551.87 208.179V210.49H553.549V212.072H551.87V217.381C551.87 217.744 551.94 218.008 552.081 218.172C552.228 218.33 552.485 218.409 552.854 218.409C553.101 218.409 553.35 218.38 553.602 218.321V219.974C553.115 220.108 552.646 220.176 552.195 220.176C550.555 220.176 549.734 219.271 549.734 217.46V212.072H548.17V210.49H549.734V208.179H551.87ZM559.376 220.176C558.022 220.176 556.924 219.751 556.08 218.901C555.242 218.046 554.823 216.909 554.823 215.491V215.228C554.823 214.278 555.005 213.432 555.368 212.688C555.737 211.938 556.253 211.354 556.915 210.938C557.577 210.522 558.315 210.314 559.13 210.314C560.425 210.314 561.424 210.728 562.127 211.554C562.836 212.38 563.19 213.549 563.19 215.061V215.922H556.977C557.041 216.707 557.302 217.328 557.759 217.785C558.222 218.242 558.802 218.471 559.499 218.471C560.478 218.471 561.274 218.075 561.89 217.284L563.041 218.383C562.66 218.951 562.15 219.394 561.512 219.71C560.879 220.021 560.167 220.176 559.376 220.176ZM559.121 212.028C558.535 212.028 558.061 212.233 557.697 212.644C557.34 213.054 557.111 213.625 557.012 214.357H561.081V214.199C561.034 213.484 560.844 212.945 560.51 212.582C560.176 212.213 559.713 212.028 559.121 212.028ZM566.838 210.49L566.899 211.589C567.603 210.739 568.525 210.314 569.668 210.314C571.648 210.314 572.656 211.448 572.691 213.716V220H570.556V213.839C570.556 213.235 570.424 212.79 570.16 212.503C569.902 212.21 569.478 212.063 568.886 212.063C568.024 212.063 567.383 212.453 566.961 213.232V220H564.825V210.49H566.838ZM577.552 208.179V210.49H579.23V212.072H577.552V217.381C577.552 217.744 577.622 218.008 577.763 218.172C577.909 218.33 578.167 218.409 578.536 218.409C578.782 218.409 579.031 218.38 579.283 218.321V219.974C578.797 220.108 578.328 220.176 577.877 220.176C576.236 220.176 575.416 219.271 575.416 217.46V212.072H573.852V210.49H575.416V208.179H577.552ZM583.142 220H581.006V210.49H583.142V220ZM580.874 208.021C580.874 207.692 580.977 207.42 581.182 207.203C581.393 206.986 581.691 206.878 582.078 206.878C582.465 206.878 582.764 206.986 582.975 207.203C583.186 207.42 583.291 207.692 583.291 208.021C583.291 208.343 583.186 208.612 582.975 208.829C582.764 209.04 582.465 209.146 582.078 209.146C581.691 209.146 581.393 209.04 581.182 208.829C580.977 208.612 580.874 208.343 580.874 208.021ZM589.663 220.176C588.31 220.176 587.211 219.751 586.367 218.901C585.529 218.046 585.11 216.909 585.11 215.491V215.228C585.11 214.278 585.292 213.432 585.655 212.688C586.024 211.938 586.54 211.354 587.202 210.938C587.864 210.522 588.603 210.314 589.417 210.314C590.712 210.314 591.711 210.728 592.414 211.554C593.123 212.38 593.478 213.549 593.478 215.061V215.922H587.264C587.328 216.707 587.589 217.328 588.046 217.785C588.509 218.242 589.089 218.471 589.786 218.471C590.765 218.471 591.562 218.075 592.177 217.284L593.328 218.383C592.947 218.951 592.438 219.394 591.799 219.71C591.166 220.021 590.454 220.176 589.663 220.176ZM589.408 212.028C588.822 212.028 588.348 212.233 587.984 212.644C587.627 213.054 587.398 213.625 587.299 214.357H591.368V214.199C591.321 213.484 591.131 212.945 590.797 212.582C590.463 212.213 590 212.028 589.408 212.028Z" fill="#FFF2F1"/>
<path d="M272.338 324.836L274.307 315.203H276.513L273.56 328H271.433L268.998 318.657L266.511 328H264.375L261.422 315.203H263.628L265.614 324.818L268.058 315.203H269.921L272.338 324.836ZM283.315 328C283.222 327.818 283.14 327.522 283.069 327.112C282.39 327.821 281.558 328.176 280.573 328.176C279.618 328.176 278.839 327.903 278.235 327.358C277.632 326.813 277.33 326.14 277.33 325.337C277.33 324.323 277.705 323.547 278.455 323.008C279.211 322.463 280.289 322.19 281.689 322.19H282.999V321.566C282.999 321.074 282.861 320.682 282.586 320.389C282.311 320.09 281.892 319.94 281.329 319.94C280.843 319.94 280.444 320.063 280.134 320.31C279.823 320.55 279.668 320.857 279.668 321.232H277.532C277.532 320.711 277.705 320.225 278.051 319.773C278.396 319.316 278.865 318.959 279.457 318.701C280.055 318.443 280.72 318.314 281.452 318.314C282.565 318.314 283.453 318.596 284.115 319.158C284.777 319.715 285.117 320.5 285.135 321.514V325.803C285.135 326.658 285.255 327.341 285.495 327.851V328H283.315ZM280.969 326.462C281.391 326.462 281.786 326.359 282.155 326.154C282.53 325.949 282.812 325.674 282.999 325.328V323.535H281.848C281.057 323.535 280.462 323.673 280.063 323.948C279.665 324.224 279.466 324.613 279.466 325.117C279.466 325.527 279.601 325.855 279.87 326.102C280.146 326.342 280.512 326.462 280.969 326.462ZM293.054 328C292.96 327.818 292.878 327.522 292.808 327.112C292.128 327.821 291.296 328.176 290.312 328.176C289.356 328.176 288.577 327.903 287.974 327.358C287.37 326.813 287.068 326.14 287.068 325.337C287.068 324.323 287.443 323.547 288.193 323.008C288.949 322.463 290.027 322.19 291.428 322.19H292.737V321.566C292.737 321.074 292.6 320.682 292.324 320.389C292.049 320.09 291.63 319.94 291.067 319.94C290.581 319.94 290.183 320.063 289.872 320.31C289.562 320.55 289.406 320.857 289.406 321.232H287.271C287.271 320.711 287.443 320.225 287.789 319.773C288.135 319.316 288.604 318.959 289.195 318.701C289.793 318.443 290.458 318.314 291.19 318.314C292.304 318.314 293.191 318.596 293.854 319.158C294.516 319.715 294.855 320.5 294.873 321.514V325.803C294.873 326.658 294.993 327.341 295.233 327.851V328H293.054ZM290.707 326.462C291.129 326.462 291.524 326.359 291.894 326.154C292.269 325.949 292.55 325.674 292.737 325.328V323.535H291.586C290.795 323.535 290.2 323.673 289.802 323.948C289.403 324.224 289.204 324.613 289.204 325.117C289.204 325.527 289.339 325.855 289.608 326.102C289.884 326.342 290.25 326.462 290.707 326.462ZM302.089 320.441C301.808 320.395 301.518 320.371 301.219 320.371C300.24 320.371 299.581 320.746 299.241 321.496V328H297.105V318.49H299.145L299.197 319.554C299.713 318.728 300.428 318.314 301.342 318.314C301.646 318.314 301.898 318.355 302.098 318.438L302.089 320.441ZM302.889 323.175C302.889 321.698 303.234 320.521 303.926 319.642C304.623 318.757 305.546 318.314 306.694 318.314C307.778 318.314 308.631 318.692 309.252 319.448L309.349 318.49H311.273V327.71C311.273 328.958 310.884 329.942 310.104 330.663C309.331 331.384 308.285 331.744 306.967 331.744C306.27 331.744 305.587 331.598 304.919 331.305C304.257 331.018 303.753 330.64 303.407 330.171L304.418 328.888C305.074 329.667 305.883 330.057 306.844 330.057C307.553 330.057 308.112 329.863 308.522 329.477C308.933 329.096 309.138 328.533 309.138 327.789V327.147C308.522 327.833 307.702 328.176 306.677 328.176C305.563 328.176 304.652 327.733 303.943 326.849C303.24 325.964 302.889 324.739 302.889 323.175ZM305.016 323.359C305.016 324.314 305.209 325.067 305.596 325.618C305.988 326.163 306.53 326.436 307.222 326.436C308.083 326.436 308.722 326.066 309.138 325.328V321.145C308.733 320.424 308.101 320.063 307.239 320.063C306.536 320.063 305.988 320.342 305.596 320.898C305.209 321.455 305.016 322.275 305.016 323.359ZM317.663 328.176C316.31 328.176 315.211 327.751 314.367 326.901C313.529 326.046 313.11 324.909 313.11 323.491V323.228C313.11 322.278 313.292 321.432 313.655 320.688C314.024 319.938 314.54 319.354 315.202 318.938C315.864 318.522 316.603 318.314 317.417 318.314C318.712 318.314 319.711 318.728 320.414 319.554C321.123 320.38 321.478 321.549 321.478 323.061V323.922H315.264C315.328 324.707 315.589 325.328 316.046 325.785C316.509 326.242 317.089 326.471 317.786 326.471C318.765 326.471 319.562 326.075 320.177 325.284L321.328 326.383C320.947 326.951 320.438 327.394 319.799 327.71C319.166 328.021 318.454 328.176 317.663 328.176ZM317.408 320.028C316.822 320.028 316.348 320.233 315.984 320.644C315.627 321.054 315.398 321.625 315.299 322.357H319.368V322.199C319.321 321.484 319.131 320.945 318.797 320.582C318.463 320.213 318 320.028 317.408 320.028ZM325.125 318.49L325.187 319.589C325.89 318.739 326.812 318.314 327.955 318.314C329.936 318.314 330.943 319.448 330.979 321.716V328H328.843V321.839C328.843 321.235 328.711 320.79 328.447 320.503C328.189 320.21 327.765 320.063 327.173 320.063C326.312 320.063 325.67 320.453 325.248 321.232V328H323.112V318.49H325.125ZM332.763 323.157C332.763 322.226 332.947 321.388 333.316 320.644C333.686 319.894 334.204 319.319 334.872 318.921C335.54 318.517 336.308 318.314 337.175 318.314C338.458 318.314 339.498 318.728 340.295 319.554C341.098 320.38 341.531 321.476 341.596 322.841L341.604 323.342C341.604 324.279 341.423 325.117 341.06 325.855C340.702 326.594 340.187 327.165 339.513 327.569C338.845 327.974 338.071 328.176 337.192 328.176C335.851 328.176 334.775 327.73 333.967 326.84C333.164 325.943 332.763 324.751 332.763 323.263V323.157ZM334.898 323.342C334.898 324.32 335.101 325.088 335.505 325.645C335.909 326.195 336.472 326.471 337.192 326.471C337.913 326.471 338.473 326.189 338.871 325.627C339.275 325.064 339.478 324.241 339.478 323.157C339.478 322.196 339.27 321.435 338.854 320.872C338.443 320.31 337.884 320.028 337.175 320.028C336.478 320.028 335.924 320.307 335.514 320.863C335.104 321.414 334.898 322.24 334.898 323.342ZM345.419 318.49L345.48 319.483C346.148 318.704 347.062 318.314 348.223 318.314C349.494 318.314 350.364 318.801 350.833 319.773C351.524 318.801 352.497 318.314 353.751 318.314C354.8 318.314 355.579 318.604 356.089 319.185C356.604 319.765 356.868 320.62 356.88 321.751V328H354.744V321.812C354.744 321.209 354.612 320.767 354.349 320.485C354.085 320.204 353.648 320.063 353.039 320.063C352.553 320.063 352.154 320.195 351.844 320.459C351.539 320.717 351.325 321.057 351.202 321.479L351.211 328H349.075V321.742C349.046 320.623 348.475 320.063 347.361 320.063C346.506 320.063 345.899 320.412 345.542 321.109V328H343.406V318.49H345.419ZM363.261 328.176C361.907 328.176 360.809 327.751 359.965 326.901C359.127 326.046 358.708 324.909 358.708 323.491V323.228C358.708 322.278 358.89 321.432 359.253 320.688C359.622 319.938 360.138 319.354 360.8 318.938C361.462 318.522 362.2 318.314 363.015 318.314C364.31 318.314 365.309 318.728 366.012 319.554C366.721 320.38 367.075 321.549 367.075 323.061V323.922H360.861C360.926 324.707 361.187 325.328 361.644 325.785C362.106 326.242 362.687 326.471 363.384 326.471C364.362 326.471 365.159 326.075 365.774 325.284L366.926 326.383C366.545 326.951 366.035 327.394 365.396 327.71C364.764 328.021 364.052 328.176 363.261 328.176ZM363.006 320.028C362.42 320.028 361.945 320.233 361.582 320.644C361.225 321.054 360.996 321.625 360.896 322.357H364.966V322.199C364.919 321.484 364.729 320.945 364.395 320.582C364.061 320.213 363.598 320.028 363.006 320.028ZM370.723 318.49L370.784 319.589C371.487 318.739 372.41 318.314 373.553 318.314C375.533 318.314 376.541 319.448 376.576 321.716V328H374.44V321.839C374.44 321.235 374.309 320.79 374.045 320.503C373.787 320.21 373.362 320.063 372.771 320.063C371.909 320.063 371.268 320.453 370.846 321.232V328H368.71V318.49H370.723ZM261.721 344.175C261.721 342.698 262.066 341.521 262.758 340.642C263.455 339.757 264.378 339.314 265.526 339.314C266.61 339.314 267.463 339.692 268.084 340.448L268.181 339.49H270.105V348.71C270.105 349.958 269.716 350.942 268.937 351.663C268.163 352.384 267.117 352.744 265.799 352.744C265.102 352.744 264.419 352.598 263.751 352.305C263.089 352.018 262.585 351.64 262.239 351.171L263.25 349.888C263.906 350.667 264.715 351.057 265.676 351.057C266.385 351.057 266.944 350.863 267.354 350.477C267.765 350.096 267.97 349.533 267.97 348.789V348.147C267.354 348.833 266.534 349.176 265.509 349.176C264.396 349.176 263.484 348.733 262.775 347.849C262.072 346.964 261.721 345.739 261.721 344.175ZM263.848 344.359C263.848 345.314 264.041 346.067 264.428 346.618C264.82 347.163 265.362 347.436 266.054 347.436C266.915 347.436 267.554 347.066 267.97 346.328V342.145C267.565 341.424 266.933 341.063 266.071 341.063C265.368 341.063 264.82 341.342 264.428 341.898C264.041 342.455 263.848 343.275 263.848 344.359ZM276.495 349.176C275.142 349.176 274.043 348.751 273.199 347.901C272.361 347.046 271.942 345.909 271.942 344.491V344.228C271.942 343.278 272.124 342.432 272.487 341.688C272.856 340.938 273.372 340.354 274.034 339.938C274.696 339.522 275.435 339.314 276.249 339.314C277.544 339.314 278.543 339.728 279.246 340.554C279.955 341.38 280.31 342.549 280.31 344.061V344.922H274.096C274.16 345.707 274.421 346.328 274.878 346.785C275.341 347.242 275.921 347.471 276.618 347.471C277.597 347.471 278.394 347.075 279.009 346.284L280.16 347.383C279.779 347.951 279.27 348.394 278.631 348.71C277.998 349.021 277.286 349.176 276.495 349.176ZM276.24 341.028C275.654 341.028 275.18 341.233 274.816 341.644C274.459 342.054 274.23 342.625 274.131 343.357H278.2V343.199C278.153 342.484 277.963 341.945 277.629 341.582C277.295 341.213 276.832 341.028 276.24 341.028ZM281.575 344.175C281.575 342.71 281.915 341.535 282.595 340.65C283.274 339.76 284.186 339.314 285.328 339.314C286.336 339.314 287.15 339.666 287.771 340.369V335.5H289.907V349H287.974L287.868 348.016C287.229 348.789 286.377 349.176 285.311 349.176C284.197 349.176 283.295 348.728 282.604 347.831C281.918 346.935 281.575 345.716 281.575 344.175ZM283.711 344.359C283.711 345.326 283.896 346.082 284.265 346.627C284.64 347.166 285.17 347.436 285.855 347.436C286.729 347.436 287.367 347.046 287.771 346.267V342.206C287.379 341.444 286.746 341.063 285.873 341.063C285.182 341.063 284.648 341.339 284.273 341.89C283.898 342.435 283.711 343.258 283.711 344.359ZM297.114 341.441C296.833 341.395 296.543 341.371 296.244 341.371C295.266 341.371 294.606 341.746 294.267 342.496V349H292.131V339.49H294.17L294.223 340.554C294.738 339.728 295.453 339.314 296.367 339.314C296.672 339.314 296.924 339.355 297.123 339.438L297.114 341.441ZM303.882 349C303.788 348.818 303.706 348.522 303.636 348.112C302.956 348.821 302.124 349.176 301.14 349.176C300.185 349.176 299.405 348.903 298.802 348.358C298.198 347.813 297.896 347.14 297.896 346.337C297.896 345.323 298.271 344.547 299.021 344.008C299.777 343.463 300.855 343.19 302.256 343.19H303.565V342.566C303.565 342.074 303.428 341.682 303.152 341.389C302.877 341.09 302.458 340.94 301.896 340.94C301.409 340.94 301.011 341.063 300.7 341.31C300.39 341.55 300.234 341.857 300.234 342.232H298.099C298.099 341.711 298.271 341.225 298.617 340.773C298.963 340.316 299.432 339.959 300.023 339.701C300.621 339.443 301.286 339.314 302.019 339.314C303.132 339.314 304.02 339.596 304.682 340.158C305.344 340.715 305.684 341.5 305.701 342.514V346.803C305.701 347.658 305.821 348.341 306.062 348.851V349H303.882ZM301.535 347.462C301.957 347.462 302.353 347.359 302.722 347.154C303.097 346.949 303.378 346.674 303.565 346.328V344.535H302.414C301.623 344.535 301.028 344.673 300.63 344.948C300.231 345.224 300.032 345.613 300.032 346.117C300.032 346.527 300.167 346.855 300.437 347.102C300.712 347.342 301.078 347.462 301.535 347.462ZM307.564 344.175C307.564 342.698 307.91 341.521 308.602 340.642C309.299 339.757 310.222 339.314 311.37 339.314C312.454 339.314 313.307 339.692 313.928 340.448L314.024 339.49H315.949V348.71C315.949 349.958 315.56 350.942 314.78 351.663C314.007 352.384 312.961 352.744 311.643 352.744C310.945 352.744 310.263 352.598 309.595 352.305C308.933 352.018 308.429 351.64 308.083 351.171L309.094 349.888C309.75 350.667 310.559 351.057 311.52 351.057C312.229 351.057 312.788 350.863 313.198 350.477C313.608 350.096 313.813 349.533 313.813 348.789V348.147C313.198 348.833 312.378 349.176 311.353 349.176C310.239 349.176 309.328 348.733 308.619 347.849C307.916 346.964 307.564 345.739 307.564 344.175ZM309.691 344.359C309.691 345.314 309.885 346.067 310.271 346.618C310.664 347.163 311.206 347.436 311.897 347.436C312.759 347.436 313.397 347.066 313.813 346.328V342.145C313.409 341.424 312.776 341.063 311.915 341.063C311.212 341.063 310.664 341.342 310.271 341.898C309.885 342.455 309.691 343.275 309.691 344.359ZM323.481 346.416C323.481 346.035 323.323 345.745 323.007 345.546C322.696 345.347 322.178 345.171 321.451 345.019C320.725 344.866 320.118 344.673 319.632 344.438C318.565 343.923 318.032 343.176 318.032 342.197C318.032 341.377 318.378 340.691 319.069 340.141C319.761 339.59 320.64 339.314 321.706 339.314C322.843 339.314 323.76 339.596 324.457 340.158C325.16 340.721 325.512 341.45 325.512 342.347H323.376C323.376 341.937 323.224 341.597 322.919 341.327C322.614 341.052 322.21 340.914 321.706 340.914C321.237 340.914 320.854 341.022 320.555 341.239C320.262 341.456 320.115 341.746 320.115 342.109C320.115 342.438 320.253 342.692 320.528 342.874C320.804 343.056 321.36 343.24 322.198 343.428C323.036 343.609 323.692 343.829 324.167 344.087C324.647 344.339 325.002 344.644 325.23 345.001C325.465 345.358 325.582 345.792 325.582 346.302C325.582 347.157 325.228 347.852 324.519 348.385C323.81 348.912 322.881 349.176 321.732 349.176C320.953 349.176 320.259 349.035 319.649 348.754C319.04 348.473 318.565 348.086 318.226 347.594C317.886 347.102 317.716 346.571 317.716 346.003H319.79C319.819 346.507 320.01 346.896 320.361 347.172C320.713 347.441 321.179 347.576 321.759 347.576C322.321 347.576 322.749 347.471 323.042 347.26C323.335 347.043 323.481 346.762 323.481 346.416ZM331.356 347.471C331.89 347.471 332.332 347.315 332.684 347.005C333.035 346.694 333.223 346.311 333.246 345.854H335.259C335.235 346.445 335.051 346.999 334.705 347.515C334.359 348.024 333.891 348.429 333.299 348.728C332.707 349.026 332.068 349.176 331.383 349.176C330.053 349.176 328.998 348.745 328.219 347.884C327.439 347.022 327.05 345.833 327.05 344.315V344.096C327.05 342.648 327.437 341.491 328.21 340.624C328.983 339.751 330.038 339.314 331.374 339.314C332.505 339.314 333.425 339.646 334.134 340.308C334.849 340.964 335.224 341.828 335.259 342.9H333.246C333.223 342.355 333.035 341.907 332.684 341.556C332.338 341.204 331.896 341.028 331.356 341.028C330.665 341.028 330.132 341.28 329.757 341.784C329.382 342.282 329.191 343.041 329.186 344.061V344.403C329.186 345.435 329.37 346.205 329.739 346.715C330.114 347.219 330.653 347.471 331.356 347.471ZM336.472 344.157C336.472 343.226 336.656 342.388 337.025 341.644C337.395 340.894 337.913 340.319 338.581 339.921C339.249 339.517 340.017 339.314 340.884 339.314C342.167 339.314 343.207 339.728 344.004 340.554C344.807 341.38 345.24 342.476 345.305 343.841L345.313 344.342C345.313 345.279 345.132 346.117 344.769 346.855C344.411 347.594 343.896 348.165 343.222 348.569C342.554 348.974 341.78 349.176 340.901 349.176C339.56 349.176 338.484 348.73 337.676 347.84C336.873 346.943 336.472 345.751 336.472 344.263V344.157ZM338.607 344.342C338.607 345.32 338.81 346.088 339.214 346.645C339.618 347.195 340.181 347.471 340.901 347.471C341.622 347.471 342.182 347.189 342.58 346.627C342.984 346.064 343.187 345.241 343.187 344.157C343.187 343.196 342.979 342.435 342.562 341.872C342.152 341.31 341.593 341.028 340.884 341.028C340.187 341.028 339.633 341.307 339.223 341.863C338.812 342.414 338.607 343.24 338.607 344.342ZM349.102 339.49L349.163 340.589C349.866 339.739 350.789 339.314 351.932 339.314C353.912 339.314 354.92 340.448 354.955 342.716V349H352.819V342.839C352.819 342.235 352.688 341.79 352.424 341.503C352.166 341.21 351.741 341.063 351.149 341.063C350.288 341.063 349.646 341.453 349.225 342.232V349H347.089V339.49H349.102ZM359.815 337.179V339.49H361.494V341.072H359.815V346.381C359.815 346.744 359.886 347.008 360.026 347.172C360.173 347.33 360.431 347.409 360.8 347.409C361.046 347.409 361.295 347.38 361.547 347.321V348.974C361.061 349.108 360.592 349.176 360.141 349.176C358.5 349.176 357.68 348.271 357.68 346.46V341.072H356.115V339.49H357.68V337.179H359.815ZM368.112 341.441C367.831 341.395 367.541 341.371 367.242 341.371C366.264 341.371 365.604 341.746 365.265 342.496V349H363.129V339.49H365.168L365.221 340.554C365.736 339.728 366.451 339.314 367.365 339.314C367.67 339.314 367.922 339.355 368.121 339.438L368.112 341.441ZM368.745 344.157C368.745 343.226 368.93 342.388 369.299 341.644C369.668 340.894 370.187 340.319 370.854 339.921C371.522 339.517 372.29 339.314 373.157 339.314C374.44 339.314 375.48 339.728 376.277 340.554C377.08 341.38 377.514 342.476 377.578 343.841L377.587 344.342C377.587 345.279 377.405 346.117 377.042 346.855C376.685 347.594 376.169 348.165 375.495 348.569C374.827 348.974 374.054 349.176 373.175 349.176C371.833 349.176 370.758 348.73 369.949 347.84C369.146 346.943 368.745 345.751 368.745 344.263V344.157ZM370.881 344.342C370.881 345.32 371.083 346.088 371.487 346.645C371.892 347.195 372.454 347.471 373.175 347.471C373.896 347.471 374.455 347.189 374.854 346.627C375.258 346.064 375.46 345.241 375.46 344.157C375.46 343.196 375.252 342.435 374.836 341.872C374.426 341.31 373.866 341.028 373.157 341.028C372.46 341.028 371.906 341.307 371.496 341.863C371.086 342.414 370.881 343.24 370.881 344.342ZM381.665 349H379.529V335.5H381.665V349ZM388.187 349.176C386.833 349.176 385.734 348.751 384.891 347.901C384.053 347.046 383.634 345.909 383.634 344.491V344.228C383.634 343.278 383.815 342.432 384.179 341.688C384.548 340.938 385.063 340.354 385.726 339.938C386.388 339.522 387.126 339.314 387.94 339.314C389.235 339.314 390.234 339.728 390.938 340.554C391.646 341.38 392.001 342.549 392.001 344.061V344.922H385.787C385.852 345.707 386.112 346.328 386.569 346.785C387.032 347.242 387.612 347.471 388.31 347.471C389.288 347.471 390.085 347.075 390.7 346.284L391.852 347.383C391.471 347.951 390.961 348.394 390.322 348.71C389.689 349.021 388.978 349.176 388.187 349.176ZM387.932 341.028C387.346 341.028 386.871 341.233 386.508 341.644C386.15 342.054 385.922 342.625 385.822 343.357H389.892V343.199C389.845 342.484 389.654 341.945 389.32 341.582C388.986 341.213 388.523 341.028 387.932 341.028ZM261.694 365.157C261.694 364.226 261.879 363.388 262.248 362.644C262.617 361.894 263.136 361.319 263.804 360.921C264.472 360.517 265.239 360.314 266.106 360.314C267.39 360.314 268.43 360.728 269.227 361.554C270.029 362.38 270.463 363.476 270.527 364.841L270.536 365.342C270.536 366.279 270.354 367.117 269.991 367.855C269.634 368.594 269.118 369.165 268.444 369.569C267.776 369.974 267.003 370.176 266.124 370.176C264.782 370.176 263.707 369.73 262.898 368.84C262.096 367.943 261.694 366.751 261.694 365.263V365.157ZM263.83 365.342C263.83 366.32 264.032 367.088 264.437 367.645C264.841 368.195 265.403 368.471 266.124 368.471C266.845 368.471 267.404 368.189 267.803 367.627C268.207 367.064 268.409 366.241 268.409 365.157C268.409 364.196 268.201 363.435 267.785 362.872C267.375 362.31 266.815 362.028 266.106 362.028C265.409 362.028 264.855 362.307 264.445 362.863C264.035 363.414 263.83 364.24 263.83 365.342ZM273.094 370V362.072H271.644V360.49H273.094V359.62C273.094 358.565 273.387 357.751 273.973 357.177C274.559 356.603 275.379 356.315 276.434 356.315C276.809 356.315 277.207 356.368 277.629 356.474L277.576 358.144C277.342 358.097 277.069 358.073 276.759 358.073C275.739 358.073 275.229 358.598 275.229 359.646V360.49H277.163V362.072H275.229V370H273.094ZM287.394 370.176C286.04 370.176 284.941 369.751 284.098 368.901C283.26 368.046 282.841 366.909 282.841 365.491V365.228C282.841 364.278 283.022 363.432 283.386 362.688C283.755 361.938 284.271 361.354 284.933 360.938C285.595 360.522 286.333 360.314 287.147 360.314C288.442 360.314 289.441 360.728 290.145 361.554C290.854 362.38 291.208 363.549 291.208 365.061V365.922H284.994C285.059 366.707 285.319 367.328 285.776 367.785C286.239 368.242 286.819 368.471 287.517 368.471C288.495 368.471 289.292 368.075 289.907 367.284L291.059 368.383C290.678 368.951 290.168 369.394 289.529 369.71C288.896 370.021 288.185 370.176 287.394 370.176ZM287.139 362.028C286.553 362.028 286.078 362.233 285.715 362.644C285.357 363.054 285.129 363.625 285.029 364.357H289.099V364.199C289.052 363.484 288.861 362.945 288.527 362.582C288.193 362.213 287.73 362.028 287.139 362.028ZM295.146 370H293.01V360.49H295.146V370ZM292.878 358.021C292.878 357.692 292.98 357.42 293.186 357.203C293.396 356.986 293.695 356.878 294.082 356.878C294.469 356.878 294.768 356.986 294.979 357.203C295.189 357.42 295.295 357.692 295.295 358.021C295.295 358.343 295.189 358.612 294.979 358.829C294.768 359.04 294.469 359.146 294.082 359.146C293.695 359.146 293.396 359.04 293.186 358.829C292.98 358.612 292.878 358.343 292.878 358.021ZM297.105 365.175C297.105 363.698 297.451 362.521 298.143 361.642C298.84 360.757 299.763 360.314 300.911 360.314C301.995 360.314 302.848 360.692 303.469 361.448L303.565 360.49H305.49V369.71C305.49 370.958 305.101 371.942 304.321 372.663C303.548 373.384 302.502 373.744 301.184 373.744C300.486 373.744 299.804 373.598 299.136 373.305C298.474 373.018 297.97 372.64 297.624 372.171L298.635 370.888C299.291 371.667 300.1 372.057 301.061 372.057C301.77 372.057 302.329 371.863 302.739 371.477C303.149 371.096 303.354 370.533 303.354 369.789V369.147C302.739 369.833 301.919 370.176 300.894 370.176C299.78 370.176 298.869 369.733 298.16 368.849C297.457 367.964 297.105 366.739 297.105 365.175ZM299.232 365.359C299.232 366.314 299.426 367.067 299.812 367.618C300.205 368.163 300.747 368.436 301.438 368.436C302.3 368.436 302.938 368.066 303.354 367.328V363.145C302.95 362.424 302.317 362.063 301.456 362.063C300.753 362.063 300.205 362.342 299.812 362.898C299.426 363.455 299.232 364.275 299.232 365.359ZM311.88 370.176C310.526 370.176 309.428 369.751 308.584 368.901C307.746 368.046 307.327 366.909 307.327 365.491V365.228C307.327 364.278 307.509 363.432 307.872 362.688C308.241 361.938 308.757 361.354 309.419 360.938C310.081 360.522 310.819 360.314 311.634 360.314C312.929 360.314 313.928 360.728 314.631 361.554C315.34 362.38 315.694 363.549 315.694 365.061V365.922H309.48C309.545 366.707 309.806 367.328 310.263 367.785C310.726 368.242 311.306 368.471 312.003 368.471C312.981 368.471 313.778 368.075 314.394 367.284L315.545 368.383C315.164 368.951 314.654 369.394 314.016 369.71C313.383 370.021 312.671 370.176 311.88 370.176ZM311.625 362.028C311.039 362.028 310.564 362.233 310.201 362.644C309.844 363.054 309.615 363.625 309.516 364.357H313.585V364.199C313.538 363.484 313.348 362.945 313.014 362.582C312.68 362.213 312.217 362.028 311.625 362.028ZM319.342 360.49L319.403 361.589C320.106 360.739 321.029 360.314 322.172 360.314C324.152 360.314 325.16 361.448 325.195 363.716V370H323.06V363.839C323.06 363.235 322.928 362.79 322.664 362.503C322.406 362.21 321.981 362.063 321.39 362.063C320.528 362.063 319.887 362.453 319.465 363.232V370H317.329V360.49H319.342ZM331.523 365.421H326.909V363.698H331.523V365.421ZM337.474 370.176C336.12 370.176 335.021 369.751 334.178 368.901C333.34 368.046 332.921 366.909 332.921 365.491V365.228C332.921 364.278 333.103 363.432 333.466 362.688C333.835 361.938 334.351 361.354 335.013 360.938C335.675 360.522 336.413 360.314 337.228 360.314C338.522 360.314 339.521 360.728 340.225 361.554C340.934 362.38 341.288 363.549 341.288 365.061V365.922H335.074C335.139 366.707 335.399 367.328 335.856 367.785C336.319 368.242 336.899 368.471 337.597 368.471C338.575 368.471 339.372 368.075 339.987 367.284L341.139 368.383C340.758 368.951 340.248 369.394 339.609 369.71C338.977 370.021 338.265 370.176 337.474 370.176ZM337.219 362.028C336.633 362.028 336.158 362.233 335.795 362.644C335.438 363.054 335.209 363.625 335.109 364.357H339.179V364.199C339.132 363.484 338.941 362.945 338.607 362.582C338.273 362.213 337.811 362.028 337.219 362.028ZM343.705 370V362.072H342.255V360.49H343.705V359.62C343.705 358.565 343.998 357.751 344.584 357.177C345.17 356.603 345.99 356.315 347.045 356.315C347.42 356.315 347.818 356.368 348.24 356.474L348.188 358.144C347.953 358.097 347.681 358.073 347.37 358.073C346.351 358.073 345.841 358.598 345.841 359.646V360.49H347.774V362.072H345.841V370H343.705ZM350.086 370V362.072H348.636V360.49H350.086V359.62C350.086 358.565 350.379 357.751 350.965 357.177C351.551 356.603 352.371 356.315 353.426 356.315C353.801 356.315 354.199 356.368 354.621 356.474L354.568 358.144C354.334 358.097 354.062 358.073 353.751 358.073C352.731 358.073 352.222 358.598 352.222 359.646V360.49H354.155V362.072H352.222V370H350.086ZM359.692 370.176C358.339 370.176 357.24 369.751 356.396 368.901C355.559 368.046 355.14 366.909 355.14 365.491V365.228C355.14 364.278 355.321 363.432 355.685 362.688C356.054 361.938 356.569 361.354 357.231 360.938C357.894 360.522 358.632 360.314 359.446 360.314C360.741 360.314 361.74 360.728 362.443 361.554C363.152 362.38 363.507 363.549 363.507 365.061V365.922H357.293C357.357 366.707 357.618 367.328 358.075 367.785C358.538 368.242 359.118 368.471 359.815 368.471C360.794 368.471 361.591 368.075 362.206 367.284L363.357 368.383C362.977 368.951 362.467 369.394 361.828 369.71C361.195 370.021 360.483 370.176 359.692 370.176ZM359.438 362.028C358.852 362.028 358.377 362.233 358.014 362.644C357.656 363.054 357.428 363.625 357.328 364.357H361.397V364.199C361.351 363.484 361.16 362.945 360.826 362.582C360.492 362.213 360.029 362.028 359.438 362.028ZM369.079 368.471C369.612 368.471 370.055 368.315 370.406 368.005C370.758 367.694 370.945 367.311 370.969 366.854H372.981C372.958 367.445 372.773 367.999 372.428 368.515C372.082 369.024 371.613 369.429 371.021 369.728C370.43 370.026 369.791 370.176 369.105 370.176C367.775 370.176 366.721 369.745 365.941 368.884C365.162 368.022 364.772 366.833 364.772 365.315V365.096C364.772 363.648 365.159 362.491 365.933 361.624C366.706 360.751 367.761 360.314 369.097 360.314C370.228 360.314 371.147 360.646 371.856 361.308C372.571 361.964 372.946 362.828 372.981 363.9H370.969C370.945 363.355 370.758 362.907 370.406 362.556C370.061 362.204 369.618 362.028 369.079 362.028C368.388 362.028 367.854 362.28 367.479 362.784C367.104 363.282 366.914 364.041 366.908 365.061V365.403C366.908 366.435 367.093 367.205 367.462 367.715C367.837 368.219 368.376 368.471 369.079 368.471ZM377.271 358.179V360.49H378.949V362.072H377.271V367.381C377.271 367.744 377.341 368.008 377.481 368.172C377.628 368.33 377.886 368.409 378.255 368.409C378.501 368.409 378.75 368.38 379.002 368.321V369.974C378.516 370.108 378.047 370.176 377.596 370.176C375.955 370.176 375.135 369.271 375.135 367.46V362.072H373.57V360.49H375.135V358.179H377.271ZM382.86 370H380.725V360.49H382.86V370ZM380.593 358.021C380.593 357.692 380.695 357.42 380.9 357.203C381.111 356.986 381.41 356.878 381.797 356.878C382.184 356.878 382.482 356.986 382.693 357.203C382.904 357.42 383.01 357.692 383.01 358.021C383.01 358.343 382.904 358.612 382.693 358.829C382.482 359.04 382.184 359.146 381.797 359.146C381.41 359.146 381.111 359.04 380.9 358.829C380.695 358.612 380.593 358.343 380.593 358.021ZM388.547 367.293L390.56 360.49H392.766L389.47 370H387.615L384.293 360.49H386.508L388.547 367.293ZM396.378 370H394.242V360.49H396.378V370ZM394.11 358.021C394.11 357.692 394.213 357.42 394.418 357.203C394.629 356.986 394.928 356.878 395.314 356.878C395.701 356.878 396 356.986 396.211 357.203C396.422 357.42 396.527 357.692 396.527 358.021C396.527 358.343 396.422 358.612 396.211 358.829C396 359.04 395.701 359.146 395.314 359.146C394.928 359.146 394.629 359.04 394.418 358.829C394.213 358.612 394.11 358.343 394.11 358.021ZM401.388 358.179V360.49H403.066V362.072H401.388V367.381C401.388 367.744 401.458 368.008 401.599 368.172C401.745 368.33 402.003 368.409 402.372 368.409C402.618 368.409 402.867 368.38 403.119 368.321V369.974C402.633 370.108 402.164 370.176 401.713 370.176C400.072 370.176 399.252 369.271 399.252 367.46V362.072H397.688V360.49H399.252V358.179H401.388ZM408.894 370.176C407.54 370.176 406.441 369.751 405.598 368.901C404.76 368.046 404.341 366.909 404.341 365.491V365.228C404.341 364.278 404.522 363.432 404.886 362.688C405.255 361.938 405.771 361.354 406.433 360.938C407.095 360.522 407.833 360.314 408.647 360.314C409.942 360.314 410.941 360.728 411.645 361.554C412.354 362.38 412.708 363.549 412.708 365.061V365.922H406.494C406.559 366.707 406.819 367.328 407.276 367.785C407.739 368.242 408.319 368.471 409.017 368.471C409.995 368.471 410.792 368.075 411.407 367.284L412.559 368.383C412.178 368.951 411.668 369.394 411.029 369.71C410.396 370.021 409.685 370.176 408.894 370.176ZM408.639 362.028C408.053 362.028 407.578 362.233 407.215 362.644C406.857 363.054 406.629 363.625 406.529 364.357H410.599V364.199C410.552 363.484 410.361 362.945 410.027 362.582C409.693 362.213 409.23 362.028 408.639 362.028ZM416.646 370H414.51V360.49H416.646V370ZM414.378 358.021C414.378 357.692 414.48 357.42 414.686 357.203C414.896 356.986 415.195 356.878 415.582 356.878C415.969 356.878 416.268 356.986 416.479 357.203C416.689 357.42 416.795 357.692 416.795 358.021C416.795 358.343 416.689 358.612 416.479 358.829C416.268 359.04 415.969 359.146 415.582 359.146C415.195 359.146 414.896 359.04 414.686 358.829C414.48 358.612 414.378 358.343 414.378 358.021ZM421.655 358.179V360.49H423.334V362.072H421.655V367.381C421.655 367.744 421.726 368.008 421.866 368.172C422.013 368.33 422.271 368.409 422.64 368.409C422.886 368.409 423.135 368.38 423.387 368.321V369.974C422.9 370.108 422.432 370.176 421.98 370.176C420.34 370.176 419.52 369.271 419.52 367.46V362.072H417.955V360.49H419.52V358.179H421.655Z" fill="#FFF2F1"/>
<path d="M682.301 79V66.2031H686.687C688.134 66.2031 689.235 66.4932 689.991 67.0732C690.747 67.6533 691.125 68.5176 691.125 69.666C691.125 70.252 690.967 70.7793 690.65 71.248C690.334 71.7168 689.871 72.0801 689.262 72.3379C689.953 72.5254 690.486 72.8799 690.861 73.4014C691.242 73.917 691.433 74.5381 691.433 75.2646C691.433 76.4658 691.046 77.3887 690.272 78.0332C689.505 78.6777 688.403 79 686.968 79H682.301ZM684.524 73.2256V77.2246H686.994C687.691 77.2246 688.236 77.0518 688.629 76.7061C689.021 76.3604 689.218 75.8799 689.218 75.2646C689.218 73.9346 688.538 73.2549 687.179 73.2256H684.524ZM684.524 71.5908H686.704C687.396 71.5908 687.935 71.4355 688.321 71.125C688.714 70.8086 688.91 70.3633 688.91 69.7891C688.91 69.1562 688.729 68.6992 688.365 68.418C688.008 68.1367 687.448 67.9961 686.687 67.9961H684.524V71.5908ZM699.132 79C699.038 78.8184 698.956 78.5225 698.886 78.1123C698.206 78.8213 697.374 79.1758 696.39 79.1758C695.435 79.1758 694.655 78.9033 694.052 78.3584C693.448 77.8135 693.146 77.1396 693.146 76.3369C693.146 75.3232 693.521 74.5469 694.271 74.0078C695.027 73.4629 696.105 73.1904 697.506 73.1904H698.815V72.5664C698.815 72.0742 698.678 71.6816 698.402 71.3887C698.127 71.0898 697.708 70.9404 697.146 70.9404C696.659 70.9404 696.261 71.0635 695.95 71.3096C695.64 71.5498 695.484 71.8574 695.484 72.2324H693.349C693.349 71.7109 693.521 71.2246 693.867 70.7734C694.213 70.3164 694.682 69.959 695.273 69.7012C695.871 69.4434 696.536 69.3145 697.269 69.3145C698.382 69.3145 699.27 69.5957 699.932 70.1582C700.594 70.7148 700.934 71.5 700.951 72.5137V76.8027C700.951 77.6582 701.071 78.3408 701.312 78.8506V79H699.132ZM696.785 77.4619C697.207 77.4619 697.603 77.3594 697.972 77.1543C698.347 76.9492 698.628 76.6738 698.815 76.3281V74.5352H697.664C696.873 74.5352 696.278 74.6729 695.88 74.9482C695.481 75.2236 695.282 75.6133 695.282 76.1172C695.282 76.5273 695.417 76.8555 695.687 77.1016C695.962 77.3418 696.328 77.4619 696.785 77.4619ZM708.167 71.4414C707.886 71.3945 707.596 71.3711 707.297 71.3711C706.318 71.3711 705.659 71.7461 705.319 72.4961V79H703.184V69.4902H705.223L705.275 70.5537C705.791 69.7275 706.506 69.3145 707.42 69.3145C707.725 69.3145 707.977 69.3555 708.176 69.4375L708.167 71.4414ZM714.495 71.4414C714.214 71.3945 713.924 71.3711 713.625 71.3711C712.646 71.3711 711.987 71.7461 711.647 72.4961V79H709.512V69.4902H711.551L711.604 70.5537C712.119 69.7275 712.834 69.3145 713.748 69.3145C714.053 69.3145 714.305 69.3555 714.504 69.4375L714.495 71.4414ZM718.116 79H715.98V69.4902H718.116V79ZM715.849 67.0205C715.849 66.6924 715.951 66.4199 716.156 66.2031C716.367 65.9863 716.666 65.8779 717.053 65.8779C717.439 65.8779 717.738 65.9863 717.949 66.2031C718.16 66.4199 718.266 66.6924 718.266 67.0205C718.266 67.3428 718.16 67.6123 717.949 67.8291C717.738 68.04 717.439 68.1455 717.053 68.1455C716.666 68.1455 716.367 68.04 716.156 67.8291C715.951 67.6123 715.849 67.3428 715.849 67.0205ZM724.638 79.1758C723.284 79.1758 722.186 78.751 721.342 77.9014C720.504 77.0459 720.085 75.9092 720.085 74.4912V74.2275C720.085 73.2783 720.267 72.4316 720.63 71.6875C720.999 70.9375 721.515 70.3545 722.177 69.9385C722.839 69.5225 723.577 69.3145 724.392 69.3145C725.687 69.3145 726.686 69.7275 727.389 70.5537C728.098 71.3799 728.452 72.5488 728.452 74.0605V74.9219H722.238C722.303 75.707 722.563 76.3281 723.021 76.7852C723.483 77.2422 724.063 77.4707 724.761 77.4707C725.739 77.4707 726.536 77.0752 727.151 76.2842L728.303 77.3828C727.922 77.9512 727.412 78.3936 726.773 78.71C726.141 79.0205 725.429 79.1758 724.638 79.1758ZM724.383 71.0283C723.797 71.0283 723.322 71.2334 722.959 71.6436C722.602 72.0537 722.373 72.625 722.273 73.3574H726.343V73.1992C726.296 72.4844 726.105 71.9453 725.771 71.582C725.438 71.2129 724.975 71.0283 724.383 71.0283ZM725.35 68.1631H723.574L721.201 65.5H723.636L725.35 68.1631ZM735.097 71.4414C734.815 71.3945 734.525 71.3711 734.227 71.3711C733.248 71.3711 732.589 71.7461 732.249 72.4961V79H730.113V69.4902H732.152L732.205 70.5537C732.721 69.7275 733.436 69.3145 734.35 69.3145C734.654 69.3145 734.906 69.3555 735.105 69.4375L735.097 71.4414ZM740.458 79.1758C739.104 79.1758 738.006 78.751 737.162 77.9014C736.324 77.0459 735.905 75.9092 735.905 74.4912V74.2275C735.905 73.2783 736.087 72.4316 736.45 71.6875C736.819 70.9375 737.335 70.3545 737.997 69.9385C738.659 69.5225 739.397 69.3145 740.212 69.3145C741.507 69.3145 742.506 69.7275 743.209 70.5537C743.918 71.3799 744.272 72.5488 744.272 74.0605V74.9219H738.059C738.123 75.707 738.384 76.3281 738.841 76.7852C739.304 77.2422 739.884 77.4707 740.581 77.4707C741.56 77.4707 742.356 77.0752 742.972 76.2842L744.123 77.3828C743.742 77.9512 743.232 78.3936 742.594 78.71C741.961 79.0205 741.249 79.1758 740.458 79.1758ZM740.203 71.0283C739.617 71.0283 739.143 71.2334 738.779 71.6436C738.422 72.0537 738.193 72.625 738.094 73.3574H742.163V73.1992C742.116 72.4844 741.926 71.9453 741.592 71.582C741.258 71.2129 740.795 71.0283 740.203 71.0283ZM751.269 76.416C751.269 76.0352 751.11 75.7451 750.794 75.5459C750.483 75.3467 749.965 75.1709 749.238 75.0186C748.512 74.8662 747.905 74.6729 747.419 74.4385C746.353 73.9229 745.819 73.1758 745.819 72.1973C745.819 71.377 746.165 70.6914 746.856 70.1406C747.548 69.5898 748.427 69.3145 749.493 69.3145C750.63 69.3145 751.547 69.5957 752.244 70.1582C752.947 70.7207 753.299 71.4502 753.299 72.3467H751.163C751.163 71.9365 751.011 71.5967 750.706 71.3271C750.401 71.0518 749.997 70.9141 749.493 70.9141C749.024 70.9141 748.641 71.0225 748.342 71.2393C748.049 71.4561 747.902 71.7461 747.902 72.1094C747.902 72.4375 748.04 72.6924 748.315 72.874C748.591 73.0557 749.147 73.2402 749.985 73.4277C750.823 73.6094 751.479 73.8291 751.954 74.0869C752.435 74.3389 752.789 74.6436 753.018 75.001C753.252 75.3584 753.369 75.792 753.369 76.3018C753.369 77.1572 753.015 77.8516 752.306 78.3848C751.597 78.9121 750.668 79.1758 749.52 79.1758C748.74 79.1758 748.046 79.0352 747.437 78.7539C746.827 78.4727 746.353 78.0859 746.013 77.5938C745.673 77.1016 745.503 76.5713 745.503 76.0029H747.577C747.606 76.5068 747.797 76.8965 748.148 77.1719C748.5 77.4414 748.966 77.5762 749.546 77.5762C750.108 77.5762 750.536 77.4707 750.829 77.2598C751.122 77.043 751.269 76.7617 751.269 76.416Z" fill="#FFF2F1"/>
<path d="M907.109 218.339C906.646 218.942 906.005 219.399 905.185 219.71C904.364 220.021 903.433 220.176 902.39 220.176C901.317 220.176 900.368 219.933 899.542 219.446C898.716 218.96 898.077 218.266 897.626 217.363C897.181 216.455 896.949 215.397 896.932 214.19V213.188C896.932 211.255 897.395 209.746 898.32 208.662C899.246 207.572 900.538 207.027 902.196 207.027C903.62 207.027 904.751 207.379 905.589 208.082C906.427 208.785 906.931 209.799 907.101 211.123H904.921C904.675 209.582 903.781 208.812 902.24 208.812C901.244 208.812 900.485 209.172 899.964 209.893C899.448 210.607 899.182 211.659 899.164 213.048V214.032C899.164 215.415 899.454 216.49 900.034 217.258C900.62 218.02 901.432 218.4 902.469 218.4C903.605 218.4 904.414 218.143 904.895 217.627V215.122H902.258V213.435H907.109V218.339ZM913.534 220.176C912.181 220.176 911.082 219.751 910.238 218.901C909.4 218.046 908.981 216.909 908.981 215.491V215.228C908.981 214.278 909.163 213.432 909.526 212.688C909.896 211.938 910.411 211.354 911.073 210.938C911.735 210.522 912.474 210.314 913.288 210.314C914.583 210.314 915.582 210.728 916.285 211.554C916.994 212.38 917.349 213.549 917.349 215.061V215.922H911.135C911.199 216.707 911.46 217.328 911.917 217.785C912.38 218.242 912.96 218.471 913.657 218.471C914.636 218.471 915.433 218.075 916.048 217.284L917.199 218.383C916.818 218.951 916.309 219.394 915.67 219.71C915.037 220.021 914.325 220.176 913.534 220.176ZM913.279 212.028C912.693 212.028 912.219 212.233 911.855 212.644C911.498 213.054 911.27 213.625 911.17 214.357H915.239V214.199C915.192 213.484 915.002 212.945 914.668 212.582C914.334 212.213 913.871 212.028 913.279 212.028ZM918.614 215.175C918.614 213.71 918.954 212.535 919.634 211.65C920.313 210.76 921.225 210.314 922.367 210.314C923.375 210.314 924.189 210.666 924.811 211.369V206.5H926.946V220H925.013L924.907 219.016C924.269 219.789 923.416 220.176 922.35 220.176C921.236 220.176 920.334 219.728 919.643 218.831C918.957 217.935 918.614 216.716 918.614 215.175ZM920.75 215.359C920.75 216.326 920.935 217.082 921.304 217.627C921.679 218.166 922.209 218.436 922.895 218.436C923.768 218.436 924.406 218.046 924.811 217.267V213.206C924.418 212.444 923.785 212.063 922.912 212.063C922.221 212.063 921.688 212.339 921.312 212.89C920.938 213.435 920.75 214.258 920.75 215.359ZM934.153 212.441C933.872 212.395 933.582 212.371 933.283 212.371C932.305 212.371 931.646 212.746 931.306 213.496V220H929.17V210.49H931.209L931.262 211.554C931.777 210.728 932.492 210.314 933.406 210.314C933.711 210.314 933.963 210.355 934.162 210.438L934.153 212.441ZM940.921 220C940.827 219.818 940.745 219.522 940.675 219.112C939.995 219.821 939.163 220.176 938.179 220.176C937.224 220.176 936.444 219.903 935.841 219.358C935.237 218.813 934.936 218.14 934.936 217.337C934.936 216.323 935.311 215.547 936.061 215.008C936.816 214.463 937.895 214.19 939.295 214.19H940.604V213.566C940.604 213.074 940.467 212.682 940.191 212.389C939.916 212.09 939.497 211.94 938.935 211.94C938.448 211.94 938.05 212.063 937.739 212.31C937.429 212.55 937.273 212.857 937.273 213.232H935.138C935.138 212.711 935.311 212.225 935.656 211.773C936.002 211.316 936.471 210.959 937.062 210.701C937.66 210.443 938.325 210.314 939.058 210.314C940.171 210.314 941.059 210.596 941.721 211.158C942.383 211.715 942.723 212.5 942.74 213.514V217.803C942.74 218.658 942.86 219.341 943.101 219.851V220H940.921ZM938.574 218.462C938.996 218.462 939.392 218.359 939.761 218.154C940.136 217.949 940.417 217.674 940.604 217.328V215.535H939.453C938.662 215.535 938.067 215.673 937.669 215.948C937.271 216.224 937.071 216.613 937.071 217.117C937.071 217.527 937.206 217.855 937.476 218.102C937.751 218.342 938.117 218.462 938.574 218.462ZM944.604 215.175C944.604 213.698 944.949 212.521 945.641 211.642C946.338 210.757 947.261 210.314 948.409 210.314C949.493 210.314 950.346 210.692 950.967 211.448L951.063 210.49H952.988V219.71C952.988 220.958 952.599 221.942 951.819 222.663C951.046 223.384 950 223.744 948.682 223.744C947.984 223.744 947.302 223.598 946.634 223.305C945.972 223.018 945.468 222.64 945.122 222.171L946.133 220.888C946.789 221.667 947.598 222.057 948.559 222.057C949.268 222.057 949.827 221.863 950.237 221.477C950.647 221.096 950.853 220.533 950.853 219.789V219.147C950.237 219.833 949.417 220.176 948.392 220.176C947.278 220.176 946.367 219.733 945.658 218.849C944.955 217.964 944.604 216.739 944.604 215.175ZM946.73 215.359C946.73 216.314 946.924 217.067 947.311 217.618C947.703 218.163 948.245 218.436 948.937 218.436C949.798 218.436 950.437 218.066 950.853 217.328V213.145C950.448 212.424 949.815 212.063 948.954 212.063C948.251 212.063 947.703 212.342 947.311 212.898C946.924 213.455 946.73 214.275 946.73 215.359Z" fill="#FFF2F1"/>
<path d="M744.81 339.214L748.062 329.203H750.505L745.899 342H743.746L739.158 329.203H741.593L744.81 339.214ZM757.026 342C756.933 341.818 756.851 341.522 756.78 341.112C756.101 341.821 755.269 342.176 754.284 342.176C753.329 342.176 752.55 341.903 751.946 341.358C751.343 340.813 751.041 340.14 751.041 339.337C751.041 338.323 751.416 337.547 752.166 337.008C752.922 336.463 754 336.19 755.4 336.19H756.71V335.566C756.71 335.074 756.572 334.682 756.297 334.389C756.021 334.09 755.603 333.94 755.04 333.94C754.554 333.94 754.155 334.063 753.845 334.31C753.534 334.55 753.379 334.857 753.379 335.232H751.243C751.243 334.711 751.416 334.225 751.762 333.773C752.107 333.316 752.576 332.959 753.168 332.701C753.766 332.443 754.431 332.314 755.163 332.314C756.276 332.314 757.164 332.596 757.826 333.158C758.488 333.715 758.828 334.5 758.846 335.514V339.803C758.846 340.658 758.966 341.341 759.206 341.851V342H757.026ZM754.68 340.462C755.102 340.462 755.497 340.359 755.866 340.154C756.241 339.949 756.522 339.674 756.71 339.328V337.535H755.559C754.768 337.535 754.173 337.673 753.774 337.948C753.376 338.224 753.177 338.613 753.177 339.117C753.177 339.527 753.312 339.855 753.581 340.102C753.856 340.342 754.223 340.462 754.68 340.462ZM766.765 342C766.671 341.818 766.589 341.522 766.519 341.112C765.839 341.821 765.007 342.176 764.022 342.176C763.067 342.176 762.288 341.903 761.685 341.358C761.081 340.813 760.779 340.14 760.779 339.337C760.779 338.323 761.154 337.547 761.904 337.008C762.66 336.463 763.738 336.19 765.139 336.19H766.448V335.566C766.448 335.074 766.311 334.682 766.035 334.389C765.76 334.09 765.341 333.94 764.778 333.94C764.292 333.94 763.894 334.063 763.583 334.31C763.272 334.55 763.117 334.857 763.117 335.232H760.981C760.981 334.711 761.154 334.225 761.5 333.773C761.846 333.316 762.314 332.959 762.906 332.701C763.504 332.443 764.169 332.314 764.901 332.314C766.015 332.314 766.902 332.596 767.564 333.158C768.227 333.715 768.566 334.5 768.584 335.514V339.803C768.584 340.658 768.704 341.341 768.944 341.851V342H766.765ZM764.418 340.462C764.84 340.462 765.235 340.359 765.604 340.154C765.979 339.949 766.261 339.674 766.448 339.328V337.535H765.297C764.506 337.535 763.911 337.673 763.513 337.948C763.114 338.224 762.915 338.613 762.915 339.117C762.915 339.527 763.05 339.855 763.319 340.102C763.595 340.342 763.961 340.462 764.418 340.462ZM775.8 334.441C775.519 334.395 775.229 334.371 774.93 334.371C773.951 334.371 773.292 334.746 772.952 335.496V342H770.816V332.49H772.855L772.908 333.554C773.424 332.728 774.139 332.314 775.053 332.314C775.357 332.314 775.609 332.355 775.809 332.438L775.8 334.441ZM776.573 337.175C776.573 335.71 776.913 334.535 777.593 333.65C778.272 332.76 779.184 332.314 780.326 332.314C781.334 332.314 782.148 332.666 782.77 333.369V328.5H784.905V342H782.972L782.866 341.016C782.228 341.789 781.375 342.176 780.309 342.176C779.195 342.176 778.293 341.728 777.602 340.831C776.916 339.935 776.573 338.716 776.573 337.175ZM778.709 337.359C778.709 338.326 778.894 339.082 779.263 339.627C779.638 340.166 780.168 340.436 780.854 340.436C781.727 340.436 782.365 340.046 782.77 339.267V335.206C782.377 334.444 781.744 334.063 780.871 334.063C780.18 334.063 779.646 334.339 779.271 334.89C778.896 335.435 778.709 336.258 778.709 337.359ZM789.405 342H787.27V332.49H789.405V342ZM787.138 330.021C787.138 329.692 787.24 329.42 787.445 329.203C787.656 328.986 787.955 328.878 788.342 328.878C788.729 328.878 789.027 328.986 789.238 329.203C789.449 329.42 789.555 329.692 789.555 330.021C789.555 330.343 789.449 330.612 789.238 330.829C789.027 331.04 788.729 331.146 788.342 331.146C787.955 331.146 787.656 331.04 787.445 330.829C787.24 330.612 787.138 330.343 787.138 330.021ZM791.365 337.175C791.365 335.698 791.711 334.521 792.402 333.642C793.1 332.757 794.022 332.314 795.171 332.314C796.255 332.314 797.107 332.692 797.729 333.448L797.825 332.49H799.75V341.71C799.75 342.958 799.36 343.942 798.581 344.663C797.808 345.384 796.762 345.744 795.443 345.744C794.746 345.744 794.063 345.598 793.396 345.305C792.733 345.018 792.229 344.64 791.884 344.171L792.895 342.888C793.551 343.667 794.359 344.057 795.32 344.057C796.029 344.057 796.589 343.863 796.999 343.477C797.409 343.096 797.614 342.533 797.614 341.789V341.147C796.999 341.833 796.179 342.176 795.153 342.176C794.04 342.176 793.129 341.733 792.42 340.849C791.717 339.964 791.365 338.739 791.365 337.175ZM793.492 337.359C793.492 338.314 793.686 339.067 794.072 339.618C794.465 340.163 795.007 340.436 795.698 340.436C796.56 340.436 797.198 340.066 797.614 339.328V335.145C797.21 334.424 796.577 334.063 795.716 334.063C795.013 334.063 794.465 334.342 794.072 334.898C793.686 335.455 793.492 336.275 793.492 337.359ZM804.057 333.527C804.754 332.719 805.636 332.314 806.702 332.314C808.729 332.314 809.758 333.472 809.787 335.786V342H807.651V335.865C807.651 335.209 807.508 334.746 807.221 334.477C806.939 334.201 806.523 334.063 805.973 334.063C805.117 334.063 804.479 334.444 804.057 335.206V342H801.921V328.5H804.057V333.527ZM816.142 342.176C814.788 342.176 813.689 341.751 812.846 340.901C812.008 340.046 811.589 338.909 811.589 337.491V337.228C811.589 336.278 811.771 335.432 812.134 334.688C812.503 333.938 813.019 333.354 813.681 332.938C814.343 332.522 815.081 332.314 815.896 332.314C817.19 332.314 818.189 332.728 818.893 333.554C819.602 334.38 819.956 335.549 819.956 337.061V337.922H813.742C813.807 338.707 814.067 339.328 814.524 339.785C814.987 340.242 815.567 340.471 816.265 340.471C817.243 340.471 818.04 340.075 818.655 339.284L819.807 340.383C819.426 340.951 818.916 341.394 818.277 341.71C817.645 342.021 816.933 342.176 816.142 342.176ZM815.887 334.028C815.301 334.028 814.826 334.233 814.463 334.644C814.105 335.054 813.877 335.625 813.777 336.357H817.847V336.199C817.8 335.484 817.609 334.945 817.275 334.582C816.941 334.213 816.479 334.028 815.887 334.028ZM821.222 337.175C821.222 335.71 821.562 334.535 822.241 333.65C822.921 332.76 823.832 332.314 824.975 332.314C825.982 332.314 826.797 332.666 827.418 333.369V328.5H829.554V342H827.62L827.515 341.016C826.876 341.789 826.023 342.176 824.957 342.176C823.844 342.176 822.941 341.728 822.25 340.831C821.564 339.935 821.222 338.716 821.222 337.175ZM823.357 337.359C823.357 338.326 823.542 339.082 823.911 339.627C824.286 340.166 824.816 340.436 825.502 340.436C826.375 340.436 827.014 340.046 827.418 339.267V335.206C827.025 334.444 826.393 334.063 825.52 334.063C824.828 334.063 824.295 334.339 823.92 334.89C823.545 335.435 823.357 336.258 823.357 337.359ZM835.97 342.176C834.616 342.176 833.518 341.751 832.674 340.901C831.836 340.046 831.417 338.909 831.417 337.491V337.228C831.417 336.278 831.599 335.432 831.962 334.688C832.331 333.938 832.847 333.354 833.509 332.938C834.171 332.522 834.909 332.314 835.724 332.314C837.019 332.314 838.018 332.728 838.721 333.554C839.43 334.38 839.784 335.549 839.784 337.061V337.922H833.57C833.635 338.707 833.896 339.328 834.353 339.785C834.815 340.242 835.396 340.471 836.093 340.471C837.071 340.471 837.868 340.075 838.483 339.284L839.635 340.383C839.254 340.951 838.744 341.394 838.105 341.71C837.473 342.021 836.761 342.176 835.97 342.176ZM835.715 334.028C835.129 334.028 834.654 334.233 834.291 334.644C833.934 335.054 833.705 335.625 833.605 336.357H837.675V336.199C837.628 335.484 837.438 334.945 837.104 334.582C836.77 334.213 836.307 334.028 835.715 334.028ZM843.432 332.49L843.493 333.589C844.196 332.739 845.119 332.314 846.262 332.314C848.242 332.314 849.25 333.448 849.285 335.716V342H847.149V335.839C847.149 335.235 847.018 334.79 846.754 334.503C846.496 334.21 846.071 334.063 845.479 334.063C844.618 334.063 843.977 334.453 843.555 335.232V342H841.419V332.49H843.432Z" fill="#FFF2F1"/>
<path d="M245.767 215.003C246.157 214.613 246.157 213.98 245.767 213.589L239.403 207.225C239.012 206.835 238.379 206.835 237.989 207.225C237.598 207.616 237.598 208.249 237.989 208.639L243.645 214.296L237.989 219.953C237.598 220.344 237.598 220.977 237.989 221.367C238.379 221.758 239.012 221.758 239.403 221.367L245.767 215.003ZM140.909 215.296H245.06V213.296H140.909V215.296Z" fill="#FFF2F1"/>
<path d="M508.707 214.707C509.098 214.317 509.098 213.683 508.707 213.293L502.343 206.929C501.953 206.538 501.319 206.538 500.929 206.929C500.538 207.319 500.538 207.953 500.929 208.343L506.586 214L500.929 219.657C500.538 220.047 500.538 220.681 500.929 221.071C501.319 221.462 501.953 221.462 502.343 221.071L508.707 214.707ZM389 215L508 215V213L389 213V215Z" fill="#FFF2F1"/>
<path d="M871.936 215.003C872.326 214.613 872.326 213.98 871.936 213.589L865.572 207.225C865.181 206.835 864.548 206.835 864.157 207.225C863.767 207.616 863.767 208.249 864.157 208.639L869.814 214.296L864.157 219.953C863.767 220.344 863.767 220.977 864.157 221.367C864.548 221.758 865.181 221.758 865.572 221.367L871.936 215.003ZM618 215.296H871.228V213.296H618V215.296Z" fill="#FFF2F1"/>
<path d="M716.093 186.109C716.483 186.5 717.116 186.5 717.507 186.109L723.871 179.745C724.261 179.355 724.261 178.722 723.871 178.331C723.48 177.941 722.847 177.941 722.457 178.331L716.8 183.988L711.143 178.331C710.752 177.941 710.119 177.941 709.729 178.331C709.338 178.722 709.338 179.355 709.729 179.745L716.093 186.109ZM715.8 91.4972V185.402H717.8V91.4972H715.8Z" fill="#FFF2F1"/>
<path d="M717.707 241.293C717.317 240.902 716.683 240.902 716.293 241.293L709.929 247.657C709.538 248.047 709.538 248.681 709.929 249.071C710.319 249.462 710.953 249.462 711.343 249.071L717 243.414L722.657 249.071C723.047 249.462 723.681 249.462 724.071 249.071C724.462 248.681 724.462 248.047 724.071 247.657L717.707 241.293ZM431 343H709V341H431V343ZM718 334V242H716V334H718ZM709 343C713.971 343 718 338.971 718 334H716C716 337.866 712.866 341 709 341V343Z" fill="#FFF2F1"/>
<path d="M563.707 240.293C563.317 239.902 562.683 239.902 562.293 240.293L555.929 246.657C555.538 247.047 555.538 247.681 555.929 248.071C556.319 248.462 556.953 248.462 557.343 248.071L563 242.414L568.657 248.071C569.047 248.462 569.681 248.462 570.071 248.071C570.462 247.681 570.462 247.047 570.071 246.657L563.707 240.293ZM564 342V241H562V342H564Z" fill="#FFF2F1"/>
<path d="M248.707 84.2929C249.098 84.6834 249.098 85.3166 248.707 85.7071L242.343 92.0711C241.953 92.4616 241.319 92.4616 240.929 92.0711C240.538 91.6805 240.538 91.0474 240.929 90.6569L246.586 85L240.929 79.3431C240.538 78.9526 240.538 78.3195 240.929 77.9289C241.319 77.5384 241.953 77.5384 242.343 77.9289L248.707 84.2929ZM158 214L158 93L160 93L160 214L158 214ZM167 84L248 84L248 86L167 86L167 84ZM158 93C158 88.0294 162.029 84 167 84L167 86C163.134 86 160 89.134 160 93L158 93Z" fill="#FFF2F1"/>
<path d="M555 85.4777L555 84.4777L555 84.4777L555 85.4777ZM563 93.4776L562 93.4776V93.4776L563 93.4776ZM563.707 196.945C563.317 197.335 562.683 197.335 562.293 196.945L555.929 190.581C555.538 190.19 555.538 189.557 555.929 189.166C556.319 188.776 556.953 188.776 557.343 189.166L563 194.823L568.657 189.166C569.047 188.776 569.681 188.776 570.071 189.166C570.462 189.557 570.462 190.19 570.071 190.581L563.707 196.945ZM365.568 84.4776L555 84.4777L555 86.4777L365.568 86.4776L365.568 84.4776ZM564 93.4776L564 196.237L562 196.237L562 93.4776L564 93.4776ZM555 84.4777C559.97 84.4777 564 88.5071 564 93.4776L562 93.4776C562 89.6117 558.866 86.4777 555 86.4777L555 84.4777Z" fill="#FFF2F1"/>
<path d="M248.83 342.618C249.221 342.227 249.221 341.594 248.83 341.204L242.466 334.84C242.076 334.449 241.442 334.449 241.052 334.84C240.661 335.23 240.661 335.863 241.052 336.254L246.709 341.911L241.052 347.568C240.661 347.958 240.661 348.591 241.052 348.982C241.442 349.372 242.076 349.372 242.466 348.982L248.83 342.618ZM158.289 214.296L158.289 333.911L160.289 333.911L160.289 214.296L158.289 214.296ZM167.289 342.911L248.123 342.911L248.123 340.911L167.289 340.911L167.289 342.911ZM158.289 333.911C158.289 338.881 162.318 342.911 167.289 342.911L167.289 340.911C163.423 340.911 160.289 337.777 160.289 333.911L158.289 333.911Z" fill="#FFF2F1"/>
<defs>
<linearGradient id="paint0_linear" x1="91" y1="-109.5" x2="968" y2="505.5" gradientUnits="userSpaceOnUse">
<stop offset="0.0744015" stop-color="#1E96FC"/>
<stop offset="1" stop-color="#59B3FF"/>
</linearGradient>
</defs>
</svg>
