<svg width="329" height="543" viewBox="0 0 329 543" fill="none" xmlns="http://www.w3.org/2000/svg">
<rect width="329" height="543" fill="#FFF2F1"/>
<path d="M107.374 52.67C101.429 49.73 95.0591 48.26 88.2645 48.26C84.6058 48.26 81.7965 49.044 79.8365 50.612C77.8765 52.18 76.8965 54.2707 76.8965 56.884C76.8965 61.5227 80.2611 64.7893 86.9905 66.684C96.1371 69.232 102.572 72.3353 106.296 75.994C110.086 79.6527 111.98 84.3893 111.98 90.204C111.98 96.9333 109.759 102.095 105.316 105.688C100.874 109.216 94.4385 110.98 86.0105 110.98C77.4518 110.98 69.7751 108.857 62.9805 104.61L66.4105 93.634C72.6825 97.8807 79.3138 100.004 86.3045 100.004C90.1591 100.004 93.0665 99.1873 95.0265 97.554C97.0518 95.8553 98.0645 93.4707 98.0645 90.4C98.0645 87.5907 97.2478 85.3693 95.6145 83.736C94.0465 82.1027 91.1718 80.6653 86.9905 79.424C78.6278 77.0067 72.5518 73.9687 68.7625 70.31C65.0385 66.6513 63.1765 62.176 63.1765 56.884C63.1765 51.004 65.3325 46.3 69.6445 42.772C74.0218 39.244 80.1305 37.48 87.9705 37.48C96.0718 37.48 103.487 39.0153 110.216 42.086L107.374 52.67Z" fill="#FF5252"/>
<path d="M109.357 158.686H109.161L93.4814 189.066H81.1334L65.4534 158.686H65.2574V207H52.2234V135.46H65.9434L87.2094 177.6H87.4054L108.671 135.46H122.783V207H109.357V158.686Z" fill="#F99135"/>
<path d="M55.3147 304L80.1087 232.46H94.8087L119.701 304H105.001L99.9047 286.752H74.7187L69.5247 304H55.3147ZM77.7567 276.266H96.7687L87.3607 244.514H87.1647L77.7567 276.266Z" fill="#EDDD52"/>
<path d="M76.849 373.07V401H63.325V329.95C69.989 328.97 77.1757 328.48 84.885 328.48C94.489 328.48 101.676 330.277 106.445 333.87C111.214 337.398 113.599 342.396 113.599 348.864C113.599 353.568 112.325 357.684 109.777 361.212C107.294 364.74 103.897 367.19 99.585 368.562V368.758C102.721 370.587 105.432 374.475 107.719 380.42L115.559 401H101.447L93.999 380.714C92.823 377.578 91.4837 375.52 89.981 374.54C88.4783 373.56 85.8977 373.07 82.239 373.07H76.849ZM76.849 362.682H82.631C94.2603 362.682 100.075 358.533 100.075 350.236C100.075 342.853 94.685 339.162 83.905 339.162C81.2263 339.162 78.8743 339.358 76.849 339.75V362.682Z" fill="#ADD45C"/>
<path d="M114.942 426.46V437.828H94.4595V498H80.5435V437.828H60.0615V426.46H114.942Z" fill="#56C785"/>
<path d="M161.457 39L161 109.499L250.998 110.082L277.231 74.2507L251.455 39.583L161.457 39Z" fill="#FF5252"/>
<path d="M161.457 140L161 210.499L250.998 211.082L277.231 175.251L251.455 140.583L161.457 140Z" fill="#F99135"/>
<path d="M161.457 235.625L161 306.124L250.998 306.707L277.231 270.876L251.455 236.208L161.457 235.625Z" fill="#EDDD52"/>
<path d="M161.457 331.25L161 401.749L250.998 402.332L277.231 366.501L251.455 331.833L161.457 331.25Z" fill="#ADD45C"/>
<path d="M161.457 426.875L161 497.374L250.998 497.957L277.231 462.126L251.455 427.458L161.457 426.875Z" fill="#56C785"/>
<circle cx="212" cy="64.625" r="8.5" stroke="white" stroke-width="3"/>
<circle cx="212" cy="64.625" r="2" fill="white"/>
<path d="M192.58 87.19C191.913 86.86 191.198 86.695 190.435 86.695C190.024 86.695 189.709 86.783 189.489 86.959C189.269 87.135 189.159 87.3697 189.159 87.663C189.159 88.1837 189.537 88.5503 190.292 88.763C191.319 89.049 192.041 89.3973 192.459 89.808C192.884 90.2187 193.097 90.7503 193.097 91.403C193.097 92.1583 192.848 92.7377 192.349 93.141C191.85 93.537 191.128 93.735 190.182 93.735C189.221 93.735 188.36 93.4967 187.597 93.02L187.982 91.788C188.686 92.2647 189.43 92.503 190.215 92.503C190.648 92.503 190.974 92.4113 191.194 92.228C191.421 92.0373 191.535 91.7697 191.535 91.425C191.535 91.1097 191.443 90.8603 191.26 90.677C191.084 90.4937 190.761 90.3323 190.292 90.193C189.353 89.9217 188.671 89.5807 188.246 89.17C187.828 88.7593 187.619 88.257 187.619 87.663C187.619 87.003 187.861 86.475 188.345 86.079C188.836 85.683 189.522 85.485 190.402 85.485C191.311 85.485 192.144 85.6573 192.899 86.002L192.58 87.19ZM198.395 90.765C198.395 90.149 198.278 89.687 198.043 89.379C197.816 89.071 197.493 88.917 197.075 88.917C196.686 88.917 196.371 89.0783 196.129 89.401C195.894 89.7163 195.777 90.1527 195.777 90.71V90.82C195.777 91.392 195.894 91.8357 196.129 92.151C196.371 92.459 196.686 92.613 197.075 92.613C197.464 92.613 197.779 92.4553 198.021 92.14C198.27 91.8173 198.395 91.359 198.395 90.765ZM199.77 90.765C199.77 91.711 199.557 92.4443 199.132 92.965C198.714 93.4783 198.164 93.735 197.482 93.735C196.778 93.735 196.217 93.4673 195.799 92.932H195.777V96.045H194.347V87.905H195.689L195.711 88.708H195.733C196.173 88.0993 196.756 87.795 197.482 87.795C198.193 87.795 198.751 88.048 199.154 88.554C199.565 89.06 199.77 89.797 199.77 90.765ZM202.106 90.303H204.79C204.782 89.8263 204.661 89.4633 204.427 89.214C204.199 88.9573 203.877 88.829 203.459 88.829C203.055 88.829 202.733 88.9573 202.491 89.214C202.256 89.4707 202.128 89.8337 202.106 90.303ZM202.106 91.282C202.142 91.7147 202.307 92.0593 202.601 92.316C202.901 92.5653 203.279 92.69 203.734 92.69C204.276 92.69 204.815 92.5543 205.351 92.283L205.681 93.295C205.021 93.5883 204.324 93.735 203.591 93.735C202.725 93.735 202.021 93.4673 201.479 92.932C200.943 92.3967 200.676 91.6743 200.676 90.765C200.676 89.841 200.925 89.115 201.424 88.587C201.922 88.059 202.597 87.795 203.448 87.795C204.298 87.795 204.958 88.048 205.428 88.554C205.904 89.06 206.143 89.786 206.143 90.732C206.143 90.9153 206.132 91.0987 206.11 91.282H202.106ZM211.644 92.261L211.974 93.328C211.372 93.5993 210.749 93.735 210.104 93.735C209.187 93.735 208.45 93.4673 207.893 92.932C207.335 92.3967 207.057 91.6743 207.057 90.765C207.057 89.8337 207.324 89.1077 207.86 88.587C208.402 88.059 209.15 87.795 210.104 87.795C210.749 87.795 211.372 87.9307 211.974 88.202L211.644 89.291C211.182 89.027 210.69 88.895 210.17 88.895C209.649 88.895 209.242 89.0563 208.949 89.379C208.663 89.7017 208.52 90.1637 208.52 90.765C208.52 91.3517 208.67 91.8137 208.971 92.151C209.279 92.4883 209.678 92.657 210.17 92.657C210.698 92.657 211.189 92.525 211.644 92.261ZM213.712 86.695V85.375H215.219V86.695H213.712ZM213.712 93.625V87.905H215.219V93.625H213.712ZM221.775 86.695V85.375H223.282V86.695H221.775ZM219.388 88.125H223.282V93.625H221.775V89.192H219.388V93.625H217.925V89.192H216.847V88.125H217.925V87.652C217.925 86.9407 218.104 86.4017 218.464 86.035C218.83 85.6683 219.362 85.485 220.059 85.485C220.484 85.485 220.891 85.54 221.28 85.65L221.049 86.75C220.799 86.64 220.535 86.585 220.257 86.585C219.934 86.585 219.707 86.6657 219.575 86.827C219.45 86.981 219.388 87.256 219.388 87.652V88.125ZM225.9 90.303H228.584C228.576 89.8263 228.455 89.4633 228.221 89.214C227.993 88.9573 227.671 88.829 227.253 88.829C226.849 88.829 226.527 88.9573 226.285 89.214C226.05 89.4707 225.922 89.8337 225.9 90.303ZM225.9 91.282C225.936 91.7147 226.101 92.0593 226.395 92.316C226.695 92.5653 227.073 92.69 227.528 92.69C228.07 92.69 228.609 92.5543 229.145 92.283L229.475 93.295C228.815 93.5883 228.118 93.735 227.385 93.735C226.519 93.735 225.815 93.4673 225.273 92.932C224.737 92.3967 224.47 91.6743 224.47 90.765C224.47 89.841 224.719 89.115 225.218 88.587C225.716 88.059 226.391 87.795 227.242 87.795C228.092 87.795 228.752 88.048 229.222 88.554C229.698 89.06 229.937 89.786 229.937 90.732C229.937 90.9153 229.926 91.0987 229.904 91.282H225.9ZM232.635 91.095H232.613V93.625H231.183V85.375H232.613V90.138H232.635L234.813 87.905H236.518L233.801 90.622L236.573 93.625H234.868L232.635 91.095Z" fill="white"/>
<path d="M193.405 189.202H193.383L191.623 192.612H190.237L188.477 189.202H188.455V194.625H186.992V186.595H188.532L190.919 191.325H190.941L193.328 186.595H194.912V194.625H193.405V189.202ZM197.584 191.303H200.268C200.26 190.826 200.139 190.463 199.905 190.214C199.677 189.957 199.355 189.829 198.937 189.829C198.533 189.829 198.211 189.957 197.969 190.214C197.734 190.471 197.606 190.834 197.584 191.303ZM197.584 192.282C197.62 192.715 197.785 193.059 198.079 193.316C198.379 193.565 198.757 193.69 199.212 193.69C199.754 193.69 200.293 193.554 200.829 193.283L201.159 194.295C200.499 194.588 199.802 194.735 199.069 194.735C198.203 194.735 197.499 194.467 196.957 193.932C196.421 193.397 196.154 192.674 196.154 191.765C196.154 190.841 196.403 190.115 196.902 189.587C197.4 189.059 198.075 188.795 198.926 188.795C199.776 188.795 200.436 189.048 200.906 189.554C201.382 190.06 201.621 190.786 201.621 191.732C201.621 191.915 201.61 192.099 201.588 192.282H197.584ZM203.965 191.303H206.649C206.641 190.826 206.52 190.463 206.286 190.214C206.058 189.957 205.736 189.829 205.318 189.829C204.914 189.829 204.592 189.957 204.35 190.214C204.115 190.471 203.987 190.834 203.965 191.303ZM203.965 192.282C204.001 192.715 204.166 193.059 204.46 193.316C204.76 193.565 205.138 193.69 205.593 193.69C206.135 193.69 206.674 193.554 207.21 193.283L207.54 194.295C206.88 194.588 206.183 194.735 205.45 194.735C204.584 194.735 203.88 194.467 203.338 193.932C202.802 193.397 202.535 192.674 202.535 191.765C202.535 190.841 202.784 190.115 203.283 189.587C203.781 189.059 204.456 188.795 205.307 188.795C206.157 188.795 206.817 189.048 207.287 189.554C207.763 190.06 208.002 190.786 208.002 191.732C208.002 191.915 207.991 192.099 207.969 192.282H203.965ZM211.462 189.125H213.431V190.192H211.462V192.535C211.462 192.968 211.517 193.261 211.627 193.415C211.737 193.562 211.935 193.635 212.221 193.635C212.573 193.635 212.903 193.573 213.211 193.448L213.398 194.515C212.943 194.662 212.452 194.735 211.924 194.735C211.249 194.735 210.758 194.585 210.45 194.284C210.149 193.983 209.999 193.485 209.999 192.788V190.192H208.811V189.125H209.999V187.035H211.462V189.125ZM215.006 186.375H216.436V189.642H216.458C216.891 189.077 217.452 188.795 218.141 188.795C218.852 188.795 219.41 189.048 219.813 189.554C220.224 190.06 220.429 190.797 220.429 191.765C220.429 192.711 220.216 193.444 219.791 193.965C219.373 194.478 218.823 194.735 218.141 194.735C217.408 194.735 216.825 194.431 216.392 193.822H216.37L216.348 194.625H215.006V186.375ZM219.054 191.765C219.054 191.149 218.937 190.687 218.702 190.379C218.475 190.071 218.152 189.917 217.734 189.917C217.345 189.917 217.03 190.078 216.788 190.401C216.553 190.716 216.436 191.153 216.436 191.71V191.82C216.436 192.392 216.553 192.836 216.788 193.151C217.03 193.459 217.345 193.613 217.734 193.613C218.123 193.613 218.438 193.455 218.68 193.14C218.929 192.817 219.054 192.359 219.054 191.765ZM223.932 188.795C224.804 188.795 225.431 188.967 225.813 189.312C226.194 189.649 226.385 190.199 226.385 190.962V193.085C226.385 193.606 226.44 194.119 226.55 194.625H225.197C225.153 194.383 225.12 194.101 225.098 193.778H225.076C224.87 194.079 224.592 194.313 224.24 194.482C223.895 194.651 223.517 194.735 223.107 194.735C222.571 194.735 222.142 194.588 221.82 194.295C221.504 193.994 221.347 193.58 221.347 193.052C221.347 192.414 221.614 191.904 222.15 191.523C222.692 191.134 223.47 190.94 224.482 190.94H224.955V190.907C224.955 190.518 224.878 190.247 224.724 190.093C224.57 189.939 224.295 189.862 223.899 189.862C223.18 189.862 222.502 190.027 221.864 190.357L221.655 189.29C222.351 188.96 223.11 188.795 223.932 188.795ZM222.689 192.942C222.689 193.177 222.758 193.36 222.898 193.492C223.037 193.624 223.228 193.69 223.47 193.69C223.888 193.69 224.24 193.554 224.526 193.283C224.812 193.012 224.955 192.671 224.955 192.26V191.886H224.482C223.902 191.886 223.459 191.985 223.151 192.183C222.843 192.374 222.689 192.627 222.689 192.942ZM230.27 188.795C231.142 188.795 231.769 188.967 232.151 189.312C232.532 189.649 232.723 190.199 232.723 190.962V193.085C232.723 193.606 232.778 194.119 232.888 194.625H231.535C231.491 194.383 231.458 194.101 231.436 193.778H231.414C231.208 194.079 230.93 194.313 230.578 194.482C230.233 194.651 229.855 194.735 229.445 194.735C228.909 194.735 228.48 194.588 228.158 194.295C227.842 193.994 227.685 193.58 227.685 193.052C227.685 192.414 227.952 191.904 228.488 191.523C229.03 191.134 229.808 190.94 230.82 190.94H231.293V190.907C231.293 190.518 231.216 190.247 231.062 190.093C230.908 189.939 230.633 189.862 230.237 189.862C229.518 189.862 228.84 190.027 228.202 190.357L227.993 189.29C228.689 188.96 229.448 188.795 230.27 188.795ZM229.027 192.942C229.027 193.177 229.096 193.36 229.236 193.492C229.375 193.624 229.566 193.69 229.808 193.69C230.226 193.69 230.578 193.554 230.864 193.283C231.15 193.012 231.293 192.671 231.293 192.26V191.886H230.82C230.24 191.886 229.797 191.985 229.489 192.183C229.181 192.374 229.027 192.627 229.027 192.942ZM234.298 188.905H235.662L235.684 190.005H235.706C236.358 189.198 237.235 188.795 238.335 188.795V189.961C237.521 189.961 236.886 190.159 236.432 190.555C235.984 190.944 235.761 191.468 235.761 192.128V194.625H234.298V188.905Z" fill="white"/>
<path d="M181.698 290.25L184.481 282.22H186.131L188.925 290.25H187.275L186.703 288.314H183.876L183.293 290.25H181.698ZM184.217 287.137H186.351L185.295 283.573H185.273L184.217 287.137ZM194.096 288.886L194.426 289.953C193.825 290.224 193.202 290.36 192.556 290.36C191.64 290.36 190.903 290.092 190.345 289.557C189.788 289.022 189.509 288.299 189.509 287.39C189.509 286.459 189.777 285.733 190.312 285.212C190.855 284.684 191.603 284.42 192.556 284.42C193.202 284.42 193.825 284.556 194.426 284.827L194.096 285.916C193.634 285.652 193.143 285.52 192.622 285.52C192.102 285.52 191.695 285.681 191.401 286.004C191.115 286.327 190.972 286.789 190.972 287.39C190.972 287.977 191.123 288.439 191.423 288.776C191.731 289.113 192.131 289.282 192.622 289.282C193.15 289.282 193.642 289.15 194.096 288.886ZM200.037 288.886L200.367 289.953C199.765 290.224 199.142 290.36 198.497 290.36C197.58 290.36 196.843 290.092 196.286 289.557C195.728 289.022 195.45 288.299 195.45 287.39C195.45 286.459 195.717 285.733 196.253 285.212C196.795 284.684 197.543 284.42 198.497 284.42C199.142 284.42 199.765 284.556 200.367 284.827L200.037 285.916C199.575 285.652 199.083 285.52 198.563 285.52C198.042 285.52 197.635 285.681 197.342 286.004C197.056 286.327 196.913 286.789 196.913 287.39C196.913 287.977 197.063 288.439 197.364 288.776C197.672 289.113 198.071 289.282 198.563 289.282C199.091 289.282 199.582 289.15 200.037 288.886ZM202.82 286.928H205.504C205.497 286.451 205.376 286.088 205.141 285.839C204.914 285.582 204.591 285.454 204.173 285.454C203.77 285.454 203.447 285.582 203.205 285.839C202.97 286.096 202.842 286.459 202.82 286.928ZM202.82 287.907C202.857 288.34 203.022 288.684 203.315 288.941C203.616 289.19 203.993 289.315 204.448 289.315C204.991 289.315 205.53 289.179 206.065 288.908L206.395 289.92C205.735 290.213 205.038 290.36 204.305 290.36C203.44 290.36 202.736 290.092 202.193 289.557C201.658 289.022 201.39 288.299 201.39 287.39C201.39 286.466 201.639 285.74 202.138 285.212C202.637 284.684 203.311 284.42 204.162 284.42C205.013 284.42 205.673 284.673 206.142 285.179C206.619 285.685 206.857 286.411 206.857 287.357C206.857 287.54 206.846 287.724 206.824 287.907H202.82ZM212.097 287.39C212.097 286.774 211.979 286.312 211.745 286.004C211.517 285.696 211.195 285.542 210.777 285.542C210.388 285.542 210.073 285.703 209.831 286.026C209.596 286.341 209.479 286.778 209.479 287.335V287.445C209.479 288.017 209.596 288.461 209.831 288.776C210.073 289.084 210.388 289.238 210.777 289.238C211.165 289.238 211.481 289.08 211.723 288.765C211.972 288.442 212.097 287.984 212.097 287.39ZM213.472 287.39C213.472 288.336 213.259 289.069 212.834 289.59C212.416 290.103 211.866 290.36 211.184 290.36C210.48 290.36 209.919 290.092 209.501 289.557H209.479V292.67H208.049V284.53H209.391L209.413 285.333H209.435C209.875 284.724 210.458 284.42 211.184 284.42C211.895 284.42 212.452 284.673 212.856 285.179C213.266 285.685 213.472 286.422 213.472 287.39ZM216.924 284.75H218.893V285.817H216.924V288.16C216.924 288.593 216.979 288.886 217.089 289.04C217.199 289.187 217.397 289.26 217.683 289.26C218.035 289.26 218.365 289.198 218.673 289.073L218.86 290.14C218.405 290.287 217.914 290.36 217.386 290.36C216.711 290.36 216.22 290.21 215.912 289.909C215.611 289.608 215.461 289.11 215.461 288.413V285.817H214.273V284.75H215.461V282.66H216.924V284.75ZM222.615 284.42C223.488 284.42 224.115 284.592 224.496 284.937C224.878 285.274 225.068 285.824 225.068 286.587V288.71C225.068 289.231 225.123 289.744 225.233 290.25H223.88C223.836 290.008 223.803 289.726 223.781 289.403H223.759C223.554 289.704 223.275 289.938 222.923 290.107C222.579 290.276 222.201 290.36 221.79 290.36C221.255 290.36 220.826 290.213 220.503 289.92C220.188 289.619 220.03 289.205 220.03 288.677C220.03 288.039 220.298 287.529 220.833 287.148C221.376 286.759 222.153 286.565 223.165 286.565H223.638V286.532C223.638 286.143 223.561 285.872 223.407 285.718C223.253 285.564 222.978 285.487 222.582 285.487C221.864 285.487 221.185 285.652 220.547 285.982L220.338 284.915C221.035 284.585 221.794 284.42 222.615 284.42ZM221.372 288.567C221.372 288.802 221.442 288.985 221.581 289.117C221.721 289.249 221.911 289.315 222.153 289.315C222.571 289.315 222.923 289.179 223.209 288.908C223.495 288.637 223.638 288.296 223.638 287.885V287.511H223.165C222.586 287.511 222.142 287.61 221.834 287.808C221.526 287.999 221.372 288.252 221.372 288.567ZM226.698 282H228.128V285.267H228.15C228.583 284.702 229.144 284.42 229.833 284.42C230.545 284.42 231.102 284.673 231.505 285.179C231.916 285.685 232.121 286.422 232.121 287.39C232.121 288.336 231.909 289.069 231.483 289.59C231.065 290.103 230.515 290.36 229.833 290.36C229.1 290.36 228.517 290.056 228.084 289.447H228.062L228.04 290.25H226.698V282ZM230.746 287.39C230.746 286.774 230.629 286.312 230.394 286.004C230.167 285.696 229.844 285.542 229.426 285.542C229.038 285.542 228.722 285.703 228.48 286.026C228.246 286.341 228.128 286.778 228.128 287.335V287.445C228.128 288.017 228.246 288.461 228.48 288.776C228.722 289.084 229.038 289.238 229.426 289.238C229.815 289.238 230.13 289.08 230.372 288.765C230.622 288.442 230.746 287.984 230.746 287.39ZM234.467 286.928H237.151C237.143 286.451 237.022 286.088 236.788 285.839C236.56 285.582 236.238 285.454 235.82 285.454C235.416 285.454 235.094 285.582 234.852 285.839C234.617 286.096 234.489 286.459 234.467 286.928ZM234.467 287.907C234.503 288.34 234.668 288.684 234.962 288.941C235.262 289.19 235.64 289.315 236.095 289.315C236.637 289.315 237.176 289.179 237.712 288.908L238.042 289.92C237.382 290.213 236.685 290.36 235.952 290.36C235.086 290.36 234.382 290.092 233.84 289.557C233.304 289.022 233.037 288.299 233.037 287.39C233.037 286.466 233.286 285.74 233.785 285.212C234.283 284.684 234.958 284.42 235.809 284.42C236.659 284.42 237.319 284.673 237.789 285.179C238.265 285.685 238.504 286.411 238.504 287.357C238.504 287.54 238.493 287.724 238.471 287.907H234.467ZM240.025 290.25V282H241.532V290.25H240.025Z" fill="white"/>
<path d="M184.782 382.74V385.875H183.264V377.9C184.012 377.79 184.819 377.735 185.684 377.735C186.762 377.735 187.569 377.937 188.104 378.34C188.639 378.736 188.907 379.297 188.907 380.023C188.907 380.551 188.764 381.013 188.478 381.409C188.199 381.805 187.818 382.08 187.334 382.234V382.256C187.686 382.461 187.99 382.898 188.247 383.565L189.127 385.875H187.543L186.707 383.598C186.575 383.246 186.425 383.015 186.256 382.905C186.087 382.795 185.798 382.74 185.387 382.74H184.782ZM184.782 381.574H185.431C186.736 381.574 187.389 381.108 187.389 380.177C187.389 379.348 186.784 378.934 185.574 378.934C185.273 378.934 185.009 378.956 184.782 379V381.574ZM191.149 382.553H193.833C193.826 382.076 193.705 381.713 193.47 381.464C193.243 381.207 192.92 381.079 192.502 381.079C192.099 381.079 191.776 381.207 191.534 381.464C191.3 381.721 191.171 382.084 191.149 382.553ZM191.149 383.532C191.186 383.965 191.351 384.309 191.644 384.566C191.945 384.815 192.323 384.94 192.777 384.94C193.32 384.94 193.859 384.804 194.394 384.533L194.724 385.545C194.064 385.838 193.368 385.985 192.634 385.985C191.769 385.985 191.065 385.717 190.522 385.182C189.987 384.647 189.719 383.924 189.719 383.015C189.719 382.091 189.969 381.365 190.467 380.837C190.966 380.309 191.641 380.045 192.491 380.045C193.342 380.045 194.002 380.298 194.471 380.804C194.948 381.31 195.186 382.036 195.186 382.982C195.186 383.165 195.175 383.349 195.153 383.532H191.149ZM198.688 380.045C199.56 380.045 200.187 380.217 200.569 380.562C200.95 380.899 201.141 381.449 201.141 382.212V384.335C201.141 384.856 201.196 385.369 201.306 385.875H199.953C199.909 385.633 199.876 385.351 199.854 385.028H199.832C199.626 385.329 199.348 385.563 198.996 385.732C198.651 385.901 198.273 385.985 197.863 385.985C197.327 385.985 196.898 385.838 196.576 385.545C196.26 385.244 196.103 384.83 196.103 384.302C196.103 383.664 196.37 383.154 196.906 382.773C197.448 382.384 198.226 382.19 199.238 382.19H199.711V382.157C199.711 381.768 199.634 381.497 199.48 381.343C199.326 381.189 199.051 381.112 198.655 381.112C197.936 381.112 197.258 381.277 196.62 381.607L196.411 380.54C197.107 380.21 197.866 380.045 198.688 380.045ZM197.445 384.192C197.445 384.427 197.514 384.61 197.654 384.742C197.793 384.874 197.984 384.94 198.226 384.94C198.644 384.94 198.996 384.804 199.282 384.533C199.568 384.262 199.711 383.921 199.711 383.51V383.136H199.238C198.658 383.136 198.215 383.235 197.907 383.433C197.599 383.624 197.445 383.877 197.445 384.192ZM203.046 385.875V377.625H204.553V385.875H203.046ZM206.515 378.945V377.625H208.022V378.945H206.515ZM206.515 385.875V380.155H208.022V385.875H206.515ZM213.885 381.541C213.276 381.262 212.679 381.123 212.092 381.123C211.417 381.123 211.08 381.321 211.08 381.717C211.08 381.908 211.153 382.054 211.3 382.157C211.447 382.26 211.703 382.337 212.07 382.388C212.884 382.505 213.467 382.718 213.819 383.026C214.171 383.327 214.347 383.745 214.347 384.28C214.347 384.808 214.142 385.226 213.731 385.534C213.328 385.835 212.756 385.985 212.015 385.985C211.128 385.985 210.339 385.802 209.65 385.435L209.925 384.357C210.548 384.716 211.219 384.896 211.938 384.896C212.576 384.896 212.895 384.683 212.895 384.258C212.895 384.06 212.829 383.913 212.697 383.818C212.565 383.715 212.308 383.631 211.927 383.565C211.12 383.433 210.541 383.217 210.189 382.916C209.844 382.615 209.672 382.208 209.672 381.695C209.672 381.189 209.87 380.789 210.266 380.496C210.669 380.195 211.252 380.045 212.015 380.045C212.778 380.045 213.493 380.184 214.16 380.463L213.885 381.541ZM217.81 380.375H219.779V381.442H217.81V383.785C217.81 384.218 217.865 384.511 217.975 384.665C218.085 384.812 218.283 384.885 218.569 384.885C218.921 384.885 219.251 384.823 219.559 384.698L219.746 385.765C219.292 385.912 218.8 385.985 218.272 385.985C217.598 385.985 217.106 385.835 216.798 385.534C216.498 385.233 216.347 384.735 216.347 384.038V381.442H215.159V380.375H216.347V378.285H217.81V380.375ZM221.63 378.945V377.625H223.137V378.945H221.63ZM221.63 385.875V380.155H223.137V385.875H221.63ZM228.999 381.541C228.39 381.262 227.793 381.123 227.206 381.123C226.531 381.123 226.194 381.321 226.194 381.717C226.194 381.908 226.267 382.054 226.414 382.157C226.561 382.26 226.817 382.337 227.184 382.388C227.998 382.505 228.581 382.718 228.933 383.026C229.285 383.327 229.461 383.745 229.461 384.28C229.461 384.808 229.256 385.226 228.845 385.534C228.442 385.835 227.87 385.985 227.129 385.985C226.242 385.985 225.453 385.802 224.764 385.435L225.039 384.357C225.662 384.716 226.333 384.896 227.052 384.896C227.69 384.896 228.009 384.683 228.009 384.258C228.009 384.06 227.943 383.913 227.811 383.818C227.679 383.715 227.422 383.631 227.041 383.565C226.234 383.433 225.655 383.217 225.303 382.916C224.958 382.615 224.786 382.208 224.786 381.695C224.786 381.189 224.984 380.789 225.38 380.496C225.783 380.195 226.366 380.045 227.129 380.045C227.892 380.045 228.607 380.184 229.274 380.463L228.999 381.541ZM234.965 384.511L235.295 385.578C234.694 385.849 234.071 385.985 233.425 385.985C232.509 385.985 231.772 385.717 231.214 385.182C230.657 384.647 230.378 383.924 230.378 383.015C230.378 382.084 230.646 381.358 231.181 380.837C231.724 380.309 232.472 380.045 233.425 380.045C234.071 380.045 234.694 380.181 235.295 380.452L234.965 381.541C234.503 381.277 234.012 381.145 233.491 381.145C232.971 381.145 232.564 381.306 232.27 381.629C231.984 381.952 231.841 382.414 231.841 383.015C231.841 383.602 231.992 384.064 232.292 384.401C232.6 384.738 233 384.907 233.491 384.907C234.019 384.907 234.511 384.775 234.965 384.511ZM236.759 377.625H238.189V380.892H238.211C238.687 380.327 239.274 380.045 239.971 380.045C240.631 380.045 241.115 380.25 241.423 380.661C241.738 381.064 241.896 381.728 241.896 382.652V385.875H240.488V382.795C240.488 382.164 240.414 381.739 240.268 381.519C240.121 381.292 239.857 381.178 239.476 381.178C239.131 381.178 238.83 381.35 238.574 381.695C238.317 382.032 238.189 382.41 238.189 382.828V385.875H236.759V377.625Z" fill="white"/>
<path d="M202.899 471.97V473.246H200.6V480H199.038V473.246H196.739V471.97H202.899ZM204.582 473.07V471.75H206.089V473.07H204.582ZM204.582 480V474.28H206.089V480H204.582ZM208.739 479.802V474.28H210.246V479.703C210.246 480.796 210.012 481.54 209.542 481.936C209.08 482.332 208.204 482.53 206.913 482.53L206.836 481.397C207.636 481.397 208.153 481.298 208.387 481.1C208.622 480.902 208.739 480.469 208.739 479.802ZM208.739 473.07V471.75H210.246V473.07H208.739ZM217.186 471.75V480H215.855L215.822 479.197H215.8C215.368 479.806 214.785 480.11 214.051 480.11C213.369 480.11 212.816 479.853 212.39 479.34C211.972 478.819 211.763 478.086 211.763 477.14C211.763 476.172 211.965 475.435 212.368 474.929C212.779 474.423 213.34 474.17 214.051 474.17C214.741 474.17 215.302 474.452 215.734 475.017H215.756V471.75H217.186ZM213.138 477.14C213.138 477.734 213.259 478.192 213.501 478.515C213.751 478.83 214.07 478.988 214.458 478.988C214.847 478.988 215.159 478.834 215.393 478.526C215.635 478.211 215.756 477.767 215.756 477.195V477.085C215.756 476.528 215.635 476.091 215.393 475.776C215.159 475.453 214.847 475.292 214.458 475.292C214.04 475.292 213.714 475.446 213.479 475.754C213.252 476.062 213.138 476.524 213.138 477.14ZM222.779 475.666C222.171 475.387 221.573 475.248 220.986 475.248C220.312 475.248 219.974 475.446 219.974 475.842C219.974 476.033 220.048 476.179 220.194 476.282C220.341 476.385 220.598 476.462 220.964 476.513C221.778 476.63 222.361 476.843 222.713 477.151C223.065 477.452 223.241 477.87 223.241 478.405C223.241 478.933 223.036 479.351 222.625 479.659C222.222 479.96 221.65 480.11 220.909 480.11C220.022 480.11 219.234 479.927 218.544 479.56L218.819 478.482C219.443 478.841 220.114 479.021 220.832 479.021C221.47 479.021 221.789 478.808 221.789 478.383C221.789 478.185 221.723 478.038 221.591 477.943C221.459 477.84 221.203 477.756 220.821 477.69C220.015 477.558 219.435 477.342 219.083 477.041C218.739 476.74 218.566 476.333 218.566 475.82C218.566 475.314 218.764 474.914 219.16 474.621C219.564 474.32 220.147 474.17 220.909 474.17C221.672 474.17 222.387 474.309 223.054 474.588L222.779 475.666ZM224.491 477.393V476.227H228.044V477.393H224.491ZM189.07 485.17C189.803 485.17 190.397 485.474 190.852 486.083H190.874L190.907 485.28H192.238V490.417C192.238 492.492 191.237 493.53 189.235 493.53C188.575 493.53 187.951 493.42 187.365 493.2L187.618 492.122C188.146 492.342 188.674 492.452 189.202 492.452C189.774 492.452 190.188 492.302 190.445 492.001C190.701 491.7 190.83 491.183 190.83 490.45V490.043H190.808C190.39 490.608 189.81 490.89 189.07 490.89C188.424 490.89 187.885 490.633 187.453 490.12C187.027 489.599 186.815 488.903 186.815 488.03C186.815 487.106 187.013 486.398 187.409 485.907C187.812 485.416 188.366 485.17 189.07 485.17ZM188.19 488.03C188.19 488.58 188.307 489.013 188.542 489.328C188.784 489.636 189.095 489.79 189.477 489.79C189.88 489.79 190.203 489.64 190.445 489.339C190.687 489.038 190.808 488.62 190.808 488.085V487.975C190.808 487.44 190.687 487.022 190.445 486.721C190.203 486.42 189.88 486.27 189.477 486.27C189.073 486.27 188.758 486.42 188.531 486.721C188.303 487.022 188.19 487.458 188.19 488.03ZM194.796 487.678H197.48C197.473 487.201 197.352 486.838 197.117 486.589C196.89 486.332 196.567 486.204 196.149 486.204C195.746 486.204 195.423 486.332 195.181 486.589C194.947 486.846 194.818 487.209 194.796 487.678ZM194.796 488.657C194.833 489.09 194.998 489.434 195.291 489.691C195.592 489.94 195.97 490.065 196.424 490.065C196.967 490.065 197.506 489.929 198.041 489.658L198.371 490.67C197.711 490.963 197.015 491.11 196.281 491.11C195.416 491.11 194.712 490.842 194.169 490.307C193.634 489.772 193.366 489.049 193.366 488.14C193.366 487.216 193.616 486.49 194.114 485.962C194.613 485.434 195.288 485.17 196.138 485.17C196.989 485.17 197.649 485.423 198.118 485.929C198.595 486.435 198.833 487.161 198.833 488.107C198.833 488.29 198.822 488.474 198.8 488.657H194.796ZM200.08 482.75H201.51V486.017H201.532C201.964 485.452 202.525 485.17 203.215 485.17C203.926 485.17 204.483 485.423 204.887 485.929C205.297 486.435 205.503 487.172 205.503 488.14C205.503 489.086 205.29 489.819 204.865 490.34C204.447 490.853 203.897 491.11 203.215 491.11C202.481 491.11 201.898 490.806 201.466 490.197H201.444L201.422 491H200.08V482.75ZM204.128 488.14C204.128 487.524 204.01 487.062 203.776 486.754C203.548 486.446 203.226 486.292 202.808 486.292C202.419 486.292 202.104 486.453 201.862 486.776C201.627 487.091 201.51 487.528 201.51 488.085V488.195C201.51 488.767 201.627 489.211 201.862 489.526C202.104 489.834 202.419 489.988 202.808 489.988C203.196 489.988 203.512 489.83 203.754 489.515C204.003 489.192 204.128 488.734 204.128 488.14ZM207.177 485.973C207.69 485.438 208.383 485.17 209.256 485.17C210.129 485.17 210.822 485.438 211.335 485.973C211.848 486.508 212.105 487.231 212.105 488.14C212.105 489.049 211.848 489.772 211.335 490.307C210.822 490.842 210.129 491.11 209.256 491.11C208.383 491.11 207.69 490.842 207.177 490.307C206.671 489.772 206.418 489.049 206.418 488.14C206.418 487.231 206.671 486.508 207.177 485.973ZM209.256 490.021C209.703 490.021 210.052 489.863 210.301 489.548C210.55 489.225 210.675 488.756 210.675 488.14C210.675 487.524 210.55 487.058 210.301 486.743C210.052 486.42 209.703 486.259 209.256 486.259C208.816 486.259 208.471 486.42 208.222 486.743C207.973 487.058 207.848 487.524 207.848 488.14C207.848 488.756 207.973 489.225 208.222 489.548C208.471 489.863 208.816 490.021 209.256 490.021ZM213.238 485.28H214.58L214.602 486.083H214.624C214.844 485.797 215.115 485.573 215.438 485.412C215.768 485.251 216.105 485.17 216.45 485.17C217.11 485.17 217.594 485.375 217.902 485.786C218.217 486.189 218.375 486.853 218.375 487.777V491H216.967V487.92C216.967 487.289 216.893 486.864 216.747 486.644C216.6 486.417 216.336 486.303 215.955 486.303C215.632 486.303 215.335 486.468 215.064 486.798C214.8 487.128 214.668 487.513 214.668 487.953V491H213.238V485.28ZM224.926 482.75V491H223.595L223.562 490.197H223.54C223.108 490.806 222.525 491.11 221.791 491.11C221.109 491.11 220.556 490.853 220.13 490.34C219.712 489.819 219.503 489.086 219.503 488.14C219.503 487.172 219.705 486.435 220.108 485.929C220.519 485.423 221.08 485.17 221.791 485.17C222.481 485.17 223.042 485.452 223.474 486.017H223.496V482.75H224.926ZM220.878 488.14C220.878 488.734 220.999 489.192 221.241 489.515C221.491 489.83 221.81 489.988 222.198 489.988C222.587 489.988 222.899 489.834 223.133 489.526C223.375 489.211 223.496 488.767 223.496 488.195V488.085C223.496 487.528 223.375 487.091 223.133 486.776C222.899 486.453 222.587 486.292 222.198 486.292C221.78 486.292 221.454 486.446 221.219 486.754C220.992 487.062 220.878 487.524 220.878 488.14ZM227.549 487.678H230.233C230.226 487.201 230.105 486.838 229.87 486.589C229.643 486.332 229.32 486.204 228.902 486.204C228.499 486.204 228.176 486.332 227.934 486.589C227.699 486.846 227.571 487.209 227.549 487.678ZM227.549 488.657C227.586 489.09 227.751 489.434 228.044 489.691C228.345 489.94 228.722 490.065 229.177 490.065C229.72 490.065 230.259 489.929 230.794 489.658L231.124 490.67C230.464 490.963 229.767 491.11 229.034 491.11C228.169 491.11 227.465 490.842 226.922 490.307C226.387 489.772 226.119 489.049 226.119 488.14C226.119 487.216 226.368 486.49 226.867 485.962C227.366 485.434 228.04 485.17 228.891 485.17C229.742 485.17 230.402 485.423 230.871 485.929C231.348 486.435 231.586 487.161 231.586 488.107C231.586 488.29 231.575 488.474 231.553 488.657H227.549ZM232.778 485.28H234.12L234.142 486.083H234.164C234.384 485.797 234.655 485.573 234.978 485.412C235.308 485.251 235.645 485.17 235.99 485.17C236.65 485.17 237.134 485.375 237.442 485.786C237.757 486.189 237.915 486.853 237.915 487.777V491H236.507V487.92C236.507 487.289 236.433 486.864 236.287 486.644C236.14 486.417 235.876 486.303 235.495 486.303C235.172 486.303 234.875 486.468 234.604 486.798C234.34 487.128 234.208 487.513 234.208 487.953V491H232.778V485.28Z" fill="white"/>
<path d="M208 359C208 361.761 205.761 364 203 364C200.239 364 198 361.761 198 359C198 356.239 200.239 354 203 354C205.761 354 208 356.239 208 359ZM225 359C225 361.761 222.761 364 220 364C217.239 364 215 361.761 215 359C215 356.239 217.239 354 220 354C222.761 354 225 356.239 225 359Z" stroke="white" stroke-width="2"/>
<path d="M209 359H214M226 359H227M197 359H196" stroke="white"/>
<path d="M207 156V166.5M225.5 174H207V166.5M207 166.5L212 163L217 166.5L225.5 158" stroke="white" stroke-width="2"/>
<path d="M214 446V451H218" stroke="white" stroke-width="2"/>
<circle cx="214" cy="451" r="8" stroke="white" stroke-width="2"/>
<path d="M203 259L211 265.5L224 253" stroke="white" stroke-width="2"/>
</svg>
