<svg width="1336" height="930" viewBox="0 0 1336 930" fill="none" xmlns="http://www.w3.org/2000/svg">
<rect width="1336" height="930" fill="#FFF2F1"/>
<path d="M490.5 706.112L604.5 657.612C678.748 692.782 718.634 692.078 787.5 664.112L800 788.612L914.5 843.112C832.755 887.519 764.46 909.62 686 903.993C615.757 902.504 551.687 879.759 476 832.612L490.5 706.112Z" fill="#F973BF"/>
<path d="M755.881 236.356L692.113 342.573C611.366 357.726 579.501 381.725 540.197 444.812L456.947 351.399L332.27 374.554C372.338 290.598 414.625 232.593 481.426 191.057C539.147 150.999 604.359 131.77 693.306 125.465L755.881 236.356Z" fill="#9F60E2"/>
<path d="M446.439 374.658L529.765 466.337C520.998 548.024 534.793 585.456 583.872 641.276L470.426 694.066L456.658 820.125C387.816 757.556 344.464 700.343 323.947 624.404C302.229 557.586 302.614 489.6 322.216 402.611L446.439 374.658Z" fill="#28C1E0"/>
<path d="M984.724 484.799L863.963 457.14C824.502 385.081 791.798 362.236 719.63 344.45L782.597 236.322L721.896 124.985C814.141 137.022 882.405 159.222 942.62 209.836C998.612 252.277 1037.13 308.302 1070.72 390.902L984.724 484.799Z" fill="#F9C316"/>
<path d="M816.592 775.319L806.992 651.803C864.011 592.654 876.068 554.627 871.531 480.438L993.514 508.307L1081.69 417.176C1097.7 508.816 1096.86 580.593 1066.5 653.159C1042.68 719.257 1000.68 772.724 931.857 829.416L816.592 775.319Z" fill="#B5D13F"/>
<path d="M384.086 321.809L388.086 327.809C385.423 297.755 377.685 281.422 364.985 274.309C326.717 250.384 292.935 263.726 263.086 293.809V281.309C262.364 279.018 261.108 277.518 256.586 274.309L255.086 279.809C254.306 294.284 253.092 304.303 255.086 319.309C258.552 325.783 261.238 327.834 266.586 330.309C282.717 319.136 293.016 314.716 314.086 309.809C311.914 297.138 306.003 294.353 283.586 300.309C298.119 289.622 310.281 282.991 321.586 281.081C360.76 276.236 378.338 288.555 384.086 321.809Z" fill="#545454"/>
<path d="M566.154 131.369C565.062 137.159 565.982 140.09 570.649 144.75C579.457 135.079 589.587 127.952 601.886 123.106C631.311 112.841 662.398 109.127 696.036 111.571C738.722 114.359 774.827 122.416 800.541 135.209C781.811 140.119 777.339 144.703 778.427 155.586C792.316 148.826 804.668 147.835 825.619 145.852C826.352 145.783 826.994 145.315 827.28 144.636L831.184 135.346C831.505 134.582 831.322 133.699 830.723 133.126L797.126 100.985C796.182 100.082 794.641 100.311 794 101.449L791.792 105.371C791.43 106.014 791.452 106.804 791.848 107.427L796.578 114.849C768.355 105.461 743.975 99.2924 720.216 96.9793C638.948 92.8778 590.835 102.862 566.154 131.369Z" fill="#545454"/>
<path d="M1004.82 247.16C995.872 238.739 989.824 241.18 978 256.311C987.896 211.567 1037.63 185.268 1068.2 221.347C1068.63 221.849 1069.4 221.905 1069.87 221.44C1070.24 221.072 1070.29 220.478 1070 220.042C1033.38 164.124 965.471 199.092 959 261.309C953.733 253.013 950.4 249.797 944.61 249.75C943.869 249.744 943.448 250.561 943.825 251.199C956.412 272.477 963.25 289.043 978.828 288.352C979.231 288.334 979.584 288.059 979.714 287.677C984.642 273.197 991.407 264.233 1004.89 248.526C1005.23 248.127 1005.21 247.52 1004.82 247.16Z" fill="#545454"/>
<path d="M94.6216 343.946C99.9565 343.55 103.437 343.353 105.063 343.353C106.698 343.353 107.985 343.506 108.926 343.814C109.875 344.113 110.723 344.53 111.47 345.066C112.92 346.095 114.015 347.461 114.753 349.167C115.5 350.872 115.874 352.599 115.874 354.348C115.874 356.097 115.588 357.626 115.017 358.936C114.454 360.236 113.672 361.335 112.67 362.231C110.622 364.086 107.972 365.009 104.72 365H94.6216V343.946ZM102.822 350.63V358.659C103.288 358.263 103.793 357.872 104.338 357.485C106.43 355.982 107.476 354.409 107.476 352.766C107.476 351.966 107.238 351.228 106.764 350.551C106.289 349.865 105.669 349.522 104.905 349.522C104.149 349.522 103.455 349.892 102.822 350.63ZM129.809 353.28C129.633 353.192 129.404 353.148 129.123 353.148C128.851 353.148 128.547 353.231 128.213 353.398C127.879 353.557 127.55 353.776 127.225 354.058C126.539 354.655 125.963 355.38 125.498 356.233C125.032 357.085 124.799 357.872 124.799 358.593C124.799 359.305 125.071 359.784 125.616 360.03C125.81 360.118 126.047 360.162 126.328 360.162C126.609 360.162 126.904 360.078 127.211 359.911C127.519 359.735 127.827 359.502 128.134 359.212C128.776 358.606 129.338 357.872 129.822 357.011C130.305 356.141 130.547 355.363 130.547 354.677C130.547 353.992 130.301 353.526 129.809 353.28ZM127.251 365.488C124.737 365.488 122.571 364.692 120.751 363.102C118.809 361.414 117.838 359.292 117.838 356.734C117.838 354.167 118.748 352.071 120.567 350.445C122.386 348.811 124.632 347.993 127.304 347.993C129.976 347.993 132.221 348.793 134.041 350.393C135.86 351.983 136.774 354.115 136.783 356.787C136.792 358.5 136.356 360.017 135.478 361.335C134.599 362.653 133.425 363.673 131.958 364.394C130.49 365.114 128.921 365.479 127.251 365.488ZM150.111 353.306C150.111 352.533 149.751 352.146 149.03 352.146C148.204 352.225 147.668 352.651 147.422 353.425C147.299 353.794 147.211 354.225 147.158 354.717C147.114 355.2 147.044 355.719 146.947 356.272L149.834 355.626L150.085 353.609L150.111 353.306ZM148.332 359.305C148.332 359.305 148.09 359.305 147.606 359.305C147.378 359.305 147.158 359.296 146.947 359.278C146.947 360.324 147.505 360.896 148.622 360.992C148.929 361.019 149.228 361.032 149.518 361.032C150.265 361.032 151.201 360.86 152.326 360.518C153.46 360.175 154.475 359.617 155.372 358.843L156.189 362.943C154.229 364.64 151.267 365.488 147.303 365.488C145.027 365.488 143.071 364.824 141.437 363.497C139.661 362.047 138.773 360.039 138.773 357.472C138.773 355.539 139.274 353.803 140.276 352.265C141.208 350.858 142.469 349.791 144.06 349.061C145.651 348.332 147.369 347.967 149.215 347.967C151.605 347.967 153.412 348.49 154.633 349.536C155.864 350.582 156.475 351.874 156.466 353.412C156.466 354.95 155.732 356.316 154.264 357.512C152.796 358.707 150.819 359.305 148.332 359.305ZM166.749 365H159.274V342.812H166.749V365ZM189.24 365.04C188.062 365.356 186.45 365.514 184.402 365.514C182.354 365.514 179.796 365.272 176.729 364.789V342.812H184.402V350.551C185.536 349.479 186.911 348.797 188.528 348.507C188.968 348.428 189.354 348.389 189.688 348.389C191.982 348.389 193.767 349.158 195.041 350.696C196.315 352.234 196.953 354.115 196.953 356.338C196.953 357.525 196.614 358.76 195.938 360.043C194.619 362.539 192.387 364.205 189.24 365.04ZM188.199 353.873C187.047 353.873 185.769 354.449 184.362 355.6V360.57H185.667C186.546 360.57 187.403 360.039 188.238 358.975C189.082 357.903 189.504 356.804 189.504 355.679C189.504 354.879 189.271 354.33 188.805 354.031C188.638 353.926 188.436 353.873 188.199 353.873ZM210.281 353.306C210.281 352.533 209.921 352.146 209.2 352.146C208.374 352.225 207.838 352.651 207.592 353.425C207.469 353.794 207.381 354.225 207.328 354.717C207.284 355.2 207.214 355.719 207.117 356.272L210.004 355.626L210.255 353.609L210.281 353.306ZM208.501 359.305C208.501 359.305 208.26 359.305 207.776 359.305C207.548 359.305 207.328 359.296 207.117 359.278C207.117 360.324 207.675 360.896 208.792 360.992C209.099 361.019 209.398 361.032 209.688 361.032C210.435 361.032 211.371 360.86 212.496 360.518C213.63 360.175 214.645 359.617 215.542 358.843L216.359 362.943C214.399 364.64 211.437 365.488 207.473 365.488C205.197 365.488 203.241 364.824 201.606 363.497C199.831 362.047 198.943 360.039 198.943 357.472C198.943 355.539 199.444 353.803 200.446 352.265C201.378 350.858 202.639 349.791 204.23 349.061C205.821 348.332 207.539 347.967 209.385 347.967C211.775 347.967 213.582 348.49 214.803 349.536C216.034 350.582 216.645 351.874 216.636 353.412C216.636 354.95 215.902 356.316 214.434 357.512C212.966 358.707 210.989 359.305 208.501 359.305ZM231.138 354.796C230.329 354.796 229.499 355.09 228.646 355.679C227.793 356.268 227.363 356.826 227.354 357.354V365H219.417V348.613H227.354V350.366C227.802 349.689 228.356 349.149 229.015 348.745C229.683 348.34 230.391 348.099 231.138 348.02V354.796ZM244.189 353.306C244.189 352.533 243.829 352.146 243.108 352.146C242.282 352.225 241.746 352.651 241.5 353.425C241.377 353.794 241.289 354.225 241.236 354.717C241.192 355.2 241.122 355.719 241.025 356.272L243.913 355.626L244.163 353.609L244.189 353.306ZM242.41 359.305C242.41 359.305 242.168 359.305 241.685 359.305C241.456 359.305 241.236 359.296 241.025 359.278C241.025 360.324 241.583 360.896 242.7 360.992C243.007 361.019 243.306 361.032 243.596 361.032C244.343 361.032 245.279 360.86 246.404 360.518C247.538 360.175 248.553 359.617 249.45 358.843L250.267 362.943C248.307 364.64 245.345 365.488 241.381 365.488C239.105 365.488 237.149 364.824 235.515 363.497C233.739 362.047 232.852 360.039 232.852 357.472C232.852 355.539 233.353 353.803 234.354 352.265C235.286 350.858 236.547 349.791 238.138 349.061C239.729 348.332 241.447 347.967 243.293 347.967C245.684 347.967 247.49 348.49 248.711 349.536C249.942 350.582 250.553 351.874 250.544 353.412C250.544 354.95 249.81 356.316 248.342 357.512C246.875 358.707 244.897 359.305 242.41 359.305ZM257.386 341.019C258.678 341.019 259.636 341.292 260.26 341.836C260.884 342.373 261.192 343.058 261.183 343.893C261.183 344.728 260.783 345.497 259.983 346.2C259.192 346.903 258.133 347.255 256.806 347.255C254.943 347.255 253.783 346.692 253.326 345.567C253.194 345.251 253.128 344.899 253.128 344.513C253.128 344.126 253.22 343.722 253.405 343.3C253.589 342.878 253.866 342.5 254.235 342.166C255.053 341.401 256.103 341.019 257.386 341.019ZM260.959 365H253.326V348.613H260.959V365ZM271.374 359.687C271.251 359.889 271.176 360.039 271.15 360.135V365H264.189V342.812H271.018V353.504L274.129 348.613H281.895L276.845 355.771L282.712 365H274.67L271.374 359.687ZM296.911 363.813C295.241 364.947 293.47 365.514 291.598 365.514C289.734 365.514 288.218 364.987 287.049 363.932C285.88 362.869 285.296 361.44 285.296 359.647V352.792H283.793V348.613H285.296V344.183L293.18 343.379V348.613H296.911V352.792H293.18V356.932C293.18 358.171 293.457 359.072 294.01 359.634C294.573 360.188 295.54 360.465 296.911 360.465V363.813Z" fill="black"/>
<path d="M472.716 273.468C468.876 273.468 465.876 272.436 463.716 270.372C461.556 268.308 460.476 265.392 460.476 261.624C460.476 259.056 460.98 256.788 461.988 254.82C463.02 252.852 464.472 251.34 466.344 250.284C468.216 249.204 470.376 248.664 472.824 248.664C474.816 248.664 476.736 249.024 478.584 249.744L477.612 254.388C475.98 253.644 474.396 253.272 472.86 253.272C470.676 253.272 468.948 253.992 467.676 255.432C466.404 256.848 465.768 258.744 465.768 261.12C465.768 263.544 466.44 265.428 467.784 266.772C469.128 268.116 470.988 268.788 473.364 268.788C474.924 268.788 476.436 268.536 477.9 268.032L478.692 272.46C476.94 273.132 474.948 273.468 472.716 273.468ZM490.861 273.54C488.989 273.54 487.333 273.132 485.893 272.316C484.477 271.5 483.373 270.36 482.581 268.896C481.789 267.408 481.393 265.692 481.393 263.748C481.393 261.804 481.777 260.1 482.545 258.636C483.337 257.148 484.441 255.996 485.857 255.18C487.297 254.364 488.953 253.956 490.825 253.956C492.697 253.956 494.341 254.364 495.757 255.18C497.197 255.972 498.301 257.1 499.069 258.564C499.861 260.028 500.257 261.72 500.257 263.64C500.257 265.584 499.861 267.312 499.069 268.824C498.301 270.312 497.197 271.476 495.757 272.316C494.341 273.132 492.709 273.54 490.861 273.54ZM490.825 269.148C492.121 269.148 493.153 268.656 493.921 267.672C494.713 266.664 495.109 265.344 495.109 263.712C495.109 262.08 494.713 260.784 493.921 259.824C493.153 258.84 492.121 258.348 490.825 258.348C489.529 258.348 488.485 258.84 487.693 259.824C486.925 260.784 486.541 262.08 486.541 263.712C486.541 265.344 486.925 266.664 487.693 267.672C488.485 268.656 489.529 269.148 490.825 269.148ZM504.02 254.46H508.988V257.664C509.756 256.392 510.644 255.456 511.652 254.856C512.66 254.256 513.836 253.956 515.18 253.956C517.172 253.956 518.732 254.556 519.86 255.756C520.988 256.932 521.552 258.576 521.552 260.688V273H516.476V261.48C516.476 260.52 516.236 259.776 515.756 259.248C515.276 258.696 514.628 258.42 513.812 258.42C512.852 258.42 511.94 258.78 511.076 259.5C510.212 260.22 509.552 261.132 509.096 262.236V273H504.02V254.46ZM531.427 273.54C530.251 273.54 529.111 273.42 528.007 273.18C526.927 272.94 526.003 272.616 525.235 272.208L525.703 267.888C526.519 268.392 527.419 268.8 528.403 269.112C529.387 269.424 530.311 269.58 531.175 269.58C531.991 269.58 532.675 269.436 533.227 269.148C533.779 268.836 534.055 268.392 534.055 267.816C534.055 267.36 533.863 267.012 533.479 266.772C533.095 266.508 532.363 266.184 531.283 265.8L530.311 265.44C529.279 265.056 528.439 264.696 527.791 264.36C527.143 264 526.555 263.46 526.027 262.74C525.499 262.02 525.235 261.072 525.235 259.896C525.235 258.024 525.931 256.572 527.323 255.54C528.739 254.484 530.575 253.956 532.831 253.956C534.607 253.956 536.479 254.304 538.447 255L537.763 259.284C537.067 258.876 536.275 258.552 535.387 258.312C534.523 258.048 533.707 257.916 532.939 257.916C532.147 257.916 531.511 258.048 531.031 258.312C530.575 258.576 530.347 258.96 530.347 259.464C530.347 259.944 530.539 260.304 530.923 260.544C531.307 260.784 531.955 261.06 532.867 261.372C533.587 261.636 534.007 261.792 534.127 261.84C535.135 262.248 535.975 262.644 536.647 263.028C537.319 263.412 537.907 263.988 538.411 264.756C538.915 265.5 539.167 266.46 539.167 267.636C539.167 269.604 538.459 271.08 537.043 272.064C535.627 273.048 533.755 273.54 531.427 273.54ZM551.33 273.54C549.458 273.54 547.802 273.132 546.362 272.316C544.946 271.5 543.842 270.36 543.05 268.896C542.258 267.408 541.862 265.692 541.862 263.748C541.862 261.804 542.246 260.1 543.014 258.636C543.806 257.148 544.91 255.996 546.326 255.18C547.766 254.364 549.422 253.956 551.294 253.956C553.166 253.956 554.81 254.364 556.226 255.18C557.666 255.972 558.77 257.1 559.538 258.564C560.33 260.028 560.726 261.72 560.726 263.64C560.726 265.584 560.33 267.312 559.538 268.824C558.77 270.312 557.666 271.476 556.226 272.316C554.81 273.132 553.178 273.54 551.33 273.54ZM551.294 269.148C552.59 269.148 553.622 268.656 554.39 267.672C555.182 266.664 555.578 265.344 555.578 263.712C555.578 262.08 555.182 260.784 554.39 259.824C553.622 258.84 552.59 258.348 551.294 258.348C549.998 258.348 548.954 258.84 548.162 259.824C547.394 260.784 547.01 262.08 547.01 263.712C547.01 265.344 547.394 266.664 548.162 267.672C548.954 268.656 549.998 269.148 551.294 269.148ZM562.957 268.644H566.233V251.04H563.137V246.72H571.309V268.644H574.585V273H562.957V268.644ZM580.078 246.72H585.874V251.4H580.078V246.72ZM577.27 268.644H580.726V258.816H577.27V254.46H585.802V268.644H588.898V273H577.27V268.644ZM597.706 273.54C595.618 273.54 593.974 272.748 592.774 271.164C591.598 269.556 591.01 267.324 591.01 264.468C591.01 261.084 591.886 258.492 593.638 256.692C595.414 254.868 597.934 253.956 601.198 253.956C601.606 253.956 602.218 253.98 603.034 254.028V246.72H608.038V273H603.106L603.214 270.588H603.07C602.446 271.548 601.678 272.28 600.766 272.784C599.878 273.288 598.858 273.54 597.706 273.54ZM598.858 269.112C599.626 269.112 600.37 268.788 601.09 268.14C601.81 267.468 602.458 266.52 603.034 265.296V258.708C602.218 258.492 601.438 258.384 600.694 258.384C599.182 258.384 598.03 258.876 597.238 259.86C596.47 260.844 596.086 262.284 596.086 264.18C596.086 265.716 596.326 266.928 596.806 267.816C597.31 268.68 597.994 269.112 598.858 269.112ZM618.052 273.54C616.132 273.54 614.608 272.724 613.48 271.092C612.352 269.46 611.788 267.24 611.788 264.432C611.788 261.024 612.652 258.432 614.38 256.656C616.108 254.856 618.592 253.956 621.832 253.956C623.656 253.956 625.792 254.244 628.24 254.82V273H623.416L623.524 270.048H623.38C622.756 271.176 621.988 272.04 621.076 272.64C620.188 273.24 619.18 273.54 618.052 273.54ZM619.132 269.112C619.876 269.112 620.608 268.716 621.328 267.924C622.048 267.132 622.72 266.076 623.344 264.756V258.708C622.576 258.492 621.808 258.384 621.04 258.384C619.6 258.384 618.508 258.876 617.764 259.86C617.044 260.844 616.684 262.296 616.684 264.216C616.684 265.728 616.9 266.928 617.332 267.816C617.764 268.68 618.364 269.112 619.132 269.112ZM639.882 273.54C638.154 273.54 636.81 273.108 635.85 272.244C634.914 271.356 634.446 270.108 634.446 268.5V258.816H631.566V254.46H634.446V250.5C636.15 250.212 637.83 249.996 639.486 249.852V254.46H644.166V258.816H639.486V267.564C639.486 268.068 639.63 268.452 639.918 268.716C640.23 268.98 640.662 269.112 641.214 269.112C641.886 269.112 642.654 268.956 643.518 268.644L644.634 272.46C643.098 273.18 641.514 273.54 639.882 273.54ZM650.391 246.72H656.187V251.4H650.391V246.72ZM647.583 268.644H651.039V258.816H647.583V254.46H656.115V268.644H659.211V273H647.583V268.644ZM670.971 273.54C667.971 273.54 665.607 272.676 663.879 270.948C662.175 269.22 661.323 266.82 661.323 263.748C661.323 261.756 661.695 260.028 662.439 258.564C663.183 257.076 664.227 255.936 665.571 255.144C666.939 254.352 668.535 253.956 670.359 253.956C673.047 253.956 675.111 254.82 676.551 256.548C677.991 258.276 678.711 260.772 678.711 264.036C678.711 264.588 678.699 264.996 678.675 265.26H666.435C666.675 266.532 667.227 267.504 668.091 268.176C668.955 268.824 670.119 269.148 671.583 269.148C672.471 269.148 673.395 269.04 674.355 268.824C675.315 268.584 676.155 268.272 676.875 267.888L677.703 271.956C676.743 272.46 675.675 272.844 674.499 273.108C673.347 273.396 672.171 273.54 670.971 273.54ZM673.851 261.444C673.779 260.412 673.419 259.596 672.771 258.996C672.123 258.372 671.259 258.06 670.179 258.06C669.147 258.06 668.295 258.36 667.623 258.96C666.975 259.56 666.567 260.388 666.399 261.444H673.851Z" fill="black"/>
<path d="M740.52 321.024C741.216 321 742.536 320.988 744.48 320.988C746.448 320.988 747.78 321 748.476 321.024C750.948 321.072 752.892 321.732 754.308 323.004C755.724 324.276 756.432 326.04 756.432 328.296C756.432 329.904 756.072 331.332 755.352 332.58C754.632 333.804 753.612 334.752 752.292 335.424C750.996 336.096 749.52 336.432 747.864 336.432H745.524V345H740.52V321.024ZM747.648 332.184C748.824 332.184 749.736 331.848 750.384 331.176C751.056 330.504 751.392 329.592 751.392 328.44C751.392 326.328 750.228 325.272 747.9 325.272H745.524V332.184H747.648ZM760.136 326.46H765.212V329.484H765.5C766.196 328.26 766.88 327.36 767.552 326.784C768.248 326.208 769.112 325.92 770.144 325.92C770.576 325.92 770.936 325.968 771.224 326.064L770.684 331.536C770.06 331.368 769.556 331.284 769.172 331.284C768.62 331.284 768.128 331.392 767.696 331.608C767.288 331.824 766.916 332.112 766.58 332.472C766.268 332.832 765.812 333.384 765.212 334.128V345H760.136V326.46ZM782.522 345.54C779.522 345.54 777.158 344.676 775.43 342.948C773.726 341.22 772.874 338.82 772.874 335.748C772.874 333.756 773.246 332.028 773.99 330.564C774.734 329.076 775.778 327.936 777.122 327.144C778.49 326.352 780.086 325.956 781.91 325.956C784.598 325.956 786.662 326.82 788.102 328.548C789.542 330.276 790.262 332.772 790.262 336.036C790.262 336.588 790.25 336.996 790.226 337.26H777.986C778.226 338.532 778.778 339.504 779.642 340.176C780.506 340.824 781.67 341.148 783.134 341.148C784.022 341.148 784.946 341.04 785.906 340.824C786.866 340.584 787.706 340.272 788.426 339.888L789.254 343.956C788.294 344.46 787.226 344.844 786.05 345.108C784.898 345.396 783.722 345.54 782.522 345.54ZM785.402 333.444C785.33 332.412 784.97 331.596 784.322 330.996C783.674 330.372 782.81 330.06 781.73 330.06C780.698 330.06 779.846 330.36 779.174 330.96C778.526 331.56 778.118 332.388 777.95 333.444H785.402ZM795.227 332.112H809.627L809.267 336.252H794.867L795.227 332.112ZM823.863 345.54C820.791 345.54 818.403 344.724 816.699 343.092C815.019 341.46 814.179 339.156 814.179 336.18C814.179 334.164 814.575 332.388 815.367 330.852C816.159 329.292 817.275 328.092 818.715 327.252C820.155 326.388 821.823 325.956 823.719 325.956C824.607 325.956 825.531 326.064 826.491 326.28C827.475 326.472 828.231 326.7 828.759 326.964L827.787 331.248C827.235 330.984 826.623 330.78 825.951 330.636C825.303 330.468 824.691 330.384 824.115 330.384C822.627 330.384 821.427 330.888 820.515 331.896C819.627 332.904 819.183 334.236 819.183 335.892C819.183 337.572 819.639 338.868 820.551 339.78C821.487 340.692 822.807 341.148 824.511 341.148C825.639 341.148 826.851 340.932 828.147 340.5L828.903 344.604C827.343 345.228 825.663 345.54 823.863 345.54ZM840.912 345.54C839.04 345.54 837.384 345.132 835.944 344.316C834.528 343.5 833.424 342.36 832.632 340.896C831.84 339.408 831.444 337.692 831.444 335.748C831.444 333.804 831.828 332.1 832.596 330.636C833.388 329.148 834.492 327.996 835.908 327.18C837.348 326.364 839.004 325.956 840.876 325.956C842.748 325.956 844.392 326.364 845.808 327.18C847.248 327.972 848.352 329.1 849.12 330.564C849.912 332.028 850.308 333.72 850.308 335.64C850.308 337.584 849.912 339.312 849.12 340.824C848.352 342.312 847.248 343.476 845.808 344.316C844.392 345.132 842.76 345.54 840.912 345.54ZM840.876 341.148C842.172 341.148 843.204 340.656 843.972 339.672C844.764 338.664 845.16 337.344 845.16 335.712C845.16 334.08 844.764 332.784 843.972 331.824C843.204 330.84 842.172 330.348 840.876 330.348C839.58 330.348 838.536 330.84 837.744 331.824C836.976 332.784 836.592 334.08 836.592 335.712C836.592 337.344 836.976 338.664 837.744 339.672C838.536 340.656 839.58 341.148 840.876 341.148ZM854.07 326.46H859.038V329.664C859.806 328.392 860.694 327.456 861.702 326.856C862.71 326.256 863.886 325.956 865.23 325.956C867.222 325.956 868.782 326.556 869.91 327.756C871.038 328.932 871.602 330.576 871.602 332.688V345H866.526V333.48C866.526 332.52 866.286 331.776 865.806 331.248C865.326 330.696 864.678 330.42 863.862 330.42C862.902 330.42 861.99 330.78 861.126 331.5C860.262 332.22 859.602 333.132 859.146 334.236V345H854.07V326.46ZM882.566 345.54C880.838 345.54 879.494 345.108 878.534 344.244C877.598 343.356 877.13 342.108 877.13 340.5V330.816H874.25V326.46H877.13V322.5C878.834 322.212 880.514 321.996 882.17 321.852V326.46H886.85V330.816H882.17V339.564C882.17 340.068 882.314 340.452 882.602 340.716C882.914 340.98 883.346 341.112 883.898 341.112C884.57 341.112 885.338 340.956 886.202 340.644L887.318 344.46C885.782 345.18 884.198 345.54 882.566 345.54ZM898.783 345.54C895.783 345.54 893.419 344.676 891.691 342.948C889.987 341.22 889.135 338.82 889.135 335.748C889.135 333.756 889.507 332.028 890.251 330.564C890.995 329.076 892.039 327.936 893.383 327.144C894.751 326.352 896.347 325.956 898.171 325.956C900.859 325.956 902.923 326.82 904.363 328.548C905.803 330.276 906.523 332.772 906.523 336.036C906.523 336.588 906.511 336.996 906.487 337.26H894.247C894.487 338.532 895.039 339.504 895.903 340.176C896.767 340.824 897.931 341.148 899.395 341.148C900.283 341.148 901.207 341.04 902.167 340.824C903.127 340.584 903.967 340.272 904.687 339.888L905.515 343.956C904.555 344.46 903.487 344.844 902.311 345.108C901.159 345.396 899.983 345.54 898.783 345.54ZM901.663 333.444C901.591 332.412 901.231 331.596 900.583 330.996C899.935 330.372 899.071 330.06 897.991 330.06C896.959 330.06 896.107 330.36 895.435 330.96C894.787 331.56 894.379 332.388 894.211 333.444H901.663ZM910.32 326.46H915.288V329.34C916.752 327.084 918.732 325.956 921.228 325.956C922.644 325.956 923.844 326.292 924.828 326.964C925.836 327.612 926.568 328.548 927.024 329.772C927.864 328.452 928.8 327.492 929.832 326.892C930.888 326.268 932.088 325.956 933.432 325.956C935.424 325.956 936.972 326.556 938.076 327.756C939.204 328.932 939.768 330.576 939.768 332.688V345H934.692V333.48C934.692 332.52 934.452 331.776 933.972 331.248C933.516 330.696 932.892 330.42 932.1 330.42C931.116 330.42 930.204 330.828 929.364 331.644C928.524 332.46 927.9 333.504 927.492 334.776V345H922.416V333.48C922.416 332.544 922.176 331.8 921.696 331.248C921.216 330.696 920.58 330.42 919.788 330.42C918.9 330.42 918.06 330.756 917.268 331.428C916.5 332.076 915.876 333 915.396 334.2V345H910.32V326.46ZM944.633 326.46H949.565L949.457 328.872H949.601C950.225 327.912 950.981 327.18 951.869 326.676C952.781 326.172 953.813 325.92 954.965 325.92C957.053 325.92 958.685 326.724 959.861 328.332C961.061 329.916 961.661 332.136 961.661 334.992C961.661 338.376 960.773 340.98 958.997 342.804C957.245 344.604 954.737 345.504 951.473 345.504C951.065 345.504 950.453 345.48 949.637 345.432V352.848H944.633V326.46ZM951.977 341.076C953.489 341.076 954.629 340.584 955.397 339.6C956.189 338.616 956.585 337.176 956.585 335.28C956.585 333.744 956.333 332.544 955.829 331.68C955.349 330.792 954.677 330.348 953.813 330.348C953.045 330.348 952.301 330.684 951.581 331.356C950.861 332.004 950.213 332.94 949.637 334.164V340.752C950.453 340.968 951.233 341.076 951.977 341.076ZM963.879 340.644H967.155V323.04H964.059V318.72H972.231V340.644H975.507V345H963.879V340.644ZM983.782 345.54C981.862 345.54 980.338 344.724 979.21 343.092C978.082 341.46 977.518 339.24 977.518 336.432C977.518 333.024 978.382 330.432 980.11 328.656C981.838 326.856 984.322 325.956 987.562 325.956C989.386 325.956 991.522 326.244 993.97 326.82V345H989.146L989.254 342.048H989.11C988.486 343.176 987.718 344.04 986.806 344.64C985.918 345.24 984.91 345.54 983.782 345.54ZM984.862 341.112C985.606 341.112 986.338 340.716 987.058 339.924C987.778 339.132 988.45 338.076 989.074 336.756V330.708C988.306 330.492 987.538 330.384 986.77 330.384C985.33 330.384 984.238 330.876 983.494 331.86C982.774 332.844 982.414 334.296 982.414 336.216C982.414 337.728 982.63 338.928 983.062 339.816C983.494 340.68 984.094 341.112 984.862 341.112ZM1005.61 345.54C1003.88 345.54 1002.54 345.108 1001.58 344.244C1000.64 343.356 1000.18 342.108 1000.18 340.5V330.816H997.297V326.46H1000.18V322.5C1001.88 322.212 1003.56 321.996 1005.22 321.852V326.46H1009.9V330.816H1005.22V339.564C1005.22 340.068 1005.36 340.452 1005.65 340.716C1005.96 340.98 1006.39 341.112 1006.94 341.112C1007.62 341.112 1008.38 340.956 1009.25 340.644L1010.36 344.46C1008.83 345.18 1007.24 345.54 1005.61 345.54ZM1016.12 318.72H1021.92V323.4H1016.12V318.72ZM1013.31 340.644H1016.77V330.816H1013.31V326.46H1021.85V340.644H1024.94V345H1013.31V340.644ZM1036.7 345.54C1033.7 345.54 1031.34 344.676 1029.61 342.948C1027.91 341.22 1027.05 338.82 1027.05 335.748C1027.05 333.756 1027.43 332.028 1028.17 330.564C1028.91 329.076 1029.96 327.936 1031.3 327.144C1032.67 326.352 1034.27 325.956 1036.09 325.956C1038.78 325.956 1040.84 326.82 1042.28 328.548C1043.72 330.276 1044.44 332.772 1044.44 336.036C1044.44 336.588 1044.43 336.996 1044.41 337.26H1032.17C1032.41 338.532 1032.96 339.504 1033.82 340.176C1034.69 340.824 1035.85 341.148 1037.31 341.148C1038.2 341.148 1039.13 341.04 1040.09 340.824C1041.05 340.584 1041.89 340.272 1042.61 339.888L1043.43 343.956C1042.47 344.46 1041.41 344.844 1040.23 345.108C1039.08 345.396 1037.9 345.54 1036.7 345.54ZM1039.58 333.444C1039.51 332.412 1039.15 331.596 1038.5 330.996C1037.85 330.372 1036.99 330.06 1035.91 330.06C1034.88 330.06 1034.03 330.36 1033.35 330.96C1032.71 331.56 1032.3 332.388 1032.13 333.444H1039.58Z" fill="black"/>
<path d="M847.716 658.468C843.876 658.468 840.876 657.436 838.716 655.372C836.556 653.308 835.476 650.392 835.476 646.624C835.476 644.056 835.98 641.788 836.988 639.82C838.02 637.852 839.472 636.34 841.344 635.284C843.216 634.204 845.376 633.664 847.824 633.664C849.816 633.664 851.736 634.024 853.584 634.744L852.612 639.388C850.98 638.644 849.396 638.272 847.86 638.272C845.676 638.272 843.948 638.992 842.676 640.432C841.404 641.848 840.768 643.744 840.768 646.12C840.768 648.544 841.44 650.428 842.784 651.772C844.128 653.116 845.988 653.788 848.364 653.788C849.924 653.788 851.436 653.536 852.9 653.032L853.692 657.46C851.94 658.132 849.948 658.468 847.716 658.468ZM865.861 658.54C863.989 658.54 862.333 658.132 860.893 657.316C859.477 656.5 858.373 655.36 857.581 653.896C856.789 652.408 856.393 650.692 856.393 648.748C856.393 646.804 856.777 645.1 857.545 643.636C858.337 642.148 859.441 640.996 860.857 640.18C862.297 639.364 863.953 638.956 865.825 638.956C867.697 638.956 869.341 639.364 870.757 640.18C872.197 640.972 873.301 642.1 874.069 643.564C874.861 645.028 875.257 646.72 875.257 648.64C875.257 650.584 874.861 652.312 874.069 653.824C873.301 655.312 872.197 656.476 870.757 657.316C869.341 658.132 867.709 658.54 865.861 658.54ZM865.825 654.148C867.121 654.148 868.153 653.656 868.921 652.672C869.713 651.664 870.109 650.344 870.109 648.712C870.109 647.08 869.713 645.784 868.921 644.824C868.153 643.84 867.121 643.348 865.825 643.348C864.529 643.348 863.485 643.84 862.693 644.824C861.925 645.784 861.541 647.08 861.541 648.712C861.541 650.344 861.925 651.664 862.693 652.672C863.485 653.656 864.529 654.148 865.825 654.148ZM879.02 639.46H883.988V642.664C884.756 641.392 885.644 640.456 886.652 639.856C887.66 639.256 888.836 638.956 890.18 638.956C892.172 638.956 893.732 639.556 894.86 640.756C895.988 641.932 896.552 643.576 896.552 645.688V658H891.476V646.48C891.476 645.52 891.236 644.776 890.756 644.248C890.276 643.696 889.628 643.42 888.812 643.42C887.852 643.42 886.94 643.78 886.076 644.5C885.212 645.22 884.552 646.132 884.096 647.236V658H879.02V639.46ZM907.515 658.54C905.787 658.54 904.443 658.108 903.483 657.244C902.547 656.356 902.079 655.108 902.079 653.5V643.816H899.199V639.46H902.079V635.5C903.783 635.212 905.463 634.996 907.119 634.852V639.46H911.799V643.816H907.119V652.564C907.119 653.068 907.263 653.452 907.551 653.716C907.863 653.98 908.295 654.112 908.847 654.112C909.519 654.112 910.287 653.956 911.151 653.644L912.267 657.46C910.731 658.18 909.147 658.54 907.515 658.54ZM923.733 658.54C920.733 658.54 918.369 657.676 916.641 655.948C914.937 654.22 914.085 651.82 914.085 648.748C914.085 646.756 914.457 645.028 915.201 643.564C915.945 642.076 916.989 640.936 918.333 640.144C919.701 639.352 921.297 638.956 923.121 638.956C925.809 638.956 927.873 639.82 929.313 641.548C930.753 643.276 931.473 645.772 931.473 649.036C931.473 649.588 931.461 649.996 931.437 650.26H919.197C919.437 651.532 919.989 652.504 920.853 653.176C921.717 653.824 922.881 654.148 924.345 654.148C925.233 654.148 926.157 654.04 927.117 653.824C928.077 653.584 928.917 653.272 929.637 652.888L930.465 656.956C929.505 657.46 928.437 657.844 927.261 658.108C926.109 658.396 924.933 658.54 923.733 658.54ZM926.613 646.444C926.541 645.412 926.181 644.596 925.533 643.996C924.885 643.372 924.021 643.06 922.941 643.06C921.909 643.06 921.057 643.36 920.385 643.96C919.737 644.56 919.329 645.388 919.161 646.444H926.613ZM935.27 639.46H940.238V642.34C941.702 640.084 943.682 638.956 946.178 638.956C947.594 638.956 948.794 639.292 949.778 639.964C950.786 640.612 951.518 641.548 951.974 642.772C952.814 641.452 953.75 640.492 954.782 639.892C955.838 639.268 957.038 638.956 958.382 638.956C960.374 638.956 961.922 639.556 963.026 640.756C964.154 641.932 964.718 643.576 964.718 645.688V658H959.642V646.48C959.642 645.52 959.402 644.776 958.922 644.248C958.466 643.696 957.842 643.42 957.05 643.42C956.066 643.42 955.154 643.828 954.314 644.644C953.474 645.46 952.85 646.504 952.442 647.776V658H947.366V646.48C947.366 645.544 947.126 644.8 946.646 644.248C946.166 643.696 945.53 643.42 944.738 643.42C943.85 643.42 943.01 643.756 942.218 644.428C941.45 645.076 940.826 646 940.346 647.2V658H935.27V639.46ZM969.582 639.46H974.514L974.406 641.872H974.55C975.174 640.912 975.93 640.18 976.818 639.676C977.73 639.172 978.762 638.92 979.914 638.92C982.002 638.92 983.634 639.724 984.81 641.332C986.01 642.916 986.61 645.136 986.61 647.992C986.61 651.376 985.722 653.98 983.946 655.804C982.194 657.604 979.686 658.504 976.422 658.504C976.014 658.504 975.402 658.48 974.586 658.432V665.848H969.582V639.46ZM976.926 654.076C978.438 654.076 979.578 653.584 980.346 652.6C981.138 651.616 981.534 650.176 981.534 648.28C981.534 646.744 981.282 645.544 980.778 644.68C980.298 643.792 979.626 643.348 978.762 643.348C977.994 643.348 977.25 643.684 976.53 644.356C975.81 645.004 975.162 645.94 974.586 647.164V653.752C975.402 653.968 976.182 654.076 976.926 654.076ZM988.828 653.644H992.104V636.04H989.008V631.72H997.18V653.644H1000.46V658H988.828V653.644ZM1008.73 658.54C1006.81 658.54 1005.29 657.724 1004.16 656.092C1003.03 654.46 1002.47 652.24 1002.47 649.432C1002.47 646.024 1003.33 643.432 1005.06 641.656C1006.79 639.856 1009.27 638.956 1012.51 638.956C1014.34 638.956 1016.47 639.244 1018.92 639.82V658H1014.1L1014.2 655.048H1014.06C1013.44 656.176 1012.67 657.04 1011.76 657.64C1010.87 658.24 1009.86 658.54 1008.73 658.54ZM1009.81 654.112C1010.56 654.112 1011.29 653.716 1012.01 652.924C1012.73 652.132 1013.4 651.076 1014.02 649.756V643.708C1013.26 643.492 1012.49 643.384 1011.72 643.384C1010.28 643.384 1009.19 643.876 1008.44 644.86C1007.72 645.844 1007.36 647.296 1007.36 649.216C1007.36 650.728 1007.58 651.928 1008.01 652.816C1008.44 653.68 1009.04 654.112 1009.81 654.112ZM1030.56 658.54C1028.83 658.54 1027.49 658.108 1026.53 657.244C1025.59 656.356 1025.13 655.108 1025.13 653.5V643.816H1022.25V639.46H1025.13V635.5C1026.83 635.212 1028.51 634.996 1030.17 634.852V639.46H1034.85V643.816H1030.17V652.564C1030.17 653.068 1030.31 653.452 1030.6 653.716C1030.91 653.98 1031.34 654.112 1031.89 654.112C1032.57 654.112 1033.33 653.956 1034.2 653.644L1035.31 657.46C1033.78 658.18 1032.19 658.54 1030.56 658.54ZM1041.07 631.72H1046.87V636.4H1041.07V631.72ZM1038.26 653.644H1041.72V643.816H1038.26V639.46H1046.79V653.644H1049.89V658H1038.26V653.644ZM1061.65 658.54C1058.65 658.54 1056.29 657.676 1054.56 655.948C1052.85 654.22 1052 651.82 1052 648.748C1052 646.756 1052.37 645.028 1053.12 643.564C1053.86 642.076 1054.91 640.936 1056.25 640.144C1057.62 639.352 1059.21 638.956 1061.04 638.956C1063.73 638.956 1065.79 639.82 1067.23 641.548C1068.67 643.276 1069.39 645.772 1069.39 649.036C1069.39 649.588 1069.38 649.996 1069.35 650.26H1057.11C1057.35 651.532 1057.91 652.504 1058.77 653.176C1059.63 653.824 1060.8 654.148 1062.26 654.148C1063.15 654.148 1064.07 654.04 1065.03 653.824C1065.99 653.584 1066.83 653.272 1067.55 652.888L1068.38 656.956C1067.42 657.46 1066.35 657.844 1065.18 658.108C1064.03 658.396 1062.85 658.54 1061.65 658.54ZM1064.53 646.444C1064.46 645.412 1064.1 644.596 1063.45 643.996C1062.8 643.372 1061.94 643.06 1060.86 643.06C1059.83 643.06 1058.97 643.36 1058.3 643.96C1057.65 644.56 1057.25 645.388 1057.08 646.444H1064.53Z" fill="black"/>
<path d="M580.52 780.024C581.216 780 582.536 779.988 584.48 779.988C586.448 779.988 587.78 780 588.476 780.024C590.948 780.072 592.892 780.732 594.308 782.004C595.724 783.276 596.432 785.04 596.432 787.296C596.432 788.904 596.072 790.332 595.352 791.58C594.632 792.804 593.612 793.752 592.292 794.424C590.996 795.096 589.52 795.432 587.864 795.432H585.524V804H580.52V780.024ZM587.648 791.184C588.824 791.184 589.736 790.848 590.384 790.176C591.056 789.504 591.392 788.592 591.392 787.44C591.392 785.328 590.228 784.272 587.9 784.272H585.524V791.184H587.648ZM600.136 785.46H605.212V788.484H605.5C606.196 787.26 606.88 786.36 607.552 785.784C608.248 785.208 609.112 784.92 610.144 784.92C610.576 784.92 610.936 784.968 611.224 785.064L610.684 790.536C610.06 790.368 609.556 790.284 609.172 790.284C608.62 790.284 608.128 790.392 607.696 790.608C607.288 790.824 606.916 791.112 606.58 791.472C606.268 791.832 605.812 792.384 605.212 793.128V804H600.136V785.46ZM622.522 804.54C619.522 804.54 617.158 803.676 615.43 801.948C613.726 800.22 612.874 797.82 612.874 794.748C612.874 792.756 613.246 791.028 613.99 789.564C614.734 788.076 615.778 786.936 617.122 786.144C618.49 785.352 620.086 784.956 621.91 784.956C624.598 784.956 626.662 785.82 628.102 787.548C629.542 789.276 630.262 791.772 630.262 795.036C630.262 795.588 630.25 795.996 630.226 796.26H617.986C618.226 797.532 618.778 798.504 619.642 799.176C620.506 799.824 621.67 800.148 623.134 800.148C624.022 800.148 624.946 800.04 625.906 799.824C626.866 799.584 627.706 799.272 628.426 798.888L629.254 802.956C628.294 803.46 627.226 803.844 626.05 804.108C624.898 804.396 623.722 804.54 622.522 804.54ZM625.402 792.444C625.33 791.412 624.97 790.596 624.322 789.996C623.674 789.372 622.81 789.06 621.73 789.06C620.698 789.06 619.846 789.36 619.174 789.96C618.526 790.56 618.118 791.388 617.95 792.444H625.402ZM634.059 785.46H638.991L638.883 787.872H639.027C639.651 786.912 640.407 786.18 641.295 785.676C642.207 785.172 643.239 784.92 644.391 784.92C646.479 784.92 648.111 785.724 649.287 787.332C650.487 788.916 651.087 791.136 651.087 793.992C651.087 797.376 650.199 799.98 648.423 801.804C646.671 803.604 644.163 804.504 640.899 804.504C640.491 804.504 639.879 804.48 639.063 804.432V811.848H634.059V785.46ZM641.403 800.076C642.915 800.076 644.055 799.584 644.823 798.6C645.615 797.616 646.011 796.176 646.011 794.28C646.011 792.744 645.759 791.544 645.255 790.68C644.775 789.792 644.103 789.348 643.239 789.348C642.471 789.348 641.727 789.684 641.007 790.356C640.287 791.004 639.639 791.94 639.063 793.164V799.752C639.879 799.968 640.659 800.076 641.403 800.076ZM660.376 804.54C658.456 804.54 656.932 803.724 655.804 802.092C654.676 800.46 654.112 798.24 654.112 795.432C654.112 792.024 654.976 789.432 656.704 787.656C658.432 785.856 660.916 784.956 664.156 784.956C665.98 784.956 668.116 785.244 670.564 785.82V804H665.74L665.848 801.048H665.704C665.08 802.176 664.312 803.04 663.4 803.64C662.512 804.24 661.504 804.54 660.376 804.54ZM661.456 800.112C662.2 800.112 662.932 799.716 663.652 798.924C664.372 798.132 665.044 797.076 665.668 795.756V789.708C664.9 789.492 664.132 789.384 663.364 789.384C661.924 789.384 660.832 789.876 660.088 790.86C659.368 791.844 659.008 793.296 659.008 795.216C659.008 796.728 659.224 797.928 659.656 798.816C660.088 799.68 660.688 800.112 661.456 800.112ZM675.511 785.46H680.587V788.484H680.875C681.571 787.26 682.255 786.36 682.927 785.784C683.623 785.208 684.487 784.92 685.519 784.92C685.951 784.92 686.311 784.968 686.599 785.064L686.059 790.536C685.435 790.368 684.931 790.284 684.547 790.284C683.995 790.284 683.503 790.392 683.071 790.608C682.663 790.824 682.291 791.112 681.955 791.472C681.643 791.832 681.187 792.384 680.587 793.128V804H675.511V785.46ZM694.513 804.54C692.593 804.54 691.069 803.724 689.941 802.092C688.813 800.46 688.249 798.24 688.249 795.432C688.249 792.024 689.113 789.432 690.841 787.656C692.569 785.856 695.053 784.956 698.293 784.956C700.117 784.956 702.253 785.244 704.701 785.82V804H699.877L699.985 801.048H699.841C699.217 802.176 698.449 803.04 697.537 803.64C696.649 804.24 695.641 804.54 694.513 804.54ZM695.593 800.112C696.337 800.112 697.069 799.716 697.789 798.924C698.509 798.132 699.181 797.076 699.805 795.756V789.708C699.037 789.492 698.269 789.384 697.501 789.384C696.061 789.384 694.969 789.876 694.225 790.86C693.505 791.844 693.145 793.296 693.145 795.216C693.145 796.728 693.361 797.928 693.793 798.816C694.225 799.68 694.825 800.112 695.593 800.112ZM716.343 804.54C714.615 804.54 713.271 804.108 712.311 803.244C711.375 802.356 710.907 801.108 710.907 799.5V789.816H708.027V785.46H710.907V781.5C712.611 781.212 714.291 780.996 715.947 780.852V785.46H720.627V789.816H715.947V798.564C715.947 799.068 716.091 799.452 716.379 799.716C716.691 799.98 717.123 800.112 717.675 800.112C718.347 800.112 719.115 799.956 719.979 799.644L721.095 803.46C719.559 804.18 717.975 804.54 716.343 804.54ZM726.852 777.72H732.648V782.4H726.852V777.72ZM724.044 799.644H727.5V789.816H724.044V785.46H732.576V799.644H735.672V804H724.044V799.644ZM747.432 804.54C744.432 804.54 742.068 803.676 740.34 801.948C738.636 800.22 737.784 797.82 737.784 794.748C737.784 792.756 738.156 791.028 738.9 789.564C739.644 788.076 740.688 786.936 742.032 786.144C743.4 785.352 744.996 784.956 746.82 784.956C749.508 784.956 751.572 785.82 753.012 787.548C754.452 789.276 755.172 791.772 755.172 795.036C755.172 795.588 755.16 795.996 755.136 796.26H742.896C743.136 797.532 743.688 798.504 744.552 799.176C745.416 799.824 746.58 800.148 748.044 800.148C748.932 800.148 749.856 800.04 750.816 799.824C751.776 799.584 752.616 799.272 753.336 798.888L754.164 802.956C753.204 803.46 752.136 803.844 750.96 804.108C749.808 804.396 748.632 804.54 747.432 804.54ZM750.312 792.444C750.24 791.412 749.88 790.596 749.232 789.996C748.584 789.372 747.72 789.06 746.64 789.06C745.608 789.06 744.756 789.36 744.084 789.96C743.436 790.56 743.028 791.388 742.86 792.444H750.312Z" fill="black"/>
<path d="M376.036 554.024H382.3L391.192 578H385.792L383.848 572.528H374.416L372.58 578H367.252L376.036 554.024ZM382.3 568.064L379.06 558.884L375.928 568.064H382.3ZM402.414 578.54C399.342 578.54 396.954 577.724 395.25 576.092C393.57 574.46 392.73 572.156 392.73 569.18C392.73 567.164 393.126 565.388 393.918 563.852C394.71 562.292 395.826 561.092 397.266 560.252C398.706 559.388 400.374 558.956 402.27 558.956C403.158 558.956 404.082 559.064 405.042 559.28C406.026 559.472 406.782 559.7 407.31 559.964L406.338 564.248C405.786 563.984 405.174 563.78 404.502 563.636C403.854 563.468 403.242 563.384 402.666 563.384C401.178 563.384 399.978 563.888 399.066 564.896C398.178 565.904 397.734 567.236 397.734 568.892C397.734 570.572 398.19 571.868 399.102 572.78C400.038 573.692 401.358 574.148 403.062 574.148C404.19 574.148 405.402 573.932 406.698 573.5L407.454 577.604C405.894 578.228 404.214 578.54 402.414 578.54ZM418.367 578.54C416.639 578.54 415.295 578.108 414.335 577.244C413.399 576.356 412.931 575.108 412.931 573.5V563.816H410.051V559.46H412.931V555.5C414.635 555.212 416.315 554.996 417.971 554.852V559.46H422.651V563.816H417.971V572.564C417.971 573.068 418.115 573.452 418.403 573.716C418.715 573.98 419.147 574.112 419.699 574.112C420.371 574.112 421.139 573.956 422.003 573.644L423.119 577.46C421.583 578.18 419.999 578.54 418.367 578.54ZM428.875 551.72H434.671V556.4H428.875V551.72ZM426.067 573.644H429.523V563.816H426.067V559.46H434.599V573.644H437.695V578H426.067V573.644ZM449.455 578.54C446.455 578.54 444.091 577.676 442.363 575.948C440.659 574.22 439.807 571.82 439.807 568.748C439.807 566.756 440.179 565.028 440.923 563.564C441.667 562.076 442.711 560.936 444.055 560.144C445.423 559.352 447.019 558.956 448.843 558.956C451.531 558.956 453.595 559.82 455.035 561.548C456.475 563.276 457.195 565.772 457.195 569.036C457.195 569.588 457.183 569.996 457.159 570.26H444.919C445.159 571.532 445.711 572.504 446.575 573.176C447.439 573.824 448.603 574.148 450.067 574.148C450.955 574.148 451.879 574.04 452.839 573.824C453.799 573.584 454.639 573.272 455.359 572.888L456.187 576.956C455.227 577.46 454.159 577.844 452.983 578.108C451.831 578.396 450.655 578.54 449.455 578.54ZM452.335 566.444C452.263 565.412 451.903 564.596 451.255 563.996C450.607 563.372 449.743 563.06 448.663 563.06C447.631 563.06 446.779 563.36 446.107 563.96C445.459 564.56 445.051 565.388 444.883 566.444H452.335Z" fill="black"/>
<path d="M645.751 54.9458H665.685V61.7749H659.818V76H651.618V61.7749H645.751V54.9458ZM677.801 64.3062C677.801 63.5327 677.44 63.146 676.72 63.146C675.894 63.2251 675.357 63.6514 675.111 64.4248C674.988 64.7939 674.9 65.2246 674.848 65.7168C674.804 66.2002 674.733 66.7188 674.637 67.2725L677.524 66.6265L677.774 64.6094L677.801 64.3062ZM676.021 70.3047C676.021 70.3047 675.779 70.3047 675.296 70.3047C675.067 70.3047 674.848 70.2959 674.637 70.2783C674.637 71.3242 675.195 71.8955 676.311 71.9922C676.619 72.0186 676.917 72.0317 677.208 72.0317C677.955 72.0317 678.891 71.8604 680.016 71.5176C681.149 71.1748 682.165 70.6167 683.061 69.8433L683.878 73.9434C681.918 75.6396 678.957 76.4878 674.993 76.4878C672.716 76.4878 670.761 75.8242 669.126 74.4971C667.351 73.0469 666.463 71.0386 666.463 68.4722C666.463 66.5386 666.964 64.8027 667.966 63.2646C668.897 61.8584 670.159 60.7905 671.75 60.061C673.34 59.3315 675.059 58.9668 676.904 58.9668C679.295 58.9668 681.101 59.4897 682.323 60.5356C683.553 61.5815 684.164 62.8735 684.155 64.4116C684.155 65.9497 683.421 67.3164 681.954 68.5117C680.486 69.707 678.508 70.3047 676.021 70.3047ZM698.657 65.7959C697.849 65.7959 697.018 66.0903 696.166 66.6792C695.313 67.2681 694.882 67.8262 694.874 68.3535V76H686.937V59.6128H694.874V61.3662C695.322 60.6895 695.875 60.1489 696.535 59.7446C697.203 59.3403 697.91 59.0986 698.657 59.0195V65.7959ZM708.769 67.2461C708.769 70.1289 709.468 71.5703 710.865 71.5703C711.568 71.5703 711.977 71.2275 712.091 70.542C712.126 70.3311 712.144 70.0981 712.144 69.8433V59.6128H719.975V76H715.651L713.766 73.4292C712.649 74.9497 711.037 75.9385 708.927 76.3955C706.343 76.9492 704.26 76.5098 702.678 75.0771C701.483 73.9961 700.885 72.5679 700.885 70.7925V59.6128H708.769V67.2461ZM729.098 82.75V78.083C729.546 78.1357 730.034 78.2104 730.562 78.3071C731.098 78.4038 731.616 78.4521 732.117 78.4521C732.618 78.4521 733.08 78.395 733.501 78.2808C733.932 78.1665 734.314 77.9424 734.648 77.6084C735.369 76.8877 735.734 75.6748 735.743 73.9697C734.205 75.6484 732.341 76.4878 730.153 76.4878C727.973 76.4966 726.154 75.8066 724.695 74.418C723.245 73.0293 722.52 71.0474 722.52 68.4722C722.52 66.6265 722.924 64.9873 723.732 63.5547C724.541 62.1133 725.626 60.9927 726.989 60.1929C728.36 59.3931 729.814 58.9932 731.353 58.9932C732.899 58.9932 734.235 59.4985 735.36 60.5093C735.729 60.8345 736.046 61.208 736.31 61.6299L738.208 59.6128H742.519V76C742.528 79.3838 741.003 81.6074 737.944 82.6709C736.714 83.1016 735.303 83.3169 733.712 83.3169C732.13 83.3169 730.592 83.1279 729.098 82.75ZM735.426 64.583C735.11 64.3984 734.776 64.3062 734.424 64.3062C734.082 64.3062 733.748 64.3765 733.422 64.5171C732.754 64.8071 732.157 65.2773 731.629 65.9277C730.742 66.9561 730.298 68.0459 730.298 69.1973C730.298 69.9707 730.526 70.5156 730.983 70.832C731.37 71.0869 731.968 71.0825 732.776 70.8188C733.55 70.564 734.433 70.0498 735.426 69.2764V64.583ZM754.463 64.438L756.705 59.6128H762.993L754.912 75.9736C754.753 76.3164 754.411 76.4878 753.883 76.4878C753.356 76.4878 753 76.3164 752.815 75.9736L744.312 59.6128H752.024L754.463 64.438ZM765.749 74.5498C765.045 73.8906 764.483 73.0645 764.061 72.0713C763.648 71.0693 763.441 69.9927 763.441 68.8413C763.441 67.6899 763.556 66.6924 763.784 65.8486C764.241 64.1699 765.041 62.7593 766.184 61.6167C766.729 61.0542 767.335 60.5796 768.003 60.1929C769.374 59.3931 770.82 58.9932 772.34 58.9932C773.87 58.9932 775.21 59.4985 776.361 60.5093C776.73 60.8345 777.051 61.208 777.324 61.6299L779.209 59.6128H783.533V76H779.209L777.324 73.271C775.882 75.3979 773.698 76.4658 770.771 76.4746C769.963 76.4834 769.097 76.3252 768.174 76C767.26 75.6836 766.452 75.2002 765.749 74.5498ZM776.427 64.583C776.111 64.3984 775.733 64.3062 775.293 64.3062C774.854 64.3062 774.388 64.4644 773.896 64.7808C773.413 65.0884 772.978 65.4795 772.591 65.9541C771.729 67.0176 771.299 68.0986 771.299 69.1973C771.299 69.9707 771.536 70.5156 772.011 70.832C772.45 71.1221 773.118 71.0825 774.015 70.7134C774.92 70.3354 775.724 69.8477 776.427 69.25V64.583ZM794.186 76H786.71V53.812H794.186V76Z" fill="black"/>
<path d="M1099.52 230.4C1096.45 230.4 1094.42 230.021 1093.41 229.262V224.565C1093.44 224.572 1093.54 224.603 1093.71 224.658C1093.89 224.712 1094.11 224.781 1094.38 224.863C1095 225.054 1095.65 225.235 1096.33 225.406C1097.03 225.57 1097.58 225.652 1098 225.652C1098.68 225.652 1099.02 225.444 1099.02 225.027C1099.02 224.706 1098.73 224.364 1098.14 224.001C1097.87 223.837 1097.57 223.667 1097.23 223.489C1096.89 223.311 1096.55 223.113 1096.2 222.894C1095.35 222.368 1094.66 221.752 1094.14 221.048C1093.63 220.344 1093.37 219.456 1093.37 218.382C1093.37 216.038 1094.61 214.462 1097.08 213.655C1098.09 213.327 1099.25 213.163 1100.56 213.163C1101.88 213.163 1103.26 213.313 1104.69 213.614C1104.99 213.676 1105.18 213.72 1105.28 213.748V218.454C1103.42 218.058 1102.08 217.859 1101.27 217.859C1100.95 217.859 1100.72 217.914 1100.56 218.023C1100.4 218.133 1100.32 218.256 1100.32 218.393C1100.32 218.529 1100.39 218.673 1100.53 218.823C1100.67 218.967 1100.9 219.114 1101.24 219.264C1101.57 219.408 1101.96 219.585 1102.41 219.797C1102.86 220.002 1103.28 220.225 1103.67 220.464C1105.42 221.537 1106.29 223.003 1106.29 224.863C1106.29 226.626 1105.7 227.99 1104.51 228.954C1103.3 229.911 1101.64 230.393 1099.52 230.4ZM1118.09 229.077C1116.79 229.959 1115.42 230.4 1113.96 230.4C1112.51 230.4 1111.33 229.99 1110.42 229.169C1109.51 228.342 1109.06 227.231 1109.06 225.837V220.505H1107.89V217.254H1109.06V213.809L1115.19 213.184V217.254H1118.09V220.505H1115.19V223.725C1115.19 224.688 1115.41 225.389 1115.84 225.827C1116.28 226.257 1117.03 226.473 1118.09 226.473V229.077ZM1121.4 228.872C1120.85 228.359 1120.41 227.717 1120.08 226.944C1119.76 226.165 1119.6 225.328 1119.6 224.432C1119.6 223.537 1119.69 222.761 1119.87 222.104C1120.22 220.799 1120.85 219.702 1121.73 218.813C1122.16 218.375 1122.63 218.006 1123.15 217.706C1124.22 217.083 1125.34 216.772 1126.52 216.772C1127.71 216.772 1128.75 217.166 1129.65 217.952C1129.94 218.205 1130.19 218.495 1130.4 218.823L1131.86 217.254H1135.23V230H1131.86L1130.4 227.877C1129.28 229.532 1127.58 230.362 1125.3 230.369C1124.67 230.376 1124 230.253 1123.28 230C1122.57 229.754 1121.94 229.378 1121.4 228.872ZM1129.7 221.12C1129.46 220.977 1129.16 220.905 1128.82 220.905C1128.48 220.905 1128.12 221.028 1127.73 221.274C1127.36 221.513 1127.02 221.817 1126.72 222.187C1126.05 223.014 1125.71 223.854 1125.71 224.709C1125.71 225.311 1125.9 225.734 1126.27 225.98C1126.61 226.206 1127.13 226.175 1127.82 225.888C1128.53 225.594 1129.15 225.215 1129.7 224.75V221.12ZM1146.79 222.063C1146.17 222.063 1145.52 222.292 1144.86 222.75C1144.19 223.208 1143.86 223.643 1143.85 224.053V230H1137.68V217.254H1143.85V218.618C1144.2 218.092 1144.63 217.671 1145.14 217.357C1145.66 217.042 1146.21 216.854 1146.79 216.793V222.063ZM1158.25 229.077C1156.95 229.959 1155.57 230.4 1154.12 230.4C1152.67 230.4 1151.49 229.99 1150.58 229.169C1149.67 228.342 1149.21 227.231 1149.21 225.837V220.505H1148.05V217.254H1149.21V213.809L1155.35 213.184V217.254H1158.25V220.505H1155.35V223.725C1155.35 224.688 1155.56 225.389 1155.99 225.827C1156.43 226.257 1157.18 226.473 1158.25 226.473V229.077ZM1172.3 221.007L1174.04 217.254H1178.93L1172.64 229.979C1172.52 230.246 1172.25 230.379 1171.84 230.379C1171.43 230.379 1171.16 230.246 1171.01 229.979L1164.4 217.254H1170.4L1172.3 221.007ZM1181.07 228.872C1180.53 228.359 1180.09 227.717 1179.76 226.944C1179.44 226.165 1179.28 225.328 1179.28 224.432C1179.28 223.537 1179.37 222.761 1179.55 222.104C1179.9 220.799 1180.52 219.702 1181.41 218.813C1181.84 218.375 1182.31 218.006 1182.83 217.706C1183.89 217.083 1185.02 216.772 1186.2 216.772C1187.39 216.772 1188.43 217.166 1189.33 217.952C1189.61 218.205 1189.86 218.495 1190.08 218.823L1191.54 217.254H1194.91V230H1191.54L1190.08 227.877C1188.96 229.532 1187.26 230.362 1184.98 230.369C1184.35 230.376 1183.68 230.253 1182.96 230C1182.25 229.754 1181.62 229.378 1181.07 228.872ZM1189.38 221.12C1189.13 220.977 1188.84 220.905 1188.5 220.905C1188.16 220.905 1187.79 221.028 1187.41 221.274C1187.03 221.513 1186.7 221.817 1186.4 222.187C1185.73 223.014 1185.39 223.854 1185.39 224.709C1185.39 225.311 1185.57 225.734 1185.94 225.98C1186.29 226.206 1186.81 226.175 1187.5 225.888C1188.21 225.594 1188.83 225.215 1189.38 224.75V221.12ZM1204.27 220.72C1203.72 220.72 1203.45 221.161 1203.45 222.043V230H1197.36V217.254H1200.72L1202.19 219.244C1202.73 218.485 1203.49 217.883 1204.45 217.439C1205.42 216.995 1206.33 216.772 1207.17 216.772C1208.71 216.772 1209.94 217.183 1210.84 218.003C1211.75 218.823 1212.2 219.924 1212.2 221.305V230H1206.07V223.848C1206.07 221.763 1205.47 220.72 1204.27 220.72ZM1025.15 270.25V266.62C1025.5 266.661 1025.88 266.719 1026.29 266.794C1026.71 266.87 1027.11 266.907 1027.5 266.907C1027.89 266.907 1028.25 266.863 1028.58 266.774C1028.91 266.685 1029.21 266.511 1029.47 266.251C1030.03 265.69 1030.31 264.747 1030.32 263.421C1029.12 264.727 1027.67 265.379 1025.97 265.379C1024.28 265.386 1022.86 264.85 1021.73 263.77C1020.6 262.689 1020.04 261.148 1020.04 259.145C1020.04 257.709 1020.35 256.435 1020.98 255.32C1021.61 254.199 1022.45 253.328 1023.51 252.706C1024.58 252.083 1025.71 251.772 1026.91 251.772C1028.11 251.772 1029.15 252.166 1030.02 252.952C1030.31 253.205 1030.56 253.495 1030.76 253.823L1032.24 252.254H1035.59V265C1035.6 267.632 1034.41 269.361 1032.03 270.188C1031.08 270.523 1029.98 270.691 1028.74 270.691C1027.51 270.691 1026.31 270.544 1025.15 270.25ZM1030.07 256.12C1029.83 255.977 1029.57 255.905 1029.29 255.905C1029.03 255.905 1028.77 255.959 1028.52 256.069C1028 256.294 1027.53 256.66 1027.12 257.166C1026.43 257.966 1026.09 258.813 1026.09 259.709C1026.09 260.311 1026.26 260.734 1026.62 260.98C1026.92 261.179 1027.38 261.175 1028.01 260.97C1028.61 260.772 1029.3 260.372 1030.07 259.771V256.12ZM1046.31 255.905C1046.31 255.303 1046.03 255.002 1045.47 255.002C1044.82 255.064 1044.41 255.396 1044.21 255.997C1044.12 256.284 1044.05 256.619 1044.01 257.002C1043.98 257.378 1043.92 257.781 1043.85 258.212L1046.09 257.709L1046.29 256.141L1046.31 255.905ZM1044.92 260.57C1044.92 260.57 1044.73 260.57 1044.36 260.57C1044.18 260.57 1044.01 260.563 1043.85 260.55C1043.85 261.363 1044.28 261.808 1045.15 261.883C1045.39 261.903 1045.62 261.914 1045.84 261.914C1046.43 261.914 1047.15 261.78 1048.03 261.514C1048.91 261.247 1049.7 260.813 1050.4 260.211L1051.03 263.4C1049.51 264.72 1047.21 265.379 1044.12 265.379C1042.35 265.379 1040.83 264.863 1039.56 263.831C1038.18 262.703 1037.49 261.141 1037.49 259.145C1037.49 257.641 1037.88 256.291 1038.66 255.095C1039.38 254.001 1040.36 253.17 1041.6 252.603C1042.84 252.036 1044.17 251.752 1045.61 251.752C1047.47 251.752 1048.87 252.159 1049.82 252.972C1050.78 253.786 1051.26 254.791 1051.25 255.987C1051.25 257.183 1050.68 258.246 1049.54 259.176C1048.39 260.105 1046.86 260.57 1044.92 260.57ZM1060.31 251.793C1061.13 251.793 1061.96 251.926 1062.83 252.193V247.743H1068.79V265H1064.99L1063.52 262.877C1062.27 264.532 1060.63 265.359 1058.59 265.359C1056.96 265.359 1055.53 264.805 1054.3 263.698C1053.09 262.583 1052.48 261.158 1052.48 259.422C1052.48 257.686 1052.83 256.257 1053.55 255.136C1054.95 252.907 1057.21 251.793 1060.31 251.793ZM1062.83 256.12C1062.59 255.977 1062.34 255.905 1062.07 255.905C1061.79 255.905 1061.53 255.959 1061.28 256.069C1060.76 256.294 1060.29 256.66 1059.88 257.166C1059.66 257.412 1059.48 257.675 1059.33 257.956C1059 258.557 1058.84 259.155 1058.84 259.75C1058.84 260.338 1059.02 260.748 1059.38 260.98C1059.51 261.062 1059.67 261.107 1059.85 261.114C1060.74 261.114 1061.73 260.666 1062.83 259.771V256.12ZM1080.39 257.063C1079.76 257.063 1079.12 257.292 1078.45 257.75C1077.79 258.208 1077.45 258.643 1077.45 259.053V265H1071.27V252.254H1077.45V253.618C1077.8 253.092 1078.23 252.671 1078.74 252.357C1079.26 252.042 1079.81 251.854 1080.39 251.793V257.063ZM1083.62 263.872C1083.07 263.359 1082.64 262.717 1082.31 261.944C1081.99 261.165 1081.83 260.328 1081.83 259.432C1081.83 258.537 1081.91 257.761 1082.09 257.104C1082.45 255.799 1083.07 254.702 1083.96 253.813C1084.38 253.375 1084.85 253.006 1085.37 252.706C1086.44 252.083 1087.56 251.772 1088.75 251.772C1089.94 251.772 1090.98 252.166 1091.87 252.952C1092.16 253.205 1092.41 253.495 1092.62 253.823L1094.09 252.254H1097.45V265H1094.09L1092.62 262.877C1091.5 264.532 1089.8 265.362 1087.53 265.369C1086.9 265.376 1086.22 265.253 1085.51 265C1084.8 264.754 1084.17 264.378 1083.62 263.872ZM1091.93 256.12C1091.68 255.977 1091.39 255.905 1091.04 255.905C1090.7 255.905 1090.34 256.028 1089.96 256.274C1089.58 256.513 1089.24 256.817 1088.94 257.187C1088.27 258.014 1087.94 258.854 1087.94 259.709C1087.94 260.311 1088.12 260.734 1088.49 260.98C1088.83 261.206 1089.35 261.175 1090.05 260.888C1090.75 260.594 1091.38 260.215 1091.93 259.75V256.12ZM1104.54 270.25V266.62C1104.89 266.661 1105.27 266.719 1105.68 266.794C1106.09 266.87 1106.5 266.907 1106.89 266.907C1107.28 266.907 1107.63 266.863 1107.96 266.774C1108.3 266.685 1108.6 266.511 1108.85 266.251C1109.42 265.69 1109.7 264.747 1109.71 263.421C1108.51 264.727 1107.06 265.379 1105.36 265.379C1103.66 265.386 1102.25 264.85 1101.11 263.77C1099.99 262.689 1099.42 261.148 1099.42 259.145C1099.42 257.709 1099.74 256.435 1100.36 255.32C1100.99 254.199 1101.84 253.328 1102.9 252.706C1103.96 252.083 1105.1 251.772 1106.29 251.772C1107.49 251.772 1108.53 252.166 1109.41 252.952C1109.7 253.205 1109.94 253.495 1110.15 253.823L1111.62 252.254H1114.98V265C1114.98 267.632 1113.8 269.361 1111.42 270.188C1110.46 270.523 1109.36 270.691 1108.13 270.691C1106.9 270.691 1105.7 270.544 1104.54 270.25ZM1109.46 256.12C1109.21 255.977 1108.95 255.905 1108.68 255.905C1108.41 255.905 1108.15 255.959 1107.9 256.069C1107.38 256.294 1106.92 256.66 1106.51 257.166C1105.82 257.966 1105.47 258.813 1105.47 259.709C1105.47 260.311 1105.65 260.734 1106 260.98C1106.31 261.179 1106.77 261.175 1107.4 260.97C1108 260.772 1108.69 260.372 1109.46 259.771V256.12ZM1126.78 256.079C1125.26 255.724 1124.16 255.546 1123.47 255.546C1123.27 255.546 1123.11 255.59 1123.01 255.679C1122.9 255.768 1122.85 255.867 1122.85 255.977C1122.85 256.202 1123.13 256.431 1123.69 256.664C1124.26 256.889 1124.78 257.111 1125.25 257.33C1125.72 257.549 1126.13 257.815 1126.47 258.13C1127.21 258.813 1127.58 259.832 1127.58 261.186C1127.58 262.532 1127.09 263.568 1126.11 264.292C1125.13 265.017 1123.81 265.379 1122.14 265.379C1120.48 265.379 1119.14 265.226 1118.15 264.918C1117.71 264.788 1117.37 264.634 1117.14 264.457V260.652C1117.24 260.659 1117.4 260.704 1117.64 260.786C1117.88 260.868 1118.28 260.998 1118.83 261.175C1119.39 261.346 1119.89 261.432 1120.34 261.432C1120.8 261.432 1121.03 261.264 1121.03 260.929C1121.03 260.669 1120.82 260.417 1120.41 260.17C1120.23 260.061 1120.02 259.948 1119.79 259.832C1118.82 259.36 1118.13 258.817 1117.71 258.202C1117.3 257.58 1117.1 256.852 1117.1 256.018C1117.1 254.534 1117.7 253.427 1118.9 252.695C1119.92 252.08 1121.24 251.772 1122.87 251.772C1124.01 251.772 1125.16 251.885 1126.31 252.111C1126.55 252.159 1126.71 252.193 1126.78 252.213V256.079ZM1136.59 256.007L1138.33 252.254H1143.23L1136.94 264.979C1136.82 265.246 1136.55 265.379 1136.14 265.379C1135.73 265.379 1135.45 265.246 1135.31 264.979L1128.7 252.254H1134.69L1136.59 256.007ZM1152.17 255.905C1152.17 255.303 1151.89 255.002 1151.33 255.002C1150.68 255.064 1150.27 255.396 1150.08 255.997C1149.98 256.284 1149.91 256.619 1149.87 257.002C1149.84 257.378 1149.78 257.781 1149.71 258.212L1151.95 257.709L1152.15 256.141L1152.17 255.905ZM1150.78 260.57C1150.78 260.57 1150.6 260.57 1150.22 260.57C1150.04 260.57 1149.87 260.563 1149.71 260.55C1149.71 261.363 1150.14 261.808 1151.01 261.883C1151.25 261.903 1151.48 261.914 1151.71 261.914C1152.29 261.914 1153.02 261.78 1153.89 261.514C1154.77 261.247 1155.56 260.813 1156.26 260.211L1156.89 263.4C1155.37 264.72 1153.07 265.379 1149.98 265.379C1148.21 265.379 1146.69 264.863 1145.42 263.831C1144.04 262.703 1143.35 261.141 1143.35 259.145C1143.35 257.641 1143.74 256.291 1144.52 255.095C1145.24 254.001 1146.22 253.17 1147.46 252.603C1148.7 252.036 1150.03 251.752 1151.47 251.752C1153.33 251.752 1154.73 252.159 1155.68 252.972C1156.64 253.786 1157.12 254.791 1157.11 255.987C1157.11 257.183 1156.54 258.246 1155.4 259.176C1154.26 260.105 1152.72 260.57 1150.78 260.57ZM1168.39 257.063C1167.76 257.063 1167.11 257.292 1166.45 257.75C1165.79 258.208 1165.45 258.643 1165.45 259.053V265H1159.27V252.254H1165.45V253.618C1165.79 253.092 1166.23 252.671 1166.74 252.357C1167.26 252.042 1167.81 251.854 1168.39 251.793V257.063ZM1171.62 263.872C1171.07 263.359 1170.63 262.717 1170.31 261.944C1169.99 261.165 1169.82 260.328 1169.82 259.432C1169.82 258.537 1169.91 257.761 1170.09 257.104C1170.45 255.799 1171.07 254.702 1171.96 253.813C1172.38 253.375 1172.85 253.006 1173.37 252.706C1174.44 252.083 1175.56 251.772 1176.75 251.772C1177.94 251.772 1178.98 252.166 1179.87 252.952C1180.16 253.205 1180.41 253.495 1180.62 253.823L1182.09 252.254H1185.45V265H1182.09L1180.62 262.877C1179.5 264.532 1177.8 265.362 1175.53 265.369C1174.9 265.376 1174.22 265.253 1173.51 265C1172.79 264.754 1172.17 264.378 1171.62 263.872ZM1179.92 256.12C1179.68 255.977 1179.38 255.905 1179.04 255.905C1178.7 255.905 1178.34 256.028 1177.96 256.274C1177.58 256.513 1177.24 256.817 1176.94 257.187C1176.27 258.014 1175.94 258.854 1175.94 259.709C1175.94 260.311 1176.12 260.734 1176.49 260.98C1176.83 261.206 1177.35 261.175 1178.05 260.888C1178.75 260.594 1179.38 260.215 1179.92 259.75V256.12ZM1194.81 255.72C1194.27 255.72 1193.99 256.161 1193.99 257.043V265H1187.9V252.254H1191.27L1192.73 254.244C1193.28 253.485 1194.03 252.883 1195 252.439C1195.97 251.995 1196.87 251.772 1197.72 251.772C1199.26 251.772 1200.48 252.183 1201.39 253.003C1202.3 253.823 1202.75 254.924 1202.75 256.305V265H1196.62V258.848C1196.62 256.763 1196.02 255.72 1194.81 255.72ZM1212.5 251.793C1213.31 251.793 1214.15 251.926 1215.01 252.193V247.743H1220.98V265H1217.18L1215.71 262.877C1214.46 264.532 1212.82 265.359 1210.78 265.359C1209.15 265.359 1207.72 264.805 1206.49 263.698C1205.28 262.583 1204.67 261.158 1204.67 259.422C1204.67 257.686 1205.02 256.257 1205.73 255.136C1207.14 252.907 1209.4 251.793 1212.5 251.793ZM1215.01 256.12C1214.78 255.977 1214.53 255.905 1214.25 255.905C1213.98 255.905 1213.72 255.959 1213.47 256.069C1212.95 256.294 1212.48 256.66 1212.07 257.166C1211.85 257.412 1211.67 257.675 1211.52 257.956C1211.19 258.557 1211.02 259.155 1211.02 259.75C1211.02 260.338 1211.21 260.748 1211.57 260.98C1211.7 261.062 1211.86 261.107 1212.04 261.114C1212.93 261.114 1213.92 260.666 1215.01 259.771V256.12ZM1231.8 255.905C1231.8 255.303 1231.52 255.002 1230.96 255.002C1230.32 255.064 1229.9 255.396 1229.71 255.997C1229.61 256.284 1229.54 256.619 1229.5 257.002C1229.47 257.378 1229.41 257.781 1229.34 258.212L1231.58 257.709L1231.78 256.141L1231.8 255.905ZM1230.42 260.57C1230.42 260.57 1230.23 260.57 1229.85 260.57C1229.67 260.57 1229.5 260.563 1229.34 260.55C1229.34 261.363 1229.77 261.808 1230.64 261.883C1230.88 261.903 1231.11 261.914 1231.34 261.914C1231.92 261.914 1232.65 261.78 1233.52 261.514C1234.4 261.247 1235.19 260.813 1235.89 260.211L1236.53 263.4C1235 264.72 1232.7 265.379 1229.62 265.379C1227.84 265.379 1226.32 264.863 1225.05 263.831C1223.67 262.703 1222.98 261.141 1222.98 259.145C1222.98 257.641 1223.37 256.291 1224.15 255.095C1224.87 254.001 1225.86 253.17 1227.09 252.603C1228.33 252.036 1229.67 251.752 1231.1 251.752C1232.96 251.752 1234.37 252.159 1235.32 252.972C1236.27 253.786 1236.75 254.791 1236.74 255.987C1236.74 257.183 1236.17 258.246 1235.03 259.176C1233.89 260.105 1232.35 260.57 1230.42 260.57ZM1248.02 257.063C1247.39 257.063 1246.75 257.292 1246.08 257.75C1245.42 258.208 1245.08 258.643 1245.08 259.053V265H1238.91V252.254H1245.08V253.618C1245.43 253.092 1245.86 252.671 1246.37 252.357C1246.89 252.042 1247.44 251.854 1248.02 251.793V257.063ZM1252.99 246.348C1254 246.348 1254.74 246.56 1255.23 246.984C1255.71 247.401 1255.95 247.934 1255.95 248.583C1255.95 249.233 1255.64 249.831 1255.01 250.378C1254.4 250.925 1253.58 251.198 1252.54 251.198C1251.09 251.198 1250.19 250.761 1249.84 249.886C1249.73 249.64 1249.68 249.366 1249.68 249.065C1249.68 248.765 1249.75 248.45 1249.9 248.122C1250.04 247.794 1250.26 247.5 1250.54 247.24C1251.18 246.646 1252 246.348 1252.99 246.348ZM1255.77 265H1249.84V252.254H1255.77V265ZM1265.18 255.72C1264.63 255.72 1264.36 256.161 1264.36 257.043V265H1258.26V252.254H1261.63L1263.09 254.244C1263.64 253.485 1264.4 252.883 1265.36 252.439C1266.33 251.995 1267.24 251.772 1268.08 251.772C1269.62 251.772 1270.85 252.183 1271.75 253.003C1272.66 253.823 1273.11 254.924 1273.11 256.305V265H1266.98V258.848C1266.98 256.763 1266.38 255.72 1265.18 255.72ZM1280.15 270.25V266.62C1280.5 266.661 1280.87 266.719 1281.28 266.794C1281.7 266.87 1282.1 266.907 1282.49 266.907C1282.88 266.907 1283.24 266.863 1283.57 266.774C1283.91 266.685 1284.2 266.511 1284.46 266.251C1285.02 265.69 1285.31 264.747 1285.31 263.421C1284.12 264.727 1282.67 265.379 1280.97 265.379C1279.27 265.386 1277.86 264.85 1276.72 263.77C1275.59 262.689 1275.03 261.148 1275.03 259.145C1275.03 257.709 1275.34 256.435 1275.97 255.32C1276.6 254.199 1277.45 253.328 1278.51 252.706C1279.57 252.083 1280.7 251.772 1281.9 251.772C1283.1 251.772 1284.14 252.166 1285.02 252.952C1285.3 253.205 1285.55 253.495 1285.76 253.823L1287.23 252.254H1290.58V265C1290.59 267.632 1289.41 269.361 1287.03 270.188C1286.07 270.523 1284.97 270.691 1283.74 270.691C1282.5 270.691 1281.31 270.544 1280.15 270.25ZM1285.07 256.12C1284.82 255.977 1284.56 255.905 1284.29 255.905C1284.02 255.905 1283.76 255.959 1283.51 256.069C1282.99 256.294 1282.53 256.66 1282.12 257.166C1281.42 257.966 1281.08 258.813 1281.08 259.709C1281.08 260.311 1281.26 260.734 1281.61 260.98C1281.91 261.179 1282.38 261.175 1283.01 260.97C1283.61 260.772 1284.3 260.372 1285.07 259.771V256.12Z" fill="black"/>
</svg>
